<?xml version="1.0" encoding="UTF-8"?>
<svg id="Layer_1" data-name="Layer 1" xmlns="http://www.w3.org/2000/svg" xmlns:xlink="http://www.w3.org/1999/xlink" viewBox="0 0 285.34 294.54">
  <defs>
    <style>
      .cls-1 {
        fill: #fff;
      }

      .cls-2 {
        fill: none;
      }

      .cls-3 {
        clip-path: url(#clippath-1);
      }

      .cls-4 {
        fill: #bbbdbf;
      }

      .cls-5 {
        clip-path: url(#clippath);
      }

      .cls-6 {
        opacity: .5;
      }
    </style>
    <clipPath id="clippath">
      <rect class="cls-2" x="13.59" y="52.97" width="243.62" height="241.57"/>
    </clipPath>
    <clipPath id="clippath-1">
      <path class="cls-4" d="M128.23,214.12v-.34c.45,0,.9,0,1.34-.02v.34c-.45.01-.9.02-1.34.02ZM126.88,214.11c-.45,0-.91-.03-1.36-.04v-.34c.46.03.91.04,1.37.04v.34h-.01ZM130.96,214.03v-.34c.43-.02.88-.05,1.33-.09l.03.34c-.45.04-.91.07-1.36.09ZM124.16,213.99c-.45-.03-.91-.07-1.36-.12l.03-.34c.45.04.9.08,1.34.12l-.03.34h.01ZM133.67,213.8l-.04-.34c.45-.05.9-.11,1.35-.16l.04.34c-.45.07-.89.12-1.35.16ZM121.45,213.73c-.45-.05-.9-.12-1.34-.19l.05-.34c.45.07.9.12,1.34.19l-.04.34h-.01ZM136.36,213.43l-.05-.34c.45-.07.88-.15,1.33-.24l.07.34c-.45.08-.89.16-1.35.24ZM118.76,213.32c-.45-.08-.9-.16-1.34-.26l.07-.34c.45.09.88.18,1.33.26l-.05.34ZM139.03,212.9l-.07-.32c.45-.1.88-.21,1.32-.32l.08.33c-.43.11-.88.22-1.33.31ZM116.09,212.77c-.45-.11-.88-.22-1.32-.33l.08-.32c.43.11.87.22,1.32.32l-.08.33ZM141.68,212.25l-.09-.32c.43-.12.87-.25,1.3-.38l.1.32c-.43.14-.87.26-1.3.38ZM113.46,212.07c-.43-.12-.87-.26-1.3-.39l.11-.33c.43.14.85.27,1.29.4l-.1.32ZM144.27,211.45l-.11-.33c.42-.15.86-.3,1.28-.45l.12.31c-.42.16-.85.31-1.29.45v.02ZM110.87,211.23c-.43-.15-.85-.32-1.28-.48l.12-.31c.42.16.84.31,1.28.46l-.11.33h-.01ZM146.83,210.51l-.12-.31c.42-.16.83-.34,1.25-.52l.14.31c-.42.18-.83.35-1.25.52h-.01ZM108.32,210.26c-.42-.18-.84-.35-1.25-.54l.14-.31c.41.19.83.36,1.25.53l-.14.31h0ZM149.32,209.44l-.14-.31c.41-.19.82-.38,1.22-.58l.15.3c-.41.2-.81.39-1.22.58h-.02ZM105.82,209.15c-.41-.19-.81-.39-1.22-.6l.15-.3c.41.21.8.41,1.22.6l-.15.31h0ZM151.76,208.23l-.16-.3c.39-.21.79-.42,1.18-.64l.16.3c-.39.22-.79.43-1.19.65h.01ZM103.39,207.91c-.39-.22-.8-.43-1.19-.66l.16-.3c.39.23.79.45,1.18.67l-.16.3h.01ZM154.13,206.91l-.18-.28c.38-.23.77-.46,1.15-.71l.18.28c-.38.25-.78.48-1.15.71ZM101.03,206.54c-.39-.25-.77-.48-1.15-.73l.19-.28c.38.24.76.49,1.14.72l-.18.29h0ZM156.43,205.46l-.19-.29c.38-.24.75-.5,1.12-.76l.19.27c-.37.26-.75.52-1.11.78ZM98.75,205.05c-.38-.26-.75-.52-1.11-.79l.2-.27c.37.27.73.53,1.1.79l-.19.29h0ZM158.64,203.88l-.21-.27c.37-.27.72-.55,1.07-.83l.22.27c-.35.28-.72.56-1.07.83h-.01ZM96.56,203.45c-.37-.27-.72-.56-1.07-.84l.22-.25c.35.28.71.57,1.06.84l-.2.27h0ZM160.77,202.18l-.22-.26c.34-.29.69-.59,1.03-.88l.22.25c-.34.3-.68.6-1.03.89ZM94.44,201.72c-.34-.3-.68-.6-1.02-.89l.23-.26c.34.3.68.59,1.02.89l-.22.26h-.01ZM162.82,200.39l-.23-.25c.32-.31.65-.62.98-.94l.23.25c-.32.31-.65.62-.99.94h.02ZM92.42,199.9c-.33-.31-.65-.62-.98-.95l.24-.24c.31.32.64.64.96.95l-.23.24ZM164.76,198.48l-.25-.23c.31-.32.62-.65.92-.99l.25.23c-.31.34-.62.66-.94.99h.01ZM90.51,197.96c-.31-.33-.62-.67-.92-1l.26-.23c.3.34.61.67.91.99l-.24.23v.02ZM166.6,196.48l-.26-.22c.3-.34.58-.68.88-1.03l.26.22c-.29.35-.59.69-.88,1.05h0ZM88.69,195.93c-.3-.34-.58-.69-.87-1.05l.27-.22c.28.35.57.71.85,1.05l-.26.22ZM168.34,194.37l-.27-.2c.27-.36.56-.72.81-1.07l.27.21c-.27.37-.55.73-.83,1.09v-.02ZM86.99,193.81c-.27-.37-.54-.72-.81-1.1l.27-.2c.26.37.53.73.8,1.08l-.27.21h.01ZM169.95,192.19l-.27-.19c.25-.37.51-.75.76-1.12l.28.19c-.26.38-.5.76-.77,1.13h0ZM85.4,191.6c-.26-.38-.5-.75-.75-1.14l.28-.18c.24.38.49.76.75,1.13l-.29.19ZM171.46,189.9l-.29-.18c.25-.38.48-.78.71-1.16l.3.18c-.23.39-.46.79-.71,1.17h-.01ZM83.94,189.32c-.23-.39-.46-.78-.69-1.17l.3-.16c.22.39.45.77.68,1.16l-.29.18h0ZM172.84,187.55l-.3-.16c.21-.39.43-.79.64-1.2l.3.16c-.21.41-.42.8-.64,1.21h0ZM82.58,186.96c-.22-.39-.42-.8-.62-1.21l.3-.15c.2.41.41.8.62,1.19l-.3.16ZM174.09,185.14l-.3-.15c.2-.41.39-.82.57-1.23l.31.14c-.19.42-.38.83-.58,1.23ZM81.37,184.52c-.19-.41-.38-.83-.56-1.23l.31-.14c.18.41.37.83.56,1.23l-.31.15ZM175.22,182.64l-.31-.14c.18-.42.34-.84.5-1.26l.31.12c-.16.42-.34.84-.52,1.26v.02ZM80.29,182.04c-.18-.42-.34-.84-.5-1.26l.31-.12c.16.42.33.84.49,1.26l-.31.12h.01ZM176.21,180.09l-.33-.11c.15-.42.3-.86.45-1.29l.33.11c-.14.43-.29.87-.45,1.29ZM79.33,179.48c-.15-.43-.28-.86-.42-1.29l.33-.11c.14.43.27.86.42,1.29l-.33.11ZM177.06,177.5l-.32-.1c.14-.43.26-.87.37-1.3l.32.1c-.12.43-.24.87-.38,1.3h.01ZM78.51,176.87c-.12-.43-.24-.87-.35-1.32l.33-.08c.11.43.23.87.35,1.3l-.33.09ZM177.77,174.87l-.32-.08c.11-.43.2-.88.3-1.32l.33.07c-.09.45-.19.89-.3,1.33ZM77.83,174.24c-.1-.45-.19-.89-.29-1.33l.34-.07c.1.45.19.88.29,1.32l-.33.08h-.01ZM178.35,172.2l-.34-.07c.08-.45.16-.88.23-1.33l.34.05c-.07.45-.15.9-.23,1.35ZM77.29,171.56c-.08-.45-.15-.89-.22-1.35l.34-.05c.07.45.14.9.22,1.33l-.34.05h0ZM178.77,169.51l-.34-.04c.05-.45.11-.9.16-1.35l.34.04c-.06.45-.1.91-.16,1.36h0ZM76.9,168.87c-.05-.45-.11-.89-.15-1.36l.34-.02c.04.45.1.89.14,1.34l-.34.04h.01ZM179.05,166.8l-.34-.03c.04-.45.07-.9.08-1.35h.34c-.02.48-.05.92-.09,1.37h.01ZM76.65,166.16c-.03-.45-.05-.91-.07-1.36h.34c.01.43.04.88.07,1.35l-.34.02h0ZM179.19,164.08h-.34c0-.46.01-.91.01-1.36h.34c0,.46,0,.91-.02,1.36ZM76.54,163.44v-.72c0-.22,0-.43,0-.64h.34v.64c0,.25,0,.48,0,.72h-.34ZM178.88,162.65c0-.45,0-.91-.01-1.36h.34c0,.45.01.9.01,1.36h-.34ZM76.91,160.72h-.34c.01-.46.04-.92.07-1.37l.34.02c-.03.45-.05.9-.07,1.36h0ZM178.8,159.94c-.02-.45-.05-.9-.09-1.35l.34-.03c.04.45.07.91.09,1.36h-.34s0,.01,0,.01ZM77.09,158.02l-.34-.03c.04-.45.1-.91.14-1.36l.34.04c-.05.45-.09.9-.14,1.35ZM178.58,157.25c-.06-.45-.1-.89-.16-1.35l.34-.04c.05.45.11.9.16,1.36l-.34.04h0ZM77.4,155.34l-.34-.05c.07-.45.14-.89.22-1.35l.34.06c-.08.45-.15.88-.22,1.33h0ZM178.23,154.56c-.07-.45-.15-.89-.23-1.33l.34-.07c.08.45.16.9.23,1.35l-.34.05ZM77.86,152.67l-.34-.07c.1-.45.19-.89.29-1.33l.33.07c-.1.43-.19.89-.29,1.33h.01ZM177.73,151.91c-.09-.45-.19-.88-.3-1.32l.33-.08c.11.43.2.89.3,1.33l-.33.07ZM78.46,150.03l-.33-.08c.11-.43.23-.89.35-1.32l.33.09c-.12.43-.24.87-.35,1.3ZM177.09,149.27c-.12-.43-.25-.87-.37-1.3l.33-.09c.14.43.26.87.38,1.3l-.32.09h-.01ZM79.2,147.42l-.33-.09c.14-.43.29-.87.42-1.3l.33.11c-.15.42-.28.85-.42,1.29ZM176.31,146.68c-.14-.43-.28-.85-.45-1.28l.32-.11c.15.42.3.86.45,1.29l-.33.11v-.02ZM80.09,144.86l-.31-.12c.16-.42.33-.86.49-1.28l.31.12c-.16.42-.34.84-.49,1.26h0ZM175.39,144.14c-.16-.42-.34-.84-.5-1.25l.31-.14c.18.42.34.84.52,1.26l-.31.12h-.02ZM81.1,142.35l-.31-.14c.18-.42.37-.83.56-1.25l.31.15c-.19.41-.38.82-.56,1.24ZM174.35,141.65c-.19-.41-.38-.82-.57-1.22l.3-.15c.21.41.39.82.59,1.24l-.32.14ZM82.24,139.89l-.3-.15c.2-.41.41-.82.62-1.21l.3.16c-.22.39-.42.8-.62,1.21v-.02ZM173.17,139.22c-.21-.39-.42-.8-.64-1.2l.3-.16c.22.39.43.8.64,1.2l-.3.16ZM83.52,137.5l-.3-.16c.23-.39.46-.79.69-1.18l.29.18c-.23.38-.46.77-.68,1.17ZM171.86,136.86c-.23-.39-.46-.77-.71-1.15l.29-.18c.24.38.47.77.71,1.17l-.3.18h.01ZM84.93,135.17l-.29-.18c.24-.38.5-.76.75-1.14l.28.19c-.26.37-.5.75-.75,1.13ZM170.43,134.56c-.25-.38-.5-.75-.76-1.11l.29-.19c.26.37.51.75.76,1.13l-.28.19h0ZM86.45,132.93l-.27-.2c.27-.37.53-.73.81-1.1l.27.2c-.27.35-.54.72-.8,1.09h-.01ZM168.88,132.35c-.27-.37-.54-.72-.81-1.07l.27-.2c.29.35.56.72.83,1.09l-.27.2h-.02ZM88.09,130.77l-.27-.22c.29-.35.57-.71.87-1.05l.26.22c-.29.34-.58.69-.85,1.05ZM167.21,130.21c-.29-.35-.59-.69-.87-1.03l.26-.22c.3.34.59.69.88,1.03l-.26.22h-.01ZM89.83,128.71l-.26-.23c.3-.34.61-.68.92-1.01l.24.23c-.31.33-.61.67-.91.99h0ZM165.45,128.18c-.3-.33-.61-.67-.92-.98l.24-.23c.31.33.62.65.94.99l-.24.23h-.01ZM91.69,126.74l-.24-.24c.33-.33.64-.64.98-.95l.23.24c-.33.31-.65.63-.96.95ZM163.56,126.23c-.33-.31-.65-.62-.98-.94l.23-.24c.34.31.66.62.99.94l-.23.24h-.01ZM93.64,124.88l-.23-.26c.34-.3.68-.61,1.02-.9l.22.26c-.34.3-.68.6-1.02.9h.01ZM161.58,124.4c-.34-.3-.68-.6-1.03-.88l.22-.26c.35.29.69.58,1.03.88l-.22.26ZM95.69,123.11l-.22-.26c.35-.29.71-.57,1.07-.84l.2.27c-.35.27-.71.56-1.06.84h0ZM159.51,122.66c-.35-.29-.71-.56-1.07-.83l.21-.27c.37.27.72.56,1.07.83l-.22.27h.02ZM97.83,121.45l-.2-.27c.37-.27.73-.53,1.11-.79l.19.29c-.37.26-.73.52-1.1.79h0ZM157.33,121.03c-.37-.26-.73-.52-1.11-.77l.19-.29c.38.26.75.52,1.13.77l-.19.27h-.02ZM100.06,119.92l-.19-.29c.38-.24.76-.49,1.15-.73l.18.29c-.38.23-.76.48-1.14.72h0ZM155.1,119.52c-.38-.24-.76-.48-1.16-.71l.18-.29c.39.23.78.48,1.17.72l-.18.29h-.01ZM102.35,118.5l-.16-.3c.39-.23.79-.45,1.18-.67l.16.3c-.39.22-.79.43-1.18.67ZM152.76,118.14c-.39-.22-.79-.43-1.19-.65l.16-.3c.41.22.8.43,1.19.65l-.16.3ZM104.72,117.21l-.15-.3c.41-.2.81-.41,1.22-.6l.15.31c-.41.19-.81.39-1.21.6h-.01ZM150.36,116.87c-.41-.2-.81-.39-1.22-.58l.14-.31c.41.19.83.38,1.24.58l-.15.3h0ZM107.15,116.05l-.14-.31c.41-.19.83-.37,1.25-.53l.14.31c-.42.18-.83.35-1.23.53h-.01ZM147.9,115.75c-.42-.18-.82-.35-1.25-.52l.12-.31c.42.16.84.34,1.26.52l-.14.31ZM109.65,115.01l-.12-.31c.42-.16.85-.33,1.28-.48l.11.33c-.42.15-.85.3-1.28.46h.01ZM145.38,114.74c-.42-.15-.85-.3-1.28-.45l.11-.33c.43.15.87.3,1.29.45l-.12.31h0ZM112.2,114.12l-.11-.33c.43-.14.87-.27,1.3-.41l.09.33c-.43.12-.87.26-1.29.39h0ZM142.81,113.87c-.43-.14-.87-.26-1.3-.38l.09-.33c.43.12.87.24,1.3.38l-.09.33ZM114.79,113.36l-.08-.33c.43-.11.88-.23,1.32-.33l.08.33c-.43.11-.88.22-1.32.33ZM140.2,113.15c-.43-.11-.87-.22-1.32-.31l.07-.33c.45.09.88.2,1.33.31l-.08.33ZM117.42,112.73l-.07-.34c.45-.09.88-.18,1.33-.26l.05.34c-.45.08-.88.16-1.33.26h.01ZM137.57,112.57c-.45-.08-.88-.16-1.33-.23l.05-.34c.45.07.89.15,1.34.24l-.07.34h0ZM120.08,112.24l-.05-.34c.45-.07.9-.14,1.34-.19l.04.34c-.45.05-.9.12-1.34.19h.01ZM134.9,112.13c-.45-.07-.89-.12-1.34-.16l.04-.34c.45.05.89.11,1.35.16l-.04.34h-.01ZM122.77,111.9l-.03-.34c.45-.04.9-.08,1.36-.12l.03.34c-.45.03-.9.07-1.34.12h-.01ZM132.21,111.83c-.45-.04-.9-.07-1.34-.09v-.34c.47.03.92.05,1.38.09l-.03.34h-.01ZM125.45,111.71v-.34c.43-.03.9-.04,1.34-.04v.34c-.45,0-.9.03-1.34.04ZM129.51,111.69c-.45-.01-.9-.03-1.36-.03v-.34c.46,0,.91,0,1.36.03v.34Z"/>
    </clipPath>
  </defs>
  <g class="cls-6">
    <g class="cls-5">
      <path class="cls-4" d="M124.33,229.74c-35.5,0-64.39-28.88-64.39-64.39,0-35.51,28.88-64.39,64.39-64.39,35.51,0,64.39,28.88,64.39,64.39,0,35.51-28.88,64.39-64.39,64.39ZM124.33,108.16c-31.53,0-57.2,25.65-57.2,57.2,0,31.54,25.65,57.19,57.2,57.19,31.54,0,57.19-25.65,57.19-57.19,0-31.54-25.65-57.2-57.19-57.2Z"/>
      <g>
        <path class="cls-4" d="M128.23,214.12v-.34c.45,0,.9,0,1.34-.02v.34c-.45.01-.9.02-1.34.02ZM126.88,214.11c-.45,0-.91-.03-1.36-.04v-.34c.46.03.91.04,1.37.04v.34h-.01ZM130.96,214.03v-.34c.43-.02.88-.05,1.33-.09l.03.34c-.45.04-.91.07-1.36.09ZM124.16,213.99c-.45-.03-.91-.07-1.36-.12l.03-.34c.45.04.9.08,1.34.12l-.03.34h.01ZM133.67,213.8l-.04-.34c.45-.05.9-.11,1.35-.16l.04.34c-.45.07-.89.12-1.35.16ZM121.45,213.73c-.45-.05-.9-.12-1.34-.19l.05-.34c.45.07.9.12,1.34.19l-.04.34h-.01ZM136.36,213.43l-.05-.34c.45-.07.88-.15,1.33-.24l.07.34c-.45.08-.89.16-1.35.24ZM118.76,213.32c-.45-.08-.9-.16-1.34-.26l.07-.34c.45.09.88.18,1.33.26l-.05.34ZM139.03,212.9l-.07-.32c.45-.1.88-.21,1.32-.32l.08.33c-.43.11-.88.22-1.33.31ZM116.09,212.77c-.45-.11-.88-.22-1.32-.33l.08-.32c.43.11.87.22,1.32.32l-.08.33ZM141.68,212.25l-.09-.32c.43-.12.87-.25,1.3-.38l.1.32c-.43.14-.87.26-1.3.38ZM113.46,212.07c-.43-.12-.87-.26-1.3-.39l.11-.33c.43.14.85.27,1.29.4l-.1.32ZM144.27,211.45l-.11-.33c.42-.15.86-.3,1.28-.45l.12.31c-.42.16-.85.31-1.29.45v.02ZM110.87,211.23c-.43-.15-.85-.32-1.28-.48l.12-.31c.42.16.84.31,1.28.46l-.11.33h-.01ZM146.83,210.51l-.12-.31c.42-.16.83-.34,1.25-.52l.14.31c-.42.18-.83.35-1.25.52h-.01ZM108.32,210.26c-.42-.18-.84-.35-1.25-.54l.14-.31c.41.19.83.36,1.25.53l-.14.31h0ZM149.32,209.44l-.14-.31c.41-.19.82-.38,1.22-.58l.15.3c-.41.2-.81.39-1.22.58h-.02ZM105.82,209.15c-.41-.19-.81-.39-1.22-.6l.15-.3c.41.21.8.41,1.22.6l-.15.31h0ZM151.76,208.23l-.16-.3c.39-.21.79-.42,1.18-.64l.16.3c-.39.22-.79.43-1.19.65h.01ZM103.39,207.91c-.39-.22-.8-.43-1.19-.66l.16-.3c.39.23.79.45,1.18.67l-.16.3h.01ZM154.13,206.91l-.18-.28c.38-.23.77-.46,1.15-.71l.18.28c-.38.25-.78.48-1.15.71ZM101.03,206.54c-.39-.25-.77-.48-1.15-.73l.19-.28c.38.24.76.49,1.14.72l-.18.29h0ZM156.43,205.46l-.19-.29c.38-.24.75-.5,1.12-.76l.19.27c-.37.26-.75.52-1.11.78ZM98.75,205.05c-.38-.26-.75-.52-1.11-.79l.2-.27c.37.27.73.53,1.1.79l-.19.29h0ZM158.64,203.88l-.21-.27c.37-.27.72-.55,1.07-.83l.22.27c-.35.28-.72.56-1.07.83h-.01ZM96.56,203.45c-.37-.27-.72-.56-1.07-.84l.22-.25c.35.28.71.57,1.06.84l-.2.27h0ZM160.77,202.18l-.22-.26c.34-.29.69-.59,1.03-.88l.22.25c-.34.3-.68.6-1.03.89ZM94.44,201.72c-.34-.3-.68-.6-1.02-.89l.23-.26c.34.3.68.59,1.02.89l-.22.26h-.01ZM162.82,200.39l-.23-.25c.32-.31.65-.62.98-.94l.23.25c-.32.31-.65.62-.99.94h.02ZM92.42,199.9c-.33-.31-.65-.62-.98-.95l.24-.24c.31.32.64.64.96.95l-.23.24ZM164.76,198.48l-.25-.23c.31-.32.62-.65.92-.99l.25.23c-.31.34-.62.66-.94.99h.01ZM90.51,197.96c-.31-.33-.62-.67-.92-1l.26-.23c.3.34.61.67.91.99l-.24.23v.02ZM166.6,196.48l-.26-.22c.3-.34.58-.68.88-1.03l.26.22c-.29.35-.59.69-.88,1.05h0ZM88.69,195.93c-.3-.34-.58-.69-.87-1.05l.27-.22c.28.35.57.71.85,1.05l-.26.22ZM168.34,194.37l-.27-.2c.27-.36.56-.72.81-1.07l.27.21c-.27.37-.55.73-.83,1.09v-.02ZM86.99,193.81c-.27-.37-.54-.72-.81-1.1l.27-.2c.26.37.53.73.8,1.08l-.27.21h.01ZM169.95,192.19l-.27-.19c.25-.37.51-.75.76-1.12l.28.19c-.26.38-.5.76-.77,1.13h0ZM85.4,191.6c-.26-.38-.5-.75-.75-1.14l.28-.18c.24.38.49.76.75,1.13l-.29.19ZM171.46,189.9l-.29-.18c.25-.38.48-.78.71-1.16l.3.18c-.23.39-.46.79-.71,1.17h-.01ZM83.94,189.32c-.23-.39-.46-.78-.69-1.17l.3-.16c.22.39.45.77.68,1.16l-.29.18h0ZM172.84,187.55l-.3-.16c.21-.39.43-.79.64-1.2l.3.16c-.21.41-.42.8-.64,1.21h0ZM82.58,186.96c-.22-.39-.42-.8-.62-1.21l.3-.15c.2.41.41.8.62,1.19l-.3.16ZM174.09,185.14l-.3-.15c.2-.41.39-.82.57-1.23l.31.14c-.19.42-.38.83-.58,1.23ZM81.37,184.52c-.19-.41-.38-.83-.56-1.23l.31-.14c.18.41.37.83.56,1.23l-.31.15ZM175.22,182.64l-.31-.14c.18-.42.34-.84.5-1.26l.31.12c-.16.42-.34.84-.52,1.26v.02ZM80.29,182.04c-.18-.42-.34-.84-.5-1.26l.31-.12c.16.42.33.84.49,1.26l-.31.12h.01ZM176.21,180.09l-.33-.11c.15-.42.3-.86.45-1.29l.33.11c-.14.43-.29.87-.45,1.29ZM79.33,179.48c-.15-.43-.28-.86-.42-1.29l.33-.11c.14.43.27.86.42,1.29l-.33.11ZM177.06,177.5l-.32-.1c.14-.43.26-.87.37-1.3l.32.1c-.12.43-.24.87-.38,1.3h.01ZM78.51,176.87c-.12-.43-.24-.87-.35-1.32l.33-.08c.11.43.23.87.35,1.3l-.33.09ZM177.77,174.87l-.32-.08c.11-.43.2-.88.3-1.32l.33.07c-.09.45-.19.89-.3,1.33ZM77.83,174.24c-.1-.45-.19-.89-.29-1.33l.34-.07c.1.45.19.88.29,1.32l-.33.08h-.01ZM178.35,172.2l-.34-.07c.08-.45.16-.88.23-1.33l.34.05c-.07.45-.15.9-.23,1.35ZM77.29,171.56c-.08-.45-.15-.89-.22-1.35l.34-.05c.07.45.14.9.22,1.33l-.34.05h0ZM178.77,169.51l-.34-.04c.05-.45.11-.9.16-1.35l.34.04c-.06.45-.1.91-.16,1.36h0ZM76.9,168.87c-.05-.45-.11-.89-.15-1.36l.34-.02c.04.45.1.89.14,1.34l-.34.04h.01ZM179.05,166.8l-.34-.03c.04-.45.07-.9.08-1.35h.34c-.02.48-.05.92-.09,1.37h.01ZM76.65,166.16c-.03-.45-.05-.91-.07-1.36h.34c.01.43.04.88.07,1.35l-.34.02h0ZM179.19,164.08h-.34c0-.46.01-.91.01-1.36h.34c0,.46,0,.91-.02,1.36ZM76.54,163.44v-.72c0-.22,0-.43,0-.64h.34v.64c0,.25,0,.48,0,.72h-.34ZM178.88,162.65c0-.45,0-.91-.01-1.36h.34c0,.45.01.9.01,1.36h-.34ZM76.91,160.72h-.34c.01-.46.04-.92.07-1.37l.34.02c-.03.45-.05.9-.07,1.36h0ZM178.8,159.94c-.02-.45-.05-.9-.09-1.35l.34-.03c.04.45.07.91.09,1.36h-.34s0,.01,0,.01ZM77.09,158.02l-.34-.03c.04-.45.1-.91.14-1.36l.34.04c-.05.45-.09.9-.14,1.35ZM178.58,157.25c-.06-.45-.1-.89-.16-1.35l.34-.04c.05.45.11.9.16,1.36l-.34.04h0ZM77.4,155.34l-.34-.05c.07-.45.14-.89.22-1.35l.34.06c-.08.45-.15.88-.22,1.33h0ZM178.23,154.56c-.07-.45-.15-.89-.23-1.33l.34-.07c.08.45.16.9.23,1.35l-.34.05ZM77.86,152.67l-.34-.07c.1-.45.19-.89.29-1.33l.33.07c-.1.43-.19.89-.29,1.33h.01ZM177.73,151.91c-.09-.45-.19-.88-.3-1.32l.33-.08c.11.43.2.89.3,1.33l-.33.07ZM78.46,150.03l-.33-.08c.11-.43.23-.89.35-1.32l.33.09c-.12.43-.24.87-.35,1.3ZM177.09,149.27c-.12-.43-.25-.87-.37-1.3l.33-.09c.14.43.26.87.38,1.3l-.32.09h-.01ZM79.2,147.42l-.33-.09c.14-.43.29-.87.42-1.3l.33.11c-.15.42-.28.85-.42,1.29ZM176.31,146.68c-.14-.43-.28-.85-.45-1.28l.32-.11c.15.42.3.86.45,1.29l-.33.11v-.02ZM80.09,144.86l-.31-.12c.16-.42.33-.86.49-1.28l.31.12c-.16.42-.34.84-.49,1.26h0ZM175.39,144.14c-.16-.42-.34-.84-.5-1.25l.31-.14c.18.42.34.84.52,1.26l-.31.12h-.02ZM81.1,142.35l-.31-.14c.18-.42.37-.83.56-1.25l.31.15c-.19.41-.38.82-.56,1.24ZM174.35,141.65c-.19-.41-.38-.82-.57-1.22l.3-.15c.21.41.39.82.59,1.24l-.32.14ZM82.24,139.89l-.3-.15c.2-.41.41-.82.62-1.21l.3.16c-.22.39-.42.8-.62,1.21v-.02ZM173.17,139.22c-.21-.39-.42-.8-.64-1.2l.3-.16c.22.39.43.8.64,1.2l-.3.16ZM83.52,137.5l-.3-.16c.23-.39.46-.79.69-1.18l.29.18c-.23.38-.46.77-.68,1.17ZM171.86,136.86c-.23-.39-.46-.77-.71-1.15l.29-.18c.24.38.47.77.71,1.17l-.3.18h.01ZM84.93,135.17l-.29-.18c.24-.38.5-.76.75-1.14l.28.19c-.26.37-.5.75-.75,1.13ZM170.43,134.56c-.25-.38-.5-.75-.76-1.11l.29-.19c.26.37.51.75.76,1.13l-.28.19h0ZM86.45,132.93l-.27-.2c.27-.37.53-.73.81-1.1l.27.2c-.27.35-.54.72-.8,1.09h-.01ZM168.88,132.35c-.27-.37-.54-.72-.81-1.07l.27-.2c.29.35.56.72.83,1.09l-.27.2h-.02ZM88.09,130.77l-.27-.22c.29-.35.57-.71.87-1.05l.26.22c-.29.34-.58.69-.85,1.05ZM167.21,130.21c-.29-.35-.59-.69-.87-1.03l.26-.22c.3.34.59.69.88,1.03l-.26.22h-.01ZM89.83,128.71l-.26-.23c.3-.34.61-.68.92-1.01l.24.23c-.31.33-.61.67-.91.99h0ZM165.45,128.18c-.3-.33-.61-.67-.92-.98l.24-.23c.31.33.62.65.94.99l-.24.23h-.01ZM91.69,126.74l-.24-.24c.33-.33.64-.64.98-.95l.23.24c-.33.31-.65.63-.96.95ZM163.56,126.23c-.33-.31-.65-.62-.98-.94l.23-.24c.34.31.66.62.99.94l-.23.24h-.01ZM93.64,124.88l-.23-.26c.34-.3.68-.61,1.02-.9l.22.26c-.34.3-.68.6-1.02.9h.01ZM161.58,124.4c-.34-.3-.68-.6-1.03-.88l.22-.26c.35.29.69.58,1.03.88l-.22.26ZM95.69,123.11l-.22-.26c.35-.29.71-.57,1.07-.84l.2.27c-.35.27-.71.56-1.06.84h0ZM159.51,122.66c-.35-.29-.71-.56-1.07-.83l.21-.27c.37.27.72.56,1.07.83l-.22.27h.02ZM97.83,121.45l-.2-.27c.37-.27.73-.53,1.11-.79l.19.29c-.37.26-.73.52-1.1.79h0ZM157.33,121.03c-.37-.26-.73-.52-1.11-.77l.19-.29c.38.26.75.52,1.13.77l-.19.27h-.02ZM100.06,119.92l-.19-.29c.38-.24.76-.49,1.15-.73l.18.29c-.38.23-.76.48-1.14.72h0ZM155.1,119.52c-.38-.24-.76-.48-1.16-.71l.18-.29c.39.23.78.48,1.17.72l-.18.29h-.01ZM102.35,118.5l-.16-.3c.39-.23.79-.45,1.18-.67l.16.3c-.39.22-.79.43-1.18.67ZM152.76,118.14c-.39-.22-.79-.43-1.19-.65l.16-.3c.41.22.8.43,1.19.65l-.16.3ZM104.72,117.21l-.15-.3c.41-.2.81-.41,1.22-.6l.15.31c-.41.19-.81.39-1.21.6h-.01ZM150.36,116.87c-.41-.2-.81-.39-1.22-.58l.14-.31c.41.19.83.38,1.24.58l-.15.3h0ZM107.15,116.05l-.14-.31c.41-.19.83-.37,1.25-.53l.14.31c-.42.18-.83.35-1.23.53h-.01ZM147.9,115.75c-.42-.18-.82-.35-1.25-.52l.12-.31c.42.16.84.34,1.26.52l-.14.31ZM109.65,115.01l-.12-.31c.42-.16.85-.33,1.28-.48l.11.33c-.42.15-.85.3-1.28.46h.01ZM145.38,114.74c-.42-.15-.85-.3-1.28-.45l.11-.33c.43.15.87.3,1.29.45l-.12.31h0ZM112.2,114.12l-.11-.33c.43-.14.87-.27,1.3-.41l.09.33c-.43.12-.87.26-1.29.39h0ZM142.81,113.87c-.43-.14-.87-.26-1.3-.38l.09-.33c.43.12.87.24,1.3.38l-.09.33ZM114.79,113.36l-.08-.33c.43-.11.88-.23,1.32-.33l.08.33c-.43.11-.88.22-1.32.33ZM140.2,113.15c-.43-.11-.87-.22-1.32-.31l.07-.33c.45.09.88.2,1.33.31l-.08.33ZM117.42,112.73l-.07-.34c.45-.09.88-.18,1.33-.26l.05.34c-.45.08-.88.16-1.33.26h.01ZM137.57,112.57c-.45-.08-.88-.16-1.33-.23l.05-.34c.45.07.89.15,1.34.24l-.07.34h0ZM120.08,112.24l-.05-.34c.45-.07.9-.14,1.34-.19l.04.34c-.45.05-.9.12-1.34.19h.01ZM134.9,112.13c-.45-.07-.89-.12-1.34-.16l.04-.34c.45.05.89.11,1.35.16l-.04.34h-.01ZM122.77,111.9l-.03-.34c.45-.04.9-.08,1.36-.12l.03.34c-.45.03-.9.07-1.34.12h-.01ZM132.21,111.83c-.45-.04-.9-.07-1.34-.09v-.34c.47.03.92.05,1.38.09l-.03.34h-.01ZM125.45,111.71v-.34c.43-.03.9-.04,1.34-.04v.34c-.45,0-.9.03-1.34.04ZM129.51,111.69c-.45-.01-.9-.03-1.36-.03v-.34c.46,0,.91,0,1.36.03v.34Z"/>
        <g class="cls-3">
          <path class="cls-4" d="M129.51,111.32h-1.36s1.36,0,1.36,0Z"/>
          <rect class="cls-4" x="128.15" y="111.32" width="1.36" height=".37"/>
          <rect class="cls-4" x="125.45" y="111.33" width="1.34" height=".38"/>
          <rect class="cls-4" x="125.45" y="111.71" width="1.34" height="0"/>
          <rect class="cls-4" x="130.87" y="111.4" width="1.38" height=".31"/>
          <rect class="cls-4" x="130.87" y="111.71" width="1.38" height=".12"/>
          <rect class="cls-4" x="122.74" y="111.44" width="1.38" height=".27"/>
          <rect class="cls-4" x="122.74" y="111.71" width="1.38" height=".19"/>
          <rect class="cls-4" x="133.55" y="111.63" width="1.39" height=".08"/>
          <rect class="cls-4" x="133.55" y="111.71" width="1.39" height=".39"/>
          <rect class="cls-4" x="133.55" y="112.1" width="1.39" height=".03"/>
          <rect class="cls-4" x="120.03" y="111.71" width="1.38" height=".39"/>
          <rect class="cls-4" x="120.03" y="112.1" width="1.38" height=".14"/>
          <rect class="cls-4" x="136.24" y="112" width="1.39" height=".11"/>
          <rect class="cls-4" x="136.24" y="112.1" width="1.39" height=".39"/>
          <rect class="cls-4" x="136.24" y="112.5" width="1.39" height=".09"/>
          <rect class="cls-4" x="117.35" y="112.13" width="1.38" height=".36"/>
          <rect class="cls-4" x="117.35" y="112.5" width="1.38" height=".23"/>
          <rect class="cls-4" x="138.89" y="112.51" width="1.39" height=".37"/>
          <rect class="cls-4" x="138.89" y="112.89" width="1.39" height=".26"/>
          <rect class="cls-4" x="114.71" y="112.7" width="1.4" height=".18"/>
          <rect class="cls-4" x="114.71" y="112.89" width="1.4" height=".39"/>
          <rect class="cls-4" x="114.71" y="113.28" width="1.4" height=".07"/>
          <rect class="cls-4" x="141.5" y="113.17" width="1.4" height=".12"/>
          <rect class="cls-4" x="141.5" y="113.28" width="1.4" height=".39"/>
          <rect class="cls-4" x="141.5" y="113.67" width="1.4" height=".2"/>
          <rect class="cls-4" x="112.09" y="113.38" width="1.4" height=".29"/>
          <rect class="cls-4" x="112.09" y="113.67" width="1.4" height=".39"/>
          <rect class="cls-4" x="112.09" y="114.07" width="1.4" height=".05"/>
          <rect class="cls-4" x="144.11" y="113.97" width="1.4" height=".1"/>
          <rect class="cls-4" x="144.11" y="114.07" width="1.4" height=".39"/>
          <rect class="cls-4" x="144.11" y="114.46" width="1.4" height=".28"/>
          <rect class="cls-4" x="109.53" y="114.23" width="1.38" height=".23"/>
          <rect class="cls-4" x="109.53" y="114.46" width="1.38" height=".39"/>
          <rect class="cls-4" x="109.53" y="114.85" width="1.38" height=".16"/>
          <rect class="cls-4" x="146.66" y="114.92" width="1.38" height=".33"/>
          <rect class="cls-4" x="146.66" y="115.24" width="1.38" height=".39"/>
          <rect class="cls-4" x="146.66" y="115.64" width="1.38" height=".11"/>
          <rect class="cls-4" x="107.02" y="115.2" width="1.38" height=".04"/>
          <rect class="cls-4" x="107.02" y="115.24" width="1.38" height=".39"/>
          <rect class="cls-4" x="107.02" y="115.64" width="1.38" height=".39"/>
          <rect class="cls-4" x="107.02" y="116.03" width="1.38" height=".02"/>
          <rect class="cls-4" x="149.14" y="115.98" width="1.37" height=".05"/>
          <rect class="cls-4" x="149.14" y="116.03" width="1.37" height=".39"/>
          <rect class="cls-4" x="149.14" y="116.42" width="1.37" height=".39"/>
          <rect class="cls-4" x="149.14" y="116.81" width="1.37" height=".06"/>
          <rect class="cls-4" x="104.57" y="116.32" width="1.37" height=".1"/>
          <rect class="cls-4" x="104.57" y="116.42" width="1.37" height=".39"/>
          <rect class="cls-4" x="104.57" y="116.81" width="1.37" height=".39"/>
          <rect class="cls-4" x="104.57" y="117.21" width="1.37" height=".02"/>
          <rect class="cls-4" x="151.57" y="117.19" width="1.35" height=".02"/>
          <rect class="cls-4" x="151.57" y="117.21" width="1.35" height=".39"/>
          <rect class="cls-4" x="151.57" y="117.6" width="1.35" height=".39"/>
          <rect class="cls-4" x="151.57" y="117.99" width="1.35" height=".15"/>
          <rect class="cls-4" x="102.19" y="117.54" width="1.34" height=".06"/>
          <rect class="cls-4" x="102.19" y="117.6" width="1.34" height=".39"/>
          <rect class="cls-4" x="102.19" y="117.99" width="1.34" height=".39"/>
          <rect class="cls-4" x="102.19" y="118.38" width="1.34" height=".12"/>
          <rect class="cls-4" x="153.94" y="118.53" width="1.35" height=".25"/>
          <rect class="cls-4" x="153.94" y="118.78" width="1.35" height=".39"/>
          <rect class="cls-4" x="153.94" y="119.17" width="1.35" height=".37"/>
          <rect class="cls-4" x="99.87" y="118.9" width="1.33" height=".27"/>
          <rect class="cls-4" x="99.87" y="119.17" width="1.33" height=".39"/>
          <rect class="cls-4" x="99.87" y="119.56" width="1.33" height=".36"/>
          <rect class="cls-4" x="156.22" y="119.97" width="1.32" height=".38"/>
          <rect class="cls-4" x="156.22" y="120.35" width="1.32" height=".39"/>
          <rect class="cls-4" x="156.22" y="120.74" width="1.32" height=".29"/>
          <rect class="cls-4" x="97.63" y="120.39" width="1.3" height=".35"/>
          <rect class="cls-4" x="97.63" y="120.74" width="1.3" height=".39"/>
          <rect class="cls-4" x="97.63" y="121.13" width="1.3" height=".33"/>
          <rect class="cls-4" x="158.43" y="121.56" width="1.28" height=".36"/>
          <rect class="cls-4" x="158.43" y="121.92" width="1.28" height=".39"/>
          <rect class="cls-4" x="158.43" y="122.31" width="1.28" height=".35"/>
          <rect class="cls-4" x="95.47" y="122.01" width="1.28" height=".3"/>
          <rect class="cls-4" x="95.47" y="122.31" width="1.28" height=".39"/>
          <rect class="cls-4" x="95.47" y="122.7" width="1.28" height=".39"/>
          <rect class="cls-4" x="95.47" y="123.09" width="1.28" height=".03"/>
          <rect class="cls-4" x="160.55" y="123.26" width="1.25" height=".23"/>
          <rect class="cls-4" x="160.55" y="123.49" width="1.25" height=".39"/>
          <rect class="cls-4" x="160.55" y="123.88" width="1.25" height=".39"/>
          <rect class="cls-4" x="160.55" y="124.27" width="1.25" height=".13"/>
          <rect class="cls-4" x="93.41" y="123.72" width="1.23" height=".16"/>
          <rect class="cls-4" x="93.41" y="123.88" width="1.23" height=".39"/>
          <rect class="cls-4" x="93.41" y="124.27" width="1.23" height=".39"/>
          <rect class="cls-4" x="93.41" y="124.66" width="1.23" height=".21"/>
          <rect class="cls-4" x="162.59" y="125.05" width="1.22" height="0"/>
          <rect class="cls-4" x="162.59" y="125.06" width="1.22" height=".39"/>
          <rect class="cls-4" x="162.59" y="125.45" width="1.22" height=".39"/>
          <rect class="cls-4" x="162.59" y="125.84" width="1.22" height=".39"/>
          <rect class="cls-4" x="91.44" y="125.54" width="1.21" height=".3"/>
          <rect class="cls-4" x="91.44" y="125.84" width="1.21" height=".39"/>
          <rect class="cls-4" x="91.44" y="126.23" width="1.21" height=".39"/>
          <rect class="cls-4" x="91.44" y="126.63" width="1.21" height=".11"/>
          <rect class="cls-4" x="164.53" y="126.97" width="1.18" height=".05"/>
          <rect class="cls-4" x="164.53" y="127.02" width="1.18" height=".39"/>
          <rect class="cls-4" x="164.53" y="127.41" width="1.18" height=".39"/>
          <rect class="cls-4" x="164.53" y="127.8" width="1.18" height=".39"/>
          <rect class="cls-4" x="89.57" y="127.47" width="1.17" height=".33"/>
          <rect class="cls-4" x="89.57" y="127.8" width="1.17" height=".39"/>
          <rect class="cls-4" x="89.57" y="128.2" width="1.17" height=".39"/>
          <rect class="cls-4" x="89.57" y="128.59" width="1.17" height=".12"/>
          <rect class="cls-4" x="166.34" y="128.96" width="1.14" height=".02"/>
          <rect class="cls-4" x="166.34" y="128.98" width="1.14" height=".39"/>
          <rect class="cls-4" x="166.34" y="129.37" width="1.14" height=".39"/>
          <rect class="cls-4" x="166.34" y="129.77" width="1.14" height=".39"/>
          <rect class="cls-4" x="166.34" y="130.16" width="1.14" height=".05"/>
          <rect class="cls-4" x="87.82" y="129.51" width="1.13" height=".26"/>
          <rect class="cls-4" x="87.82" y="129.77" width="1.13" height=".39"/>
          <rect class="cls-4" x="87.82" y="130.16" width="1.13" height=".39"/>
          <rect class="cls-4" x="87.82" y="130.55" width="1.13" height=".22"/>
          <rect class="cls-4" x="168.07" y="131.07" width="1.1" height=".27"/>
          <rect class="cls-4" x="168.07" y="131.34" width="1.1" height=".39"/>
          <rect class="cls-4" x="168.07" y="131.73" width="1.1" height=".39"/>
          <rect class="cls-4" x="168.07" y="132.12" width="1.1" height=".24"/>
          <rect class="cls-4" x="86.18" y="131.63" width="1.09" height=".1"/>
          <rect class="cls-4" x="86.18" y="131.73" width="1.09" height=".39"/>
          <rect class="cls-4" x="86.18" y="132.12" width="1.09" height=".39"/>
          <rect class="cls-4" x="86.18" y="132.51" width="1.09" height=".39"/>
          <rect class="cls-4" x="86.18" y="132.91" width="1.09" height=".02"/>
          <rect class="cls-4" x="169.67" y="133.26" width="1.05" height=".04"/>
          <rect class="cls-4" x="169.67" y="133.3" width="1.05" height=".39"/>
          <rect class="cls-4" x="169.67" y="133.68" width="1.05" height=".39"/>
          <rect class="cls-4" x="169.67" y="134.07" width="1.05" height=".39"/>
          <rect class="cls-4" x="169.67" y="134.46" width="1.05" height=".12"/>
          <rect class="cls-4" x="84.64" y="133.85" width="1.03" height=".22"/>
          <rect class="cls-4" x="84.64" y="134.07" width="1.03" height=".39"/>
          <rect class="cls-4" x="84.64" y="134.46" width="1.03" height=".39"/>
          <rect class="cls-4" x="84.64" y="134.85" width="1.03" height=".33"/>
          <rect class="cls-4" x="171.16" y="135.53" width=".99" height=".1"/>
          <rect class="cls-4" x="171.16" y="135.62" width=".99" height=".39"/>
          <rect class="cls-4" x="171.16" y="136.01" width=".99" height=".39"/>
          <rect class="cls-4" x="171.16" y="136.4" width=".99" height=".39"/>
          <rect class="cls-4" x="171.16" y="136.78" width=".99" height=".09"/>
          <rect class="cls-4" x="83.22" y="136.15" width=".98" height=".25"/>
          <rect class="cls-4" x="83.22" y="136.4" width=".98" height=".39"/>
          <rect class="cls-4" x="83.22" y="136.78" width=".98" height=".39"/>
          <rect class="cls-4" x="83.22" y="137.17" width=".98" height=".32"/>
          <rect class="cls-4" x="172.53" y="137.86" width=".94" height=".08"/>
          <rect class="cls-4" x="172.53" y="137.95" width=".94" height=".39"/>
          <rect class="cls-4" x="172.53" y="138.33" width=".94" height=".39"/>
          <rect class="cls-4" x="172.53" y="138.72" width=".94" height=".39"/>
          <rect class="cls-4" x="172.53" y="139.11" width=".94" height=".11"/>
          <rect class="cls-4" x="81.94" y="138.53" width=".92" height=".19"/>
          <rect class="cls-4" x="81.94" y="138.72" width=".92" height=".39"/>
          <rect class="cls-4" x="81.94" y="139.11" width=".92" height=".39"/>
          <rect class="cls-4" x="81.94" y="139.5" width=".92" height=".39"/>
          <rect class="cls-4" x="81.94" y="139.88" width=".92" height=".02"/>
          <rect class="cls-4" x="173.78" y="140.28" width=".88" height=".38"/>
          <rect class="cls-4" x="173.78" y="140.66" width=".88" height=".39"/>
          <rect class="cls-4" x="173.78" y="141.05" width=".88" height=".39"/>
          <rect class="cls-4" x="173.78" y="141.44" width=".88" height=".22"/>
          <rect class="cls-4" x="80.79" y="140.96" width=".87" height=".09"/>
          <rect class="cls-4" x="80.79" y="141.05" width=".87" height=".39"/>
          <rect class="cls-4" x="80.79" y="141.44" width=".87" height=".39"/>
          <rect class="cls-4" x="80.79" y="141.82" width=".87" height=".39"/>
          <rect class="cls-4" x="80.79" y="142.21" width=".87" height=".14"/>
          <rect class="cls-4" x="174.89" y="142.75" width=".83" height=".23"/>
          <rect class="cls-4" x="174.89" y="142.99" width=".83" height=".39"/>
          <rect class="cls-4" x="174.89" y="143.37" width=".83" height=".39"/>
          <rect class="cls-4" x="174.89" y="143.76" width=".83" height=".38"/>
          <rect class="cls-4" x="79.77" y="143.46" width=".8" height=".3"/>
          <rect class="cls-4" x="79.77" y="143.76" width=".8" height=".39"/>
          <rect class="cls-4" x="79.77" y="144.15" width=".8" height=".39"/>
          <rect class="cls-4" x="79.77" y="144.54" width=".8" height=".32"/>
          <rect class="cls-4" x="175.87" y="145.29" width=".78" height=".02"/>
          <rect class="cls-4" x="175.87" y="145.31" width=".78" height=".39"/>
          <rect class="cls-4" x="175.87" y="145.7" width=".78" height=".39"/>
          <rect class="cls-4" x="175.87" y="146.09" width=".78" height=".39"/>
          <rect class="cls-4" x="175.87" y="146.47" width=".78" height=".22"/>
          <rect class="cls-4" x="78.88" y="146.02" width=".75" height=".06"/>
          <rect class="cls-4" x="78.88" y="146.09" width=".75" height=".39"/>
          <rect class="cls-4" x="78.88" y="146.47" width=".75" height=".39"/>
          <rect class="cls-4" x="78.88" y="146.86" width=".75" height=".39"/>
          <rect class="cls-4" x="78.88" y="147.25" width=".75" height=".17"/>
          <rect class="cls-4" x="176.72" y="147.87" width=".71" height=".15"/>
          <rect class="cls-4" x="176.72" y="148.02" width=".71" height=".39"/>
          <rect class="cls-4" x="176.72" y="148.41" width=".71" height=".39"/>
          <rect class="cls-4" x="176.72" y="148.8" width=".71" height=".39"/>
          <rect class="cls-4" x="176.72" y="149.19" width=".71" height=".09"/>
          <rect class="cls-4" x="78.13" y="148.63" width=".68" height=".17"/>
          <rect class="cls-4" x="78.13" y="148.8" width=".68" height=".39"/>
          <rect class="cls-4" x="78.13" y="149.19" width=".68" height=".39"/>
          <rect class="cls-4" x="78.13" y="149.58" width=".68" height=".39"/>
          <rect class="cls-4" x="78.13" y="149.96" width=".68" height=".07"/>
          <rect class="cls-4" x="177.43" y="150.51" width=".63" height=".23"/>
          <rect class="cls-4" x="177.43" y="150.74" width=".63" height=".39"/>
          <rect class="cls-4" x="177.43" y="151.13" width=".63" height=".39"/>
          <rect class="cls-4" x="177.43" y="151.51" width=".63" height=".39"/>
          <rect class="cls-4" x="177.43" y="151.9" width=".63" height="0"/>
          <rect class="cls-4" x="77.52" y="151.27" width=".61" height=".24"/>
          <rect class="cls-4" x="77.52" y="151.51" width=".61" height=".39"/>
          <rect class="cls-4" x="77.52" y="151.9" width=".61" height=".39"/>
          <rect class="cls-4" x="77.52" y="152.29" width=".61" height=".38"/>
          <rect class="cls-4" x="178" y="153.16" width=".57" height=".29"/>
          <rect class="cls-4" x="178" y="153.45" width=".57" height=".39"/>
          <rect class="cls-4" x="178" y="153.84" width=".57" height=".39"/>
          <rect class="cls-4" x="178" y="154.23" width=".57" height=".33"/>
          <rect class="cls-4" x="77.06" y="153.94" width=".56" height=".28"/>
          <rect class="cls-4" x="77.06" y="154.23" width=".56" height=".39"/>
          <rect class="cls-4" x="77.06" y="154.61" width=".56" height=".39"/>
          <rect class="cls-4" x="77.06" y="155" width=".56" height=".34"/>
          <rect class="cls-4" x="178.42" y="155.86" width=".5" height=".31"/>
          <rect class="cls-4" x="178.42" y="156.16" width=".5" height=".39"/>
          <rect class="cls-4" x="178.42" y="156.55" width=".5" height=".32"/>
          <rect class="cls-4" x="178.42" y="156.88" width=".5" height=".32"/>
          <rect class="cls-4" x="178.42" y="157.2" width=".5" height=".06"/>
          <rect class="cls-4" x="76.75" y="156.63" width=".47" height=".24"/>
          <rect class="cls-4" x="76.75" y="156.88" width=".47" height=".32"/>
          <rect class="cls-4" x="76.75" y="157.2" width=".47" height=".32"/>
          <rect class="cls-4" x="76.75" y="157.53" width=".47" height=".32"/>
          <rect class="cls-4" x="76.75" y="157.85" width=".47" height=".17"/>
          <rect class="cls-4" x="178.7" y="158.56" width=".43" height=".26"/>
          <rect class="cls-4" x="178.7" y="158.83" width=".43" height=".32"/>
          <rect class="cls-4" x="178.7" y="159.15" width=".43" height=".32"/>
          <rect class="cls-4" x="178.7" y="159.47" width=".43" height=".32"/>
          <rect class="cls-4" x="178.7" y="159.8" width=".43" height=".14"/>
          <rect class="cls-4" x="76.57" y="159.35" width=".41" height=".12"/>
          <rect class="cls-4" x="76.57" y="159.47" width=".41" height=".32"/>
          <rect class="cls-4" x="76.57" y="159.8" width=".41" height=".32"/>
          <rect class="cls-4" x="76.57" y="160.12" width=".41" height=".32"/>
          <rect class="cls-4" x="76.57" y="160.45" width=".41" height=".29"/>
          <rect class="cls-4" x="178.87" y="161.29" width=".35" height=".13"/>
          <rect class="cls-4" x="178.87" y="161.42" width=".35" height=".32"/>
          <rect class="cls-4" x="178.87" y="161.75" width=".35" height=".32"/>
          <rect class="cls-4" x="178.87" y="162.07" width=".35" height=".32"/>
          <rect class="cls-4" x="178.87" y="162.4" width=".35" height=".26"/>
          <rect class="cls-4" x="76.54" y="162.08" width=".34" height=".31"/>
          <rect class="cls-4" x="76.54" y="162.4" width=".34" height=".32"/>
          <rect class="cls-4" x="76.54" y="162.72" width=".34" height=".33"/>
          <rect class="cls-4" x="76.54" y="163.05" width=".34" height=".33"/>
          <rect class="cls-4" x="76.54" y="163.38" width=".34" height=".06"/>
          <rect class="cls-4" x="178.85" y="162.72" width=".35" height=".33"/>
          <rect class="cls-4" x="178.85" y="163.05" width=".35" height=".33"/>
          <rect class="cls-4" x="178.85" y="163.38" width=".35" height=".33"/>
          <rect class="cls-4" x="178.85" y="163.71" width=".35" height=".33"/>
          <rect class="cls-4" x="178.85" y="164.04" width=".35" height=".04"/>
          <rect class="cls-4" x="76.59" y="164.8" width=".41" height=".22"/>
          <rect class="cls-4" x="76.59" y="165.02" width=".41" height=".33"/>
          <rect class="cls-4" x="76.59" y="165.35" width=".41" height=".33"/>
          <rect class="cls-4" x="76.59" y="165.68" width=".41" height=".33"/>
          <rect class="cls-4" x="76.59" y="166.01" width=".41" height=".16"/>
          <rect class="cls-4" x="178.72" y="165.42" width=".42" height=".26"/>
          <rect class="cls-4" x="178.72" y="165.68" width=".42" height=".33"/>
          <rect class="cls-4" x="178.72" y="166.01" width=".42" height=".33"/>
          <rect class="cls-4" x="178.72" y="166.34" width=".42" height=".33"/>
          <rect class="cls-4" x="178.72" y="166.67" width=".42" height=".13"/>
          <rect class="cls-4" x="76.75" y="167.49" width=".47" height=".16"/>
          <rect class="cls-4" x="76.75" y="167.66" width=".47" height=".33"/>
          <rect class="cls-4" x="76.75" y="167.98" width=".47" height=".33"/>
          <rect class="cls-4" x="76.75" y="168.31" width=".47" height=".33"/>
          <rect class="cls-4" x="76.75" y="168.64" width=".47" height=".23"/>
          <rect class="cls-4" x="178.43" y="168.13" width=".5" height=".19"/>
          <rect class="cls-4" x="178.43" y="168.31" width=".5" height=".33"/>
          <rect class="cls-4" x="178.43" y="168.64" width=".5" height=".33"/>
          <rect class="cls-4" x="178.43" y="168.97" width=".5" height=".33"/>
          <rect class="cls-4" x="178.43" y="169.3" width=".5" height=".23"/>
          <rect class="cls-4" x="77.07" y="170.17" width=".56" height=".12"/>
          <rect class="cls-4" x="77.07" y="170.29" width=".56" height=".33"/>
          <rect class="cls-4" x="77.07" y="170.62" width=".56" height=".33"/>
          <rect class="cls-4" x="77.07" y="170.95" width=".56" height=".33"/>
          <rect class="cls-4" x="77.07" y="171.27" width=".56" height=".29"/>
          <rect class="cls-4" x="178.01" y="170.81" width=".57" height=".14"/>
          <rect class="cls-4" x="178.01" y="170.95" width=".57" height=".33"/>
          <rect class="cls-4" x="178.01" y="171.27" width=".57" height=".33"/>
          <rect class="cls-4" x="178.01" y="171.6" width=".57" height=".33"/>
          <rect class="cls-4" x="178.01" y="171.93" width=".57" height=".27"/>
          <rect class="cls-4" x="77.55" y="172.84" width=".62" height=".08"/>
          <rect class="cls-4" x="77.55" y="172.92" width=".62" height=".33"/>
          <rect class="cls-4" x="77.55" y="173.25" width=".62" height=".33"/>
          <rect class="cls-4" x="77.55" y="173.58" width=".62" height=".33"/>
          <rect class="cls-4" x="77.55" y="173.91" width=".62" height=".33"/>
          <rect class="cls-4" x="77.55" y="174.23" width=".62" height="0"/>
          <rect class="cls-4" x="177.44" y="173.47" width=".62" height=".11"/>
          <rect class="cls-4" x="177.44" y="173.58" width=".62" height=".33"/>
          <rect class="cls-4" x="177.44" y="173.91" width=".62" height=".33"/>
          <rect class="cls-4" x="177.44" y="174.24" width=".62" height=".33"/>
          <rect class="cls-4" x="177.44" y="174.56" width=".62" height=".3"/>
          <rect class="cls-4" x="78.16" y="175.48" width=".68" height=".07"/>
          <rect class="cls-4" x="78.16" y="175.55" width=".68" height=".33"/>
          <rect class="cls-4" x="78.16" y="175.88" width=".68" height=".33"/>
          <rect class="cls-4" x="78.16" y="176.21" width=".68" height=".33"/>
          <rect class="cls-4" x="78.16" y="176.54" width=".68" height=".33"/>
          <rect class="cls-4" x="78.16" y="176.87" width=".68" height="0"/>
          <rect class="cls-4" x="176.74" y="176.1" width=".69" height=".11"/>
          <rect class="cls-4" x="176.74" y="176.21" width=".69" height=".33"/>
          <rect class="cls-4" x="176.74" y="176.54" width=".69" height=".33"/>
          <rect class="cls-4" x="176.74" y="176.87" width=".69" height=".33"/>
          <rect class="cls-4" x="176.74" y="177.2" width=".69" height=".31"/>
          <rect class="cls-4" x="78.91" y="178.08" width=".75" height=".1"/>
          <rect class="cls-4" x="78.91" y="178.18" width=".75" height=".33"/>
          <rect class="cls-4" x="78.91" y="178.51" width=".75" height=".33"/>
          <rect class="cls-4" x="78.91" y="178.84" width=".75" height=".33"/>
          <rect class="cls-4" x="78.91" y="179.17" width=".75" height=".31"/>
          <rect class="cls-4" x="175.88" y="178.7" width=".78" height=".14"/>
          <rect class="cls-4" x="175.88" y="178.84" width=".78" height=".33"/>
          <rect class="cls-4" x="175.88" y="179.17" width=".78" height=".49"/>
          <rect class="cls-4" x="175.88" y="179.66" width=".78" height=".44"/>
          <rect class="cls-4" x="79.79" y="180.65" width=".8" height=".47"/>
          <rect class="cls-4" x="79.79" y="181.12" width=".8" height=".49"/>
          <rect class="cls-4" x="79.79" y="181.6" width=".8" height=".43"/>
          <rect class="cls-4" x="174.9" y="181.23" width=".82" height=".37"/>
          <rect class="cls-4" x="174.9" y="181.6" width=".82" height=".49"/>
          <rect class="cls-4" x="174.9" y="182.09" width=".82" height=".49"/>
          <rect class="cls-4" x="174.9" y="182.58" width=".82" height=".06"/>
          <rect class="cls-4" x="80.82" y="183.15" width=".87" height=".4"/>
          <rect class="cls-4" x="80.82" y="183.55" width=".87" height=".49"/>
          <rect class="cls-4" x="80.82" y="184.04" width=".87" height=".48"/>
          <rect class="cls-4" x="173.79" y="183.76" width=".88" height=".28"/>
          <rect class="cls-4" x="173.79" y="184.04" width=".88" height=".49"/>
          <rect class="cls-4" x="173.79" y="184.53" width=".88" height=".49"/>
          <rect class="cls-4" x="173.79" y="185.01" width=".88" height=".12"/>
          <rect class="cls-4" x="81.96" y="185.6" width=".92" height=".39"/>
          <rect class="cls-4" x="81.96" y="185.99" width=".92" height=".49"/>
          <rect class="cls-4" x="81.96" y="186.47" width=".92" height=".48"/>
          <rect class="cls-4" x="172.55" y="186.19" width=".94" height=".28"/>
          <rect class="cls-4" x="172.55" y="186.47" width=".94" height=".49"/>
          <rect class="cls-4" x="172.55" y="186.96" width=".94" height=".49"/>
          <rect class="cls-4" x="172.55" y="187.45" width=".94" height=".12"/>
          <rect class="cls-4" x="83.25" y="187.99" width=".98" height=".43"/>
          <rect class="cls-4" x="83.25" y="188.42" width=".98" height=".55"/>
          <rect class="cls-4" x="83.25" y="188.97" width=".98" height=".36"/>
          <rect class="cls-4" x="171.17" y="188.57" width="1" height=".4"/>
          <rect class="cls-4" x="171.17" y="188.97" width="1" height=".55"/>
          <rect class="cls-4" x="171.17" y="189.52" width="1" height=".4"/>
          <rect class="cls-4" x="84.66" y="190.28" width="1.03" height=".33"/>
          <rect class="cls-4" x="84.66" y="190.62" width="1.03" height=".55"/>
          <rect class="cls-4" x="84.66" y="191.16" width="1.03" height=".44"/>
          <rect class="cls-4" x="169.68" y="190.88" width="1.04" height=".28"/>
          <rect class="cls-4" x="169.68" y="191.16" width="1.04" height=".55"/>
          <rect class="cls-4" x="169.68" y="191.71" width="1.04" height=".49"/>
          <rect class="cls-4" x="86.18" y="192.51" width="1.07" height=".3"/>
          <rect class="cls-4" x="86.18" y="192.81" width="1.07" height=".55"/>
          <rect class="cls-4" x="86.18" y="193.36" width="1.07" height=".46"/>
          <rect class="cls-4" x="168.07" y="193.1" width="1.09" height=".26"/>
          <rect class="cls-4" x="168.07" y="193.36" width="1.09" height=".55"/>
          <rect class="cls-4" x="168.07" y="193.9" width="1.09" height=".48"/>
          <rect class="cls-4" x="87.82" y="194.67" width="1.13" height=".33"/>
          <rect class="cls-4" x="87.82" y="195" width="1.13" height=".55"/>
          <rect class="cls-4" x="87.82" y="195.55" width="1.13" height=".38"/>
          <rect class="cls-4" x="166.34" y="195.23" width="1.14" height=".32"/>
          <rect class="cls-4" x="166.34" y="195.55" width="1.14" height=".55"/>
          <rect class="cls-4" x="166.34" y="196.1" width="1.14" height=".39"/>
          <rect class="cls-4" x="89.58" y="196.72" width="1.17" height=".75"/>
          <rect class="cls-4" x="89.58" y="197.47" width="1.17" height=".49"/>
          <rect class="cls-4" x="164.51" y="197.25" width="1.17" height=".22"/>
          <rect class="cls-4" x="164.51" y="197.47" width="1.17" height=".82"/>
          <rect class="cls-4" x="164.51" y="198.29" width="1.17" height=".19"/>
          <rect class="cls-4" x="91.44" y="198.71" width="1.21" height=".41"/>
          <rect class="cls-4" x="91.44" y="199.11" width="1.21" height=".79"/>
          <rect class="cls-4" x="162.59" y="199.21" width="1.21" height=".73"/>
          <rect class="cls-4" x="162.59" y="199.94" width="1.21" height=".46"/>
          <rect class="cls-4" x="93.42" y="200.57" width="1.25" height=".19"/>
          <rect class="cls-4" x="93.42" y="200.76" width="1.25" height=".82"/>
          <rect class="cls-4" x="93.42" y="201.58" width="1.25" height=".14"/>
          <rect class="cls-4" x="160.55" y="201.04" width="1.25" height=".54"/>
          <rect class="cls-4" x="160.55" y="201.58" width="1.25" height=".6"/>
          <rect class="cls-4" x="95.48" y="202.35" width="1.28" height=".06"/>
          <rect class="cls-4" x="95.48" y="202.4" width="1.28" height=".82"/>
          <rect class="cls-4" x="95.48" y="203.23" width="1.28" height=".23"/>
          <rect class="cls-4" x="158.43" y="202.78" width="1.29" height=".45"/>
          <rect class="cls-4" x="158.43" y="203.23" width="1.29" height=".66"/>
          <rect class="cls-4" x="97.64" y="203.99" width="1.3" height=".06"/>
          <rect class="cls-4" x="97.64" y="204.05" width="1.3" height=".82"/>
          <rect class="cls-4" x="97.64" y="204.87" width="1.3" height=".19"/>
          <rect class="cls-4" x="156.23" y="204.41" width="1.3" height=".46"/>
          <rect class="cls-4" x="156.23" y="204.87" width="1.3" height=".59"/>
          <rect class="cls-4" x="99.88" y="205.53" width="1.33" height="1.02"/>
          <rect class="cls-4" x="153.96" y="205.92" width="1.33" height=".99"/>
          <rect class="cls-4" x="102.2" y="206.95" width="1.34" height=".23"/>
          <rect class="cls-4" x="102.2" y="207.18" width="1.34" height=".73"/>
          <rect class="cls-4" x="151.6" y="207.29" width="1.35" height=".95"/>
          <rect class="cls-4" x="104.6" y="208.25" width="1.37" height=".91"/>
          <rect class="cls-4" x="149.18" y="208.54" width="1.37" height=".89"/>
          <rect class="cls-4" x="107.07" y="209.41" width="1.38" height=".09"/>
          <rect class="cls-4" x="107.07" y="209.5" width="1.38" height=".77"/>
          <rect class="cls-4" x="146.71" y="209.68" width="1.39" height=".83"/>
          <rect class="cls-4" x="109.59" y="210.44" width="1.4" height=".79"/>
          <rect class="cls-4" x="144.16" y="210.67" width="1.4" height=".78"/>
          <rect class="cls-4" x="112.16" y="211.35" width="1.4" height=".46"/>
          <rect class="cls-4" x="112.16" y="211.81" width="1.4" height=".26"/>
          <rect class="cls-4" x="141.58" y="211.54" width="1.4" height=".27"/>
          <rect class="cls-4" x="141.58" y="211.81" width="1.4" height=".44"/>
          <rect class="cls-4" x="114.78" y="212.11" width="1.4" height=".65"/>
          <rect class="cls-4" x="138.96" y="212.26" width="1.4" height=".64"/>
          <rect class="cls-4" x="117.42" y="212.72" width="1.4" height=".6"/>
          <rect class="cls-4" x="136.31" y="212.85" width="1.4" height=".58"/>
          <rect class="cls-4" x="120.11" y="213.2" width="1.4" height=".53"/>
          <rect class="cls-4" x="133.63" y="213.29" width="1.39" height=".5"/>
          <rect class="cls-4" x="122.81" y="213.52" width="1.37" height=".46"/>
          <rect class="cls-4" x="130.96" y="213.59" width="1.36" height=".43"/>
          <rect class="cls-4" x="125.52" y="213.73" width="1.37" height=".38"/>
          <rect class="cls-4" x="128.23" y="213.76" width="1.34" height=".37"/>
          <path class="cls-4" d="M128.23,214.12h1.34s-1.34,0-1.34,0Z"/>
        </g>
      </g>
      <path class="cls-4" d="M126.8,240.5c-.46,0-.91-.01-1.37-.03-.38,0-.66-.32-.65-.71,0-.38.37-.68.71-.65.45.01.9.03,1.34.03.38,0,.68.31.66.69,0,.37-.31.66-.68.66h-.01ZM130.87,240.45c-.37,0-.66-.29-.68-.65-.01-.38.27-.69.65-.71,5.39-.2,10.75-.98,15.94-2.31.37-.09.73.12.82.49.1.37-.12.73-.49.83-5.28,1.35-10.73,2.13-16.21,2.35h-.03s-.01,0-.01,0ZM117.34,239.8h-.09c-.45-.07-.91-.12-1.36-.21-.37-.05-.62-.41-.57-.78.05-.37.39-.62.77-.57.45.07.88.14,1.33.19.37.06.62.4.58.76-.04.34-.34.58-.66.58v.02ZM106.73,237.57s-.12,0-.19-.02c-5.25-1.49-10.36-3.57-15.19-6.16-.33-.18-.46-.58-.29-.92.18-.32.58-.46.92-.28,4.75,2.54,9.77,4.56,14.94,6.05.37.11.57.48.46.84-.08.3-.35.49-.65.49h0ZM155.98,235.22c-.27,0-.53-.16-.64-.43-.14-.36.04-.75.38-.89.42-.16.83-.32,1.25-.5.34-.14.75.02.88.37.14.35-.03.75-.37.88-.42.18-.84.34-1.26.52-.08.03-.16.04-.25.04h0ZM164.58,231.21c-.25,0-.48-.12-.6-.35-.18-.32-.05-.75.27-.92.39-.22.79-.43,1.18-.65.32-.19.75-.07.92.26.19.33.07.75-.26.92-.39.22-.79.45-1.19.67-.11.05-.22.08-.32.08ZM88.12,229.46c-.12,0-.24-.02-.35-.09-.39-.23-.77-.48-1.17-.72-.31-.2-.41-.62-.22-.94.2-.31.62-.41.94-.22.38.24.76.48,1.15.71.33.19.42.61.23.94-.12.22-.35.32-.58.32ZM169.24,228.45c-.21,0-.45-.11-.57-.31-.21-.31-.11-.73.2-.94,4.53-2.89,8.76-6.28,12.59-10.05.27-.26.69-.26.96,0,.26.27.26.69,0,.96-3.9,3.85-8.21,7.3-12.81,10.23-.11.07-.24.11-.36.11h-.02ZM80.32,224.05c-.15,0-.3-.04-.42-.15-.35-.28-.72-.57-1.07-.85-.29-.23-.34-.66-.1-.95.24-.29.66-.34.95-.09.35.28.69.57,1.04.84.3.23.34.65.11.95-.14.18-.34.26-.53.26h.01ZM72.28,216.76c-.18,0-.35-.07-.49-.2-3.79-3.95-7.16-8.31-10.04-12.98-.2-.31-.09-.73.22-.94s.73-.09.94.22c2.82,4.58,6.15,8.85,9.86,12.74.26.27.24.71-.01.96-.14.12-.3.19-.47.19ZM188.28,211.24c-.15,0-.3-.06-.42-.15-.3-.23-.34-.66-.11-.95.29-.35.56-.71.83-1.06.23-.3.65-.35.95-.12.3.23.35.65.12.95-.27.37-.56.72-.84,1.09-.14.16-.32.26-.53.26h0ZM193.71,203.44c-.12,0-.25-.02-.35-.09-.33-.19-.42-.61-.23-.94.23-.38.46-.78.69-1.16.19-.32.6-.43.92-.25.32.19.43.62.25.93-.23.39-.46.79-.71,1.18-.12.21-.35.32-.59.32h.02ZM60.28,200.39c-.24,0-.47-.12-.6-.35-.22-.39-.43-.8-.65-1.21-.18-.32-.04-.75.28-.91.33-.18.75-.04.91.29.2.39.42.79.64,1.18.18.33.05.75-.27.92-.11.06-.22.08-.33.08h.01ZM196.37,198.7c-.11,0-.22-.02-.31-.08-.34-.18-.46-.59-.3-.91,2.47-4.78,4.42-9.85,5.82-15.04.09-.37.48-.57.83-.48.37.09.57.48.48.83-1.43,5.29-3.42,10.43-5.93,15.3-.12.23-.35.37-.59.37h.01ZM56.25,191.79c-.27,0-.53-.16-.62-.43-.16-.42-.33-.86-.49-1.28-.14-.35.04-.75.39-.87.35-.14.75.04.87.39.16.42.33.84.49,1.25.14.35-.03.75-.38.88-.08.03-.16.06-.24.06h-.01ZM52.98,181.44c-.31,0-.58-.21-.66-.52-1.28-5.3-1.98-10.77-2.12-16.27,0-.38.29-.69.66-.69.41,0,.69.28.69.66.14,5.39.83,10.77,2.08,15.99.08.37-.14.73-.5.81-.05,0-.11.02-.16.02h.01ZM204.14,174.23h-.09c-.37-.05-.62-.39-.57-.78.07-.45.12-.88.18-1.33.04-.37.38-.64.76-.6.37.04.64.38.59.76-.05.46-.11.91-.18,1.36-.05.34-.34.58-.66.58h-.03ZM204.87,164.76c-.38,0-.68-.31-.66-.69v-1.34c0-5.33-.56-10.65-1.64-15.81-.08-.37.16-.73.53-.8.36-.08.73.16.8.53,1.1,5.26,1.67,10.66,1.67,16.09v1.37c0,.36-.31.66-.68.66h-.01ZM50.89,161.24h-.01c-.38,0-.66-.33-.66-.69,0-.46.03-.91.05-1.37.01-.38.35-.66.71-.65.38.01.66.34.65.71-.01.45-.04.9-.05,1.35,0,.37-.31.67-.68.67ZM51.73,151.78h-.11c-.37-.05-.62-.41-.57-.78.07-.45.14-.89.22-1.36.07-.37.41-.61.79-.56.37.07.62.41.56.79-.07.45-.15.88-.22,1.33-.05.34-.34.59-.66.59v-.02ZM54.1,141.19s-.14,0-.19-.03c-.35-.11-.56-.49-.46-.84,1.57-5.24,3.7-10.32,6.35-15.13.18-.33.6-.45.92-.27.33.18.45.6.27.92-2.6,4.71-4.69,9.71-6.24,14.86-.08.3-.35.49-.65.49ZM200.72,138.3c-.29,0-.55-.18-.64-.46-.15-.42-.3-.84-.45-1.26-.12-.35.05-.75.41-.87.35-.12.75.05.87.41.15.43.31.86.46,1.29.12.35-.07.75-.42.87-.07.03-.15.04-.22.04h-.01ZM197.08,129.52c-.24,0-.49-.14-.61-.38-.2-.41-.39-.8-.59-1.2-.18-.34-.04-.75.3-.91.32-.18.75-.04.91.3.21.41.41.81.61,1.22.16.34.03.75-.31.91-.09.05-.21.07-.3.07h0ZM194.53,124.74c-.23,0-.46-.12-.58-.34-2.7-4.65-5.89-9.02-9.51-13.01-.26-.27-.23-.71.04-.96.27-.26.71-.23.96.04,3.68,4.06,6.93,8.52,9.68,13.24.19.33.08.73-.25.92-.11.07-.23.09-.34.09h0ZM62.46,122.67c-.12,0-.24-.03-.35-.11-.31-.2-.42-.61-.22-.94.24-.39.49-.77.73-1.15.2-.31.62-.41.94-.2.31.2.41.62.2.94-.24.38-.49.76-.72,1.14-.12.2-.35.33-.57.33h-.01ZM67.97,114.93c-.15,0-.3-.05-.42-.15-.28-.23-.34-.67-.09-.95.28-.35.58-.71.87-1.06.24-.29.66-.33.95-.08.29.24.33.67.08.95-.29.34-.57.69-.85,1.05-.14.16-.33.26-.53.26h0ZM75.36,106.98c-.18,0-.37-.07-.5-.22-.26-.27-.24-.71.03-.96,4-3.74,8.41-7.06,13.09-9.86.33-.19.73-.1.94.23.19.33.09.73-.23.94-4.6,2.76-8.93,6.03-12.86,9.7-.14.12-.3.18-.46.18ZM178.14,104.97c-.16,0-.31-.05-.45-.16-.34-.3-.68-.58-1.03-.87-.29-.24-.33-.67-.08-.95.25-.29.66-.33.95-.08.35.3.71.58,1.04.88.29.24.31.68.07.96-.14.15-.33.23-.52.23h.01ZM170.59,99.23c-.14,0-.26-.04-.38-.11-.38-.24-.75-.5-1.12-.73-.31-.2-.41-.63-.21-.94.21-.31.62-.41.94-.2.38.24.76.5,1.14.75.31.2.39.63.19.94-.14.19-.34.3-.57.3h.01ZM165.98,96.36c-.11,0-.23-.03-.34-.1-4.67-2.66-9.63-4.84-14.76-6.47-.35-.11-.56-.49-.45-.86.11-.35.5-.56.86-.45,5.21,1.64,10.27,3.86,15.02,6.57.32.19.43.6.25.92-.12.22-.35.34-.58.34v.03ZM91.87,95.21c-.24,0-.47-.14-.6-.37-.18-.33-.05-.75.29-.92.41-.22.8-.42,1.21-.63.34-.18.75-.04.91.3.16.34.04.75-.3.91-.39.2-.8.41-1.19.63-.1.05-.2.08-.31.08ZM100.52,91.29c-.27,0-.53-.16-.64-.43-.14-.35.04-.75.39-.87.42-.16.85-.33,1.29-.48.35-.12.75.05.87.41.12.35-.05.75-.41.87-.42.15-.84.31-1.26.46-.08.03-.16.04-.24.04ZM110.9,88.16c-.31,0-.6-.22-.66-.53-.08-.37.15-.73.52-.82,5.32-1.2,10.79-1.83,16.28-1.89.37,0,.68.3.68.67s-.3.68-.66.69c-5.4.05-10.77.68-16,1.86-.05,0-.1.01-.15.01ZM141.88,87.56h-.12c-.43-.08-.88-.16-1.33-.23-.37-.07-.62-.41-.55-.79.05-.37.41-.63.79-.56.45.08.89.15,1.34.23.36.07.61.42.55.79-.06.33-.34.56-.67.56ZM132.45,86.42h-.04c-.45-.03-.9-.05-1.34-.07-.38-.01-.66-.33-.65-.71.01-.38.33-.69.71-.65.46.01.91.04,1.37.07.38.03.66.34.64.72-.03.37-.33.64-.68.64Z"/>
      <path class="cls-4" d="M212.63,161.28h-1.36v-.68c0-44.94-36.51-81.49-81.39-81.49h-.68v-1.36h.68c45.63,0,82.74,37.17,82.74,82.85v.68Z"/>
      <path class="cls-4" d="M119.89,204.19h-.08c-.56-.05-1.12-.11-1.67-.2-.44-.07-.76-.48-.69-.94.07-.45.49-.76.94-.69.53.08,1.07.15,1.59.2.44.05.79.45.74.91-.05.43-.39.74-.82.74v-.02ZM129.71,203.85c-.39,0-.74-.28-.8-.69-.08-.45.23-.87.67-.96.53-.1,1.05-.2,1.58-.31.44-.1.89.18.99.62.1.45-.18.89-.62.99-.54.11-1.1.23-1.64.33h-.13s-.03.02-.03.02ZM136.03,202.14c-.33,0-.66-.2-.77-.54-.16-.43.07-.91.49-1.05,6.04-2.22,11.38-6.07,15.43-11.12.28-.34.81-.41,1.15-.13.36.28.41.8.13,1.15-4.24,5.28-9.84,9.31-16.16,11.63-.1.03-.2.05-.28.05v.02ZM107.33,200.59c-.11,0-.25-.03-.36-.08-6.04-3.01-11.17-7.62-14.81-13.3-.25-.38-.13-.89.25-1.14.38-.25.89-.13,1.13.25,3.48,5.45,8.39,9.85,14.16,12.73.41.2.57.69.38,1.1-.15.3-.43.46-.74.46v-.02ZM90.48,183.26c-.31,0-.61-.18-.74-.48-.23-.51-.46-1.02-.67-1.55-.16-.43.03-.91.44-1.07.41-.16.9.03,1.07.44.2.5.41.99.64,1.46.2.41,0,.91-.39,1.09-.11.05-.23.08-.34.08v.02ZM157.53,180.82c-.1,0-.2-.02-.3-.05-.43-.17-.64-.64-.48-1.05.2-.51.36-1,.54-1.51.15-.43.59-.67,1.03-.52.43.15.67.61.52,1.03-.18.55-.36,1.07-.56,1.6-.13.33-.44.53-.77.53v-.02ZM87.36,172.24c-.41,0-.77-.31-.82-.72-.07-.56-.11-1.12-.16-1.68-.03-.46.31-.86.76-.89.46-.05.85.31.89.76.03.54.08,1.07.15,1.6.05.44-.26.85-.72.9h-.1s.02.03.02.03ZM159.82,169.59h-.03c-.46-.02-.8-.41-.79-.85.02-.52.03-1.07.03-1.61,0-2.27-.21-4.54-.64-6.76-.08-.45.21-.87.66-.97.44-.08.87.21.97.66.45,2.32.68,4.69.68,7.07,0,.56,0,1.12-.03,1.68-.02.44-.38.79-.82.79h-.02ZM88.18,159.18s-.13,0-.2-.02c-.44-.11-.71-.56-.61-1,1.61-6.55,5.01-12.55,9.79-17.35.33-.33.84-.31,1.17,0,.33.33.33.84,0,1.17-4.58,4.59-7.82,10.33-9.36,16.58-.1.38-.43.62-.79.62ZM155.29,150.26c-.3,0-.57-.15-.72-.43-.26-.48-.52-.94-.8-1.38-.23-.38-.11-.89.26-1.14.38-.25.89-.11,1.13.27.3.48.57.95.85,1.44.22.4.08.91-.31,1.12-.13.07-.26.1-.39.1l-.02.02ZM148.23,141.25c-.2,0-.39-.07-.56-.22-.39-.36-.79-.72-1.2-1.07-.34-.3-.39-.81-.1-1.15.3-.35.8-.39,1.15-.1.43.36.86.74,1.27,1.12.33.31.34.82.05,1.16-.16.18-.38.27-.61.27v-.02ZM101.45,138.96c-.25,0-.49-.12-.66-.33-.28-.36-.2-.87.15-1.15.44-.35.9-.67,1.36-.99.38-.26.89-.16,1.15.21.26.38.16.89-.21,1.15-.44.31-.87.63-1.3.94-.15.12-.33.16-.49.16ZM143.04,137.22c-.15,0-.31-.05-.44-.13-5.43-3.47-11.72-5.39-18.19-5.56-.46,0-.8-.39-.8-.84s.39-.81.84-.81c6.77.18,13.35,2.19,19.03,5.82.38.25.49.76.25,1.14-.16.25-.43.38-.69.38h.02ZM111.53,133.54c-.34,0-.66-.21-.77-.56-.15-.43.08-.9.51-1.05.53-.18,1.07-.36,1.59-.51.44-.13.89.12,1.02.56.13.43-.11.89-.56,1.02-.51.15-1.02.31-1.53.49-.08.03-.18.05-.26.05Z"/>
      <path class="cls-4" d="M237,52.99l-48.53,48.58.48.48,48.53-48.58-.48-.48Z"/>
      <path class="cls-4" d="M127.61,162.51l-27.28,27.3.48.48,27.28-27.3-.48-.48Z"/>
      <path class="cls-4" d="M48.03,239.53c-.35,0-.69-.14-.96-.39-.53-.53-.53-1.39,0-1.92l61.7-61.78c.53-.53,1.38-.53,1.91,0,.53.53.53,1.39,0,1.92l-61.7,61.78c-.27.27-.61.39-.96.39h.01Z"/>
      <path class="cls-4" d="M13.93,272.64c-.08,0-.18-.02-.24-.09-.14-.14-.14-.35,0-.48l61.7-61.78c.14-.14.35-.14.47,0,.14.14.14.35,0,.48l-61.69,61.78s-.15.09-.24.09Z"/>
      <path class="cls-4" d="M92.29,210.28c-.35,0-.69-.14-.96-.39-.53-.53-.53-1.38,0-1.92l25.71-25.74c.53-.53,1.38-.53,1.91,0,.53.53.53,1.39,0,1.92l-25.71,25.74c-.27.27-.61.39-.96.39h.01Z"/>
      <path class="cls-4" d="M33.04,269.6c-.35,0-.69-.14-.96-.4-.53-.53-.53-1.38,0-1.92l25.71-25.74c.53-.53,1.38-.53,1.91,0,.53.53.53,1.39,0,1.92l-25.71,25.74c-.27.27-.61.4-.96.4h.01Z"/>
      <path class="cls-4" d="M213.2,99.49c3.83,0,6.94-3.11,6.94-6.94s-3.1-6.94-6.94-6.94-6.93,3.11-6.93,6.94,3.1,6.94,6.93,6.94Z"/>
      <path class="cls-4" d="M75,237.87c3.83,0,6.93-3.11,6.93-6.94s-3.1-6.94-6.93-6.94c-3.83,0-6.93,3.11-6.93,6.94,0,3.83,3.1,6.94,6.93,6.94Z"/>
      <path class="cls-4" d="M141.23,171.69c0,2.6-2.1,4.7-4.7,4.7s-4.69-2.1-4.69-4.7,2.1-4.7,4.69-4.7,4.7,2.11,4.7,4.7Z"/>
      <path class="cls-4" d="M41.3,247.73c0,1.25-1.02,2.27-2.27,2.27s-2.27-1.02-2.27-2.27,1.02-2.27,2.27-2.27,2.27,1.02,2.27,2.27Z"/>
      <path class="cls-4" d="M127.88,255.92c-24.87,0-48.24-9.7-65.83-27.3-17.58-17.61-27.27-41.01-27.27-65.91,0-24.9,9.69-48.3,27.27-65.91,17.58-17.61,40.96-27.3,65.83-27.3,24.87,0,48.25,9.7,65.83,27.3,17.58,17.6,27.27,41.01,27.27,65.91,0,24.9-9.68,48.31-27.27,65.91-17.58,17.6-40.96,27.3-65.83,27.3ZM127.88,69.84c-24.77,0-48.07,9.66-65.58,27.2-17.51,17.54-27.16,40.86-27.16,65.66,0,24.8,9.65,48.13,27.16,65.67,17.51,17.54,40.81,27.2,65.58,27.2,24.77,0,48.07-9.66,65.58-27.2,17.52-17.54,27.16-40.86,27.16-65.67,0-24.8-9.64-48.13-27.16-65.66-17.51-17.54-40.81-27.2-65.58-27.2Z"/>
      <path class="cls-4" d="M127.92,257.12c-4.36.01-8.67-.29-12.93-.87-.75-.09-1.26-.79-1.17-1.54.09-.75.79-1.26,1.53-1.16,4.11.55,8.32.84,12.51.84,1.13,0,2.33-.03,3.5-.07.75-.01,1.38.56,1.41,1.3.03.75-.56,1.39-1.3,1.41-1.18.04-2.36.07-3.55.07v.02ZM140.88,256.22c-.66,0-1.25-.49-1.35-1.17-.11-.75.41-1.43,1.15-1.53.45-.07.88-.12,1.33-.19.73-.12,1.44.39,1.55,1.14.11.75-.39,1.44-1.14,1.55-.45.07-.91.14-1.36.21h-.19ZM111.17,255.62c-.08,0-.16,0-.24-.02-.45-.08-.91-.16-1.36-.26-.73-.15-1.21-.86-1.07-1.59.15-.73.87-1.22,1.59-1.07.43.08.87.16,1.32.24.73.14,1.22.84,1.1,1.57-.12.65-.69,1.12-1.33,1.12h0ZM150.2,254.41c-.61,0-1.16-.41-1.32-1.03-.18-.73.26-1.47.99-1.64.43-.11.87-.22,1.3-.32.73-.19,1.47.24,1.66.96.19.72-.25,1.46-.96,1.66-.45.12-.88.23-1.33.34-.11.02-.22.04-.32.04h-.02ZM101.93,253.43c-.12,0-.26-.01-.38-.05-.43-.12-.88-.26-1.32-.39-.72-.22-1.11-.98-.9-1.7.22-.72.98-1.12,1.7-.9.42.14.85.26,1.29.38.72.21,1.13.96.92,1.69-.18.59-.72.98-1.3.98h-.01ZM155.42,252.96c-.58,0-1.11-.38-1.29-.95-.22-.72.18-1.48.89-1.7,5.09-1.57,10.08-3.63,14.81-6.07.66-.34,1.48-.08,1.83.58.34.67.08,1.48-.59,1.83-4.88,2.53-10.02,4.63-15.26,6.26-.14.04-.27.07-.41.07v-.03ZM178.66,242.01c-.45,0-.88-.22-1.14-.61-.41-.63-.23-1.47.39-1.88.37-.24.75-.49,1.12-.73.62-.42,1.46-.26,1.88.37.42.62.26,1.47-.37,1.89-.38.26-.76.52-1.14.76-.23.15-.49.22-.75.22h0ZM186.33,236.41c-.39,0-.79-.18-1.06-.5-.48-.58-.38-1.44.21-1.92.34-.28.69-.55,1.03-.84.57-.48,1.44-.41,1.92.18.47.57.41,1.43-.18,1.92-.35.3-.71.59-1.06.87-.26.21-.56.3-.86.3ZM190.44,232.87c-.37,0-.73-.15-1-.45-.5-.56-.46-1.41.09-1.92,3.95-3.6,7.6-7.57,10.85-11.79.46-.59,1.32-.71,1.9-.24.6.46.71,1.32.25,1.9-3.35,4.35-7.12,8.44-11.18,12.14-.26.23-.58.36-.91.36ZM206.87,213.09c-.24,0-.49-.07-.72-.21-.64-.39-.83-1.23-.43-1.87.23-.38.46-.76.69-1.14.38-.64,1.22-.86,1.86-.46.64.38.85,1.23.46,1.86-.23.39-.48.79-.72,1.18-.26.42-.71.64-1.15.64h.01ZM211.47,204.78c-.21,0-.41-.04-.6-.14-.68-.33-.95-1.14-.62-1.82.19-.41.39-.8.58-1.21.33-.68,1.13-.98,1.8-.65.68.31.98,1.13.65,1.81-.19.42-.39.83-.6,1.25-.23.49-.72.76-1.22.76ZM213.69,199.81c-.18,0-.35-.03-.51-.11-.69-.28-1.02-1.09-.73-1.78,2.05-4.93,3.67-10.08,4.83-15.29.16-.73.89-1.2,1.61-1.03.73.16,1.19.88,1.03,1.62-1.2,5.38-2.86,10.68-4.98,15.76-.22.52-.72.84-1.25.84ZM220.17,174.92h-.16c-.75-.08-1.28-.76-1.19-1.51.05-.45.09-.88.15-1.33.08-.75.73-1.29,1.49-1.21.75.08,1.29.75,1.21,1.49-.04.46-.09.91-.15,1.37-.08.69-.66,1.19-1.35,1.19h0ZM220.79,165.44h-.02c-.75,0-1.35-.62-1.35-1.37v-1.34c0-.75.61-1.36,1.36-1.36s1.36.61,1.36,1.36v1.37c0,.75-.61,1.35-1.36,1.35h.01Z"/>
      <path class="cls-4" d="M188.86,88.85c0,2.59-2.1,4.7-4.7,4.7s-4.69-2.11-4.69-4.7,2.1-4.7,4.69-4.7c2.59,0,4.7,2.11,4.7,4.7Z"/>
      <path class="cls-4" d="M55.11,211.03c0,3.68-2.97,6.66-6.65,6.66-3.68,0-6.65-2.97-6.65-6.66s2.97-6.66,6.65-6.66,6.65,2.97,6.65,6.66Z"/>
      <path class="cls-4" d="M48.46,218.36c-4.04,0-7.33-3.29-7.33-7.34,0-4.05,3.28-7.34,7.33-7.34,4.04,0,7.33,3.29,7.33,7.34s-3.28,7.34-7.33,7.34ZM48.46,205.05c-3.3,0-5.97,2.67-5.97,5.98,0,3.3,2.67,5.98,5.97,5.98s5.97-2.67,5.97-5.98c0-3.3-2.67-5.98-5.97-5.98Z"/>
      <path class="cls-4" d="M123.71,211.7c-25.44,0-46.14-20.7-46.14-46.14,0-25.44,20.7-46.14,46.14-46.14,25.44,0,46.14,20.7,46.14,46.14,0,25.44-20.7,46.14-46.14,46.14ZM123.71,121.06c-24.54,0-44.5,19.96-44.5,44.5,0,24.54,19.96,44.5,44.5,44.5,24.54,0,44.5-19.96,44.5-44.5,0-24.54-19.96-44.5-44.5-44.5Z"/>
    </g>
  </g>
  <g>
    <path class="cls-1" d="M211.51,193.5c-12.71-8.09-35.47-10.13-35.47-10.13-14.67-1.78-14.85-5.33-14.85-5.33-2.13-7.65,7.91-11.2,7.91-11.2,4.71-2.93-1.07-5.6-1.07-5.6-2.22-1.51-9.07-.18-9.07-.18l-8.53,1.51c-16.14,2.13-26.14-13.88-29.5-20.37-1.2-2.32-2.43-4.62-3.74-6.88-2.41-4.15-6.06-10.56-8.55-15.42-4-7.82-18.4-26.14-18.4-26.14.36,1.07-2.58,10.31-4.18,13.42-1.6,3.11-7.47,15.2-7.47,15.2-4.92,11.48,14.16,31.5,21.91,38.98,3.99,3.85,6.91,8.65,8.45,13.97,1.64,5.68,2.64,13.01,1.82,21.28-1.58,15.94-33.52,14.58-33.52,14.58,4.27,8.53,5.78,13.78,5.78,13.78,1.42-.27,12.45,2.49,12.45,2.49-4.36,3.38-10.22,4.18-10.22,4.18,5.69,9.87,6.4,19.56,6.4,19.56,7.82-4.89,19.11-4.45,19.11-4.45-2.49-9.78-1.07-11.74-1.07-11.74l7.91,9.42c4.8,1.51,14.49-1.69,14.49-1.69-1.69-1.6-5.78-13.16-5.78-13.16,0,0-7.11-17.96,12.71-23.03,19.83-5.07,35.21.44,35.21.44l13.87,4.89c6.58,2.13,9.78-1.33,9.78-1.33,15.47-10.93,26.05-9.6,26.05-9.6-1.6-.36-12.45-7.47-12.45-7.47Z"/>
    <path class="cls-1" d="M95.19,86.77s3.86,10.7,18.9,30.52c1.09,1.44,2.09,2.95,2.99,4.52l14.61,25.29s8.3,14.94,25.25,8.89l-7.76-3.79s-2.07-.89,1.9-.77c3.97.12,15.17,3.67,15.17,3.67,0,0,8.12,1.54,14.58,10.31,0,0,2.07,5.81-.89,3.73,0,0-1.84-3.14-5.99-1.42-4.15,1.72-6.52,3.56-7.53,5.87,0,0-1.48,3.08,7.11,2.67,8.59-.41,23.59,4.45,23.59,4.45,0,0,11.91,2.73,21.34,12.68,0,0,6.82,6.05,9.84,7.35,0,0-1.66.65-11.91-6.28s-18.91-10.49-36.63-13.28c0,0-17.13-.47-16.3-5.33s4.56-6.34,4.56-6.34c0,0,8.36-4.33,5.87-6.82,0,0-2.55-4.86-9.31-4.62,0,0-19.35,3.64-23.77,1.07-4.37-2.55-10.66-6.29-16.48-16.95-3.95-7.23-6.94-13.09-9.16-17.04-1.04-1.85-2.84-5.41-4.07-7.15-1.37-1.93-3.42-4.4-6.17-8.3-1.02-1.45-2.08-3.27-3.24-4.61-2.78-3.23-8.89-11.37-6.53-18.31Z"/>
    <path class="cls-1" d="M211.86,205.9s23.74,9.82,33.03,12.27c0,0-7.51-6.27,3.91-7.33l-22.85-7.07s-4.05-1.56-14.09,2.13Z"/>
    <path class="cls-1" d="M256.71,213.14l28.63,7.6s-.9.09-2.93.22-3.11.13-6.27,1.91c-3.16,1.78-7.56,4.53-15.87,2.13-8.31-2.4-12.54-5.69-12.54-5.69,0,0-.71-.49.13-.31,0,0,6.49,2.18,10.22.31,3.73-1.87-.13-4.58-.13-4.58l-1.82-1.2s-.36-.62.58-.4Z"/>
    <path class="cls-1" d="M252.34,215.94c-.51,1.24-2.13,1.74-3.37,1.24-1.24-.51-2.05-2.01-1.54-3.25s2.14-1.74,3.38-1.23,2.04,2.01,1.53,3.25Z"/>
    <path class="cls-1" d="M235.44,228.73c-.55,1.18-2.14,1.58-3.3,1.01s-1.92-2.13-1.37-3.31,2.22-1.54,3.37-.98c1.16.57,1.85,2.09,1.29,3.27Z"/>
    <path class="cls-1" d="M209.97,235.06c.86,1.03.91,2.78-.11,3.64s-2.74.5-3.6-.52c-.86-1.03-.94-2.81.09-3.67s2.77-.47,3.63.55Z"/>
    <path class="cls-1" d="M186.15,233.39c.49,1.24-.03,2.86-1.28,3.36s-2.74-.33-3.23-1.58.02-2.9,1.27-3.39,2.75.36,3.24,1.61Z"/>
    <path class="cls-1" d="M204.77,209.3s2.95.09,16.41,7.88l11.07,5.29s.57.35.37.44c0,0-6.27-1.22-6.81,3.05,0,0-.06,2.04,1.56,3.43,0,0-12.63-6.83-18.42-10.55,0,0-6.76-4.94-9.74-6.05,0,0,4.37-3.26,5.56-3.49Z"/>
    <path class="cls-1" d="M241.05,227.36s11.27,6.37,21.71,9.45c0,0-3.72-1.16-9.2.84s-10.47.17-10.47.17c0,0-4.24-1.18-12.13-6.65,0,0,.52-.1,3.62.86,3.66,1.13,7.04.52,7.75-.26s.6-1.6-1.05-3.58l-.71-.67s-.4-.44.48-.17Z"/>
    <path class="cls-1" d="M192.72,215.44s.87-.21,2.71,1.84c0,0,8.83,9.78,10.95,11.41,0,0,3.9,3.44,3.97,3.96,0,0,.07.15-.07.19,0,0-3.96-2.39-7.2-.24s-1.14,4.67-1.14,4.67c0,0-10.74-11.14-14.52-17.08,0,0-4.36-5.09-6.27-7.91,0,0,7.03,3.26,11.57,3.16Z"/>
    <path class="cls-1" d="M213.91,237.28s4.71,6.11,11.36,10.33c6.65,4.22,6.2,5.51,6.2,5.51,0,0-2.33-.82-9.78-1.51s-9.62-2.69-9.62-2.69c0,0-5.22-4.18-8.25-9.27,0,0-.22-.58,0-.62,0,0,1.62.73,5.07,3.4,0,0,3.24,1.82,5.49.16,0,0,1.04-.49-.31-3.71,0,0-.47-1.47-.16-1.6Z"/>
    <path class="cls-1" d="M174.82,209.93s8.39,13.81,12,19.41c0,0,.81.86.46,1.27,0,0-2.66-2.7-6.36-1.63-3.7,1.07-3.04,4.53-3.04,4.53,0,0-6.97-12.51-8.73-17.45s-3.79-8.18-3.79-8.18c0,0,4.94.36,9.46,2.04Z"/>
    <path class="cls-1" d="M161.49,207.56s-2.99-.44-5.96-.15c0,0-.92,25.34-.56,27.62,0,0-.21,3.38,3.97,4.3l3.67.95s1.69.47,1.6-3.44c0,0-1.13-21.96-2.73-29.28Z"/>
    <path class="cls-1" d="M147.91,207.79l3.64-.27s1.27-.09,1.21,1.01c0,0,.68,22.37-.18,24.45,0,0-.24,1.66-1.21,1.51l-3.62-1.27s-2.7-.92-2.25-3.44c0,0,1.01-13.96,1.75-17.13l.65-4.86Z"/>
    <path class="cls-1" d="M145.07,208.06l-4.21.89s-2.37,13.45-2.61,17.48c0,0-.41,2.04,1.48,2.82l2.82,1.19s1.16.74,1.42-2.25c0,0,.36-9.84,1.04-17.31,0,0,.5-2.67.06-2.82Z"/>
    <path class="cls-1" d="M58.37,53.6c.98,2.1.19,4.86-1.91,5.84s-4.72-.19-5.7-2.29c-.98-2.1-.31-5.11,1.8-6.09s4.84.44,5.82,2.54Z"/>
    <path class="cls-1" d="M44.67,81.78c1.37,1.87,1.21,4.84-.66,6.21s-4.75.62-6.12-1.26-1.39-5.08.48-6.45,4.93-.37,6.29,1.5Z"/>
    <circle class="cls-1" cx="35.11" cy="113.13" r="4.2"/>
    <path class="cls-1" d="M35.9,140.28c.26-2.02,2.78-3.37,4.8-3.1,2.02.26,3.72,2.15,3.46,4.18s-2.39,3.42-4.41,3.15c-2.02-.26-4.11-2.2-3.85-4.23Z"/>
    <path class="cls-1" d="M55.66,43.09S28.1,1.42,26.8,0c0,0-.41,1.07.71,3.73,1.13,2.67,2.02,7.41,1.07,11.91s-5.16,21.28,6.16,34.61c0,0,12.27,14.22,15.77,14.94,0,0,.89.41.4-.39,0,0-8.45-11.38-5.96-19.38,2.49-8,10.49-.58,10.49-.58,0,0,1.24.53.71-.8l-.49-.96Z"/>
    <path class="cls-1" d="M63.71,56.5s-.04,15.91-11.47,9.73c0,0,10.09,14.4,17.96,22.89,7.87,8.49,12.4,13.51,12.89,14.58,0,0,3.09-7.34,3.63-10.72.12-.75-.04-1.52-.42-2.18-.9-1.56-3.46-5.64-9.7-13.79-.84-1.09-1.69-2.16-2.56-3.22-1.47-1.8-5.84-7.56-10.33-17.3Z"/>
    <path class="cls-1" d="M8.46,41.78s25.65,23.78,32.09,31.6c0,0,.84.8-.13,1.07,0,0-9.29-5.11-9.25,4.4,0,0-.44,6.27,8.22,14.22,0,0,.67.71-.22.71,0,0-17.69-6.09-24.63-20.36,0,0-1.51-2.62-1.96-11.42,0,0,.98-11.33-3.64-18.36,0,0-.98-1.6-.49-1.87Z"/>
    <path class="cls-1" d="M41.5,95.56s10.16,4.85,8.24-12.04c0,0,8.89,9.29,15.6,14.49,0,0,13.74,11.16,13.78,13.42,0,0-4.8,8.98-4.85,10.27,0,0-23.76-16.67-32.78-26.14Z"/>
    <path class="cls-1" d="M41.24,108.08s7.35,13.14-3.54,14.51c0,0,15.16,7.6,30.85,12.54l8.85,3.51s-4.67-4.93-4.13-13.74c0,0-21.93-8.51-32.02-16.82Z"/>
    <path class="cls-1" d="M.32,84.19s28.8,17.16,30.94,19.38c0,0,.36.44-.22.76,0,0-10.22-2.49-5.91,8.67,0,0,1.87,3.78,7.91,7.33,0,0,.67.31,0,.62,0,0-17.82-2.27-23.43-12,0,0-2.98-6.8-4.27-14.54,0,0-.22-4.31-5.11-9.6,0,0-.58-.8.09-.62Z"/>
    <path class="cls-1" d="M78.24,140.51s8.36,11.51,10.53,12.89c0,0-13.32-1.98-21.13-3.04-10.48-1.43-22.54-2.17-22.54-2.17,0,0,10.45-6.44-1.45-12.93-.05-.02-.05-.09,0-.09,1.48.23,10.29,1.52,21.93,3.69,0,0,11.33,1.78,12.65,1.65Z"/>
    <path class="cls-1" d="M4.86,127.71s27.49,5.27,30.5,6.58c0,0,.5.36-.18.69,0,0-8.16.83-4.58,7.29,0,0,1.95,4.15,9.42,5.51,0,0,.62.27-.29.41,0,0-8.15-.15-16.37-2.45-3.03-.85-5.68-2.75-7.48-5.33-.72-1.04-1.51-2.31-2.27-3.83-1.36-2.72-3.39-5.07-5.99-6.65-.85-.52-1.82-1.06-2.92-1.61,0,0-.69-.93.14-.61Z"/>
    <path class="cls-1" d="M91.36,156.29l6,6.36s-21.83,10.89-31.38,14.71c0,0-2.98,1.82-6.22-1.78l-3.38-4.18s-1.82-1.64,3.16-3.78c0,0,27.12-9.73,31.83-11.33Z"/>
    <path class="cls-1" d="M98.47,164.25s3.33,2.93,3.91,5.29l-23.96,15.25s-2.62,1.6-5.56-1.96l-2.27-2.13s-2.27-1.29,6.27-5.47l21.6-10.98Z"/>
    <path class="cls-1" d="M103.4,171.58s2.27,4.22,1.96,5.16l-16,13.82s-1.6,2.04-4.62-.04l-2.62-1.82s-1.47-.93,2.22-3.42c0,0,16.45-11.87,19.07-13.69Z"/>
    <path class="cls-1" d="M191.24,237.37s4.12,6.79,8.39,10.19c4.27,3.41,5.1,4.89,5.1,4.89,0,0-1.51-1.48-9.01-2.31-7.5-.83-10.93-5.04-10.93-5.04,0,0-3.29-3.32-4.62-8.06l4.33,2.79s3.67,2.4,5.33.44c0,0,1.16-.56.24-2.87l-.21-.98s.21-.33,1.39.95Z"/>
  </g>
</svg>