<?xml version="1.0" encoding="UTF-8"?>
<svg id="Layer_1" data-name="Layer 1" xmlns="http://www.w3.org/2000/svg" xmlns:xlink="http://www.w3.org/1999/xlink" viewBox="0 0 288.41 328.64">
  <defs>
    <style>
      .cls-1 {
        fill: none;
      }

      .cls-2 {
        clip-path: url(#clippath-1);
      }

      .cls-3 {
        fill: #231f20;
      }

      .cls-4 {
        fill: #829ca3;
      }

      .cls-5 {
        clip-path: url(#clippath);
      }
    </style>
    <clipPath id="clippath">
      <rect class="cls-1" x="1.23" y="43.88" width="287.18" height="284.76"/>
    </clipPath>
    <clipPath id="clippath-1">
      <path class="cls-4" d="M136.37,233.84v-.4c.53,0,1.06,0,1.58-.03v.4c-.53.01-1.06.03-1.58.03ZM134.77,233.83c-.53,0-1.07-.03-1.6-.05v-.4c.54.03,1.07.05,1.62.05v.4h-.02ZM139.58,233.73v-.4c.51-.03,1.04-.06,1.57-.11l.03.4c-.53.05-1.07.08-1.6.11ZM131.57,233.68c-.53-.03-1.07-.08-1.6-.15l.03-.4c.53.05,1.06.1,1.58.15l-.03.4h.02ZM142.78,233.46l-.05-.4c.53-.06,1.06-.13,1.59-.19l.05.4c-.53.08-1.05.15-1.59.19ZM128.37,233.38c-.53-.06-1.06-.15-1.58-.22l.06-.4c.53.08,1.06.15,1.58.22l-.05.4h-.02ZM145.95,233.02l-.06-.4c.53-.08,1.04-.17,1.57-.29l.08.4c-.53.09-1.05.19-1.59.29ZM125.2,232.9c-.53-.1-1.06-.19-1.58-.3l.08-.4c.53.11,1.04.21,1.57.3l-.06.4ZM149.1,232.4l-.08-.38c.53-.12,1.04-.24,1.55-.37l.1.39c-.51.13-1.04.26-1.57.37ZM122.05,232.24c-.53-.13-1.04-.26-1.55-.39l.1-.38c.51.13,1.02.26,1.55.38l-.1.39ZM152.22,231.63l-.11-.38c.51-.15,1.02-.29,1.53-.45l.12.38c-.51.16-1.02.3-1.54.45ZM118.95,231.42c-.51-.15-1.02-.3-1.54-.46l.13-.39c.51.16,1.01.32,1.52.47l-.11.38ZM155.27,230.69l-.13-.39c.5-.17,1.01-.35,1.5-.53l.15.37c-.49.19-1.01.37-1.52.53v.02ZM115.9,230.43c-.51-.18-1.01-.37-1.5-.56l.14-.37c.5.19.99.37,1.5.54l-.13.39h-.02ZM158.29,229.58l-.15-.37c.5-.19.98-.4,1.47-.61l.16.37c-.5.21-.98.42-1.47.61h-.01ZM112.89,229.29c-.5-.21-.99-.42-1.47-.64l.16-.37c.48.22.98.43,1.47.62l-.16.37h0ZM161.22,228.32l-.16-.37c.48-.22.96-.44,1.44-.69l.17.35c-.48.24-.96.46-1.44.69h-.02ZM109.95,227.98c-.48-.22-.96-.46-1.44-.71l.18-.35c.48.24.94.48,1.44.71l-.18.37h0ZM164.1,226.89l-.19-.35c.46-.24.93-.5,1.39-.75l.19.35c-.46.26-.93.51-1.41.77h.01ZM107.08,226.52c-.46-.26-.94-.51-1.41-.78l.19-.35c.46.28.93.53,1.39.79l-.19.35h.02ZM166.9,225.34l-.21-.33c.44-.27.91-.55,1.36-.83l.21.33c-.45.29-.91.56-1.36.83ZM104.3,224.91c-.46-.29-.91-.56-1.36-.87l.22-.33c.45.29.9.58,1.34.85l-.21.34h0ZM169.6,223.63l-.23-.34c.45-.29.88-.59,1.32-.89l.22.32c-.43.3-.88.61-1.31.91ZM101.62,223.15c-.45-.3-.88-.61-1.31-.93l.24-.32c.43.32.86.62,1.3.93l-.22.34h0ZM172.21,221.77l-.24-.32c.44-.32.85-.64,1.27-.98l.26.32c-.42.33-.85.66-1.27.98h-.01ZM99.02,221.26c-.43-.32-.85-.66-1.26-1l.26-.3c.42.33.83.67,1.25.99l-.24.32h0ZM174.72,219.77l-.26-.3c.4-.34.82-.69,1.22-1.04l.26.3c-.4.35-.8.71-1.22,1.04ZM96.53,219.22c-.4-.35-.8-.71-1.2-1.05l.27-.3c.4.35.8.7,1.2,1.05l-.26.3h-.02ZM177.13,217.65l-.27-.29c.38-.37.76-.73,1.15-1.11l.27.29c-.38.37-.77.73-1.17,1.11h.02ZM94.15,217.07c-.38-.37-.77-.73-1.15-1.12l.29-.29c.37.38.75.75,1.14,1.12l-.27.29ZM179.42,215.4l-.29-.28c.37-.38.73-.77,1.09-1.17l.29.28c-.37.4-.73.78-1.1,1.17h.01ZM91.89,214.79c-.37-.39-.74-.79-1.09-1.18l.3-.28c.35.4.72.79,1.07,1.17l-.29.27v.02ZM181.6,213.04l-.3-.26c.35-.4.69-.8,1.04-1.22l.3.26c-.34.42-.69.82-1.04,1.23h0ZM89.75,212.4c-.35-.4-.69-.82-1.02-1.23l.32-.26c.34.42.67.83,1.01,1.23l-.3.26ZM183.64,210.56l-.32-.24c.32-.42.66-.85.96-1.27l.32.24c-.32.43-.64.86-.98,1.28v-.02ZM87.75,209.9c-.32-.43-.64-.85-.96-1.3l.32-.24c.3.43.62.86.94,1.28l-.32.24h.02ZM185.55,207.98l-.32-.22c.3-.44.6-.88.89-1.32l.33.22c-.3.45-.59.9-.91,1.33h0ZM85.88,207.29c-.3-.45-.59-.88-.88-1.35l.34-.21c.29.45.58.9.88,1.33l-.34.23ZM187.32,205.29l-.34-.21c.29-.45.56-.91.83-1.36l.35.21c-.27.46-.54.93-.83,1.38h-.01ZM84.15,204.6c-.27-.46-.54-.91-.82-1.38l.35-.19c.26.46.53.91.8,1.37l-.34.21h0ZM188.95,202.52l-.35-.19c.25-.46.51-.93.75-1.41l.35.19c-.24.48-.5.95-.75,1.43h0ZM82.55,201.82c-.26-.46-.5-.95-.74-1.43l.35-.17c.24.48.48.94.74,1.41l-.35.19ZM190.42,199.67l-.35-.17c.24-.48.46-.96.67-1.45l.37.16c-.22.49-.45.98-.69,1.46ZM81.13,198.95c-.22-.48-.45-.98-.66-1.46l.37-.16c.21.48.43.98.66,1.45l-.37.17ZM191.75,196.73l-.37-.16c.21-.49.4-.99.59-1.49l.37.15c-.19.5-.4,1-.61,1.49v.02ZM79.85,196.02c-.21-.5-.4-1-.59-1.49l.37-.15c.19.5.38.99.58,1.49l-.37.15h.02ZM192.92,193.73l-.39-.13c.18-.5.35-1.01.53-1.52l.39.13c-.16.51-.34,1.02-.53,1.52ZM78.71,193.01c-.18-.51-.34-1.01-.5-1.52l.38-.13c.16.51.32,1.01.5,1.52l-.38.13ZM193.92,190.67l-.38-.12c.16-.51.3-1.02.43-1.54l.38.12c-.14.51-.29,1.02-.44,1.54h.01ZM77.75,189.93c-.14-.51-.29-1.02-.42-1.55l.38-.1c.13.51.27,1.03.42,1.54l-.38.11ZM194.76,187.56l-.38-.1c.13-.51.24-1.04.35-1.55l.39.08c-.11.53-.22,1.04-.35,1.57ZM76.95,186.83c-.11-.53-.22-1.04-.34-1.57l.4-.08c.11.53.22,1.04.34,1.55l-.38.1h-.02ZM195.44,184.43l-.4-.08c.09-.53.19-1.04.27-1.57l.4.06c-.08.53-.18,1.06-.28,1.59ZM76.31,183.67c-.1-.53-.18-1.05-.26-1.59l.4-.06c.08.53.16,1.06.26,1.57l-.4.06h0ZM195.94,181.25l-.4-.05c.06-.53.13-1.06.19-1.59l.4.05c-.07.53-.12,1.07-.19,1.6h0ZM75.85,180.5c-.06-.53-.13-1.05-.18-1.6l.4-.03c.05.53.11,1.05.16,1.58l-.4.05h.02ZM196.27,178.05l-.4-.03c.05-.53.08-1.06.09-1.59h.4c-.03.56-.06,1.09-.11,1.62h.01ZM75.56,177.3c-.03-.53-.06-1.07-.08-1.6h.4c.02.51.05,1.04.08,1.59l-.4.03h0ZM196.43,174.85h-.4c0-.54.01-1.07.01-1.6h.4c0,.55,0,1.07-.02,1.6ZM75.43,174.1v-1.61h.4v1.61h-.4ZM196.07,173.17c0-.53,0-1.07-.01-1.6h.4c0,.53.01,1.06.01,1.6h-.4ZM75.87,170.89h-.4c.02-.55.05-1.09.08-1.61l.4.03c-.03.53-.06,1.06-.08,1.6h0ZM195.97,169.97c-.03-.53-.06-1.06-.11-1.59l.4-.03c.05.53.08,1.07.11,1.61h-.4ZM76.07,167.71l-.4-.03c.05-.53.11-1.07.16-1.6l.4.05c-.06.53-.11,1.06-.16,1.59ZM195.72,166.79c-.07-.53-.12-1.05-.19-1.59l.4-.05c.06.53.13,1.06.19,1.61l-.4.04h0ZM76.44,164.55l-.4-.06c.08-.53.16-1.05.26-1.59l.4.07c-.1.53-.18,1.04-.26,1.57h0ZM195.3,163.62c-.08-.53-.18-1.05-.28-1.57l.4-.08c.1.53.19,1.06.27,1.59l-.4.06ZM76.99,161.4l-.4-.08c.11-.53.22-1.05.34-1.57l.38.08c-.11.51-.22,1.04-.34,1.57h.02ZM194.71,160.5c-.11-.53-.22-1.04-.35-1.55l.39-.1c.13.51.24,1.04.35,1.57l-.39.08ZM77.69,158.29l-.38-.09c.13-.51.27-1.04.42-1.56l.38.11c-.14.51-.29,1.02-.42,1.54ZM193.96,157.4c-.15-.51-.29-1.02-.44-1.54l.39-.11c.16.51.3,1.02.44,1.54l-.38.11h-.01ZM78.57,155.21l-.38-.11c.16-.51.34-1.02.5-1.54l.38.13c-.18.5-.34,1.01-.5,1.52ZM193.04,154.33c-.16-.51-.33-1.01-.53-1.5l.38-.13c.18.5.35,1.01.53,1.52l-.39.13v-.02ZM79.61,152.19l-.37-.14c.19-.5.38-1.01.58-1.51l.37.15c-.19.5-.4.99-.58,1.49h0ZM191.96,151.34c-.19-.5-.4-.99-.59-1.47l.37-.16c.21.5.4.99.61,1.49l-.37.15h-.02ZM80.81,149.23l-.37-.16c.21-.5.43-.98.66-1.47l.37.17c-.22.48-.45.96-.66,1.46ZM190.72,148.41c-.22-.48-.44-.96-.67-1.44l.35-.18c.24.48.46.96.69,1.46l-.37.16ZM82.15,146.33l-.35-.17c.24-.48.48-.96.74-1.43l.35.19c-.26.46-.5.94-.74,1.43v-.02ZM189.34,145.55c-.24-.46-.5-.95-.75-1.41l.35-.19c.26.46.51.94.75,1.41l-.35.19ZM83.66,143.51l-.35-.19c.27-.46.54-.93.82-1.39l.34.21c-.27.45-.54.91-.8,1.38ZM187.8,142.76c-.27-.46-.54-.91-.83-1.36l.34-.21c.29.45.56.91.83,1.38l-.35.21v-.02ZM85.32,140.77l-.34-.21c.29-.45.59-.9.88-1.35l.34.22c-.3.43-.59.88-.88,1.33ZM186.11,140.05c-.29-.45-.59-.88-.9-1.31l.34-.22c.3.43.6.88.89,1.33l-.33.22v-.02ZM87.11,138.13l-.32-.24c.32-.43.62-.86.96-1.3l.32.24c-.32.42-.64.85-.94,1.28l-.02.02ZM184.28,137.44c-.32-.43-.64-.85-.96-1.27l.32-.24c.34.42.66.85.98,1.28l-.32.24-.02-.02ZM89.05,135.58l-.32-.26c.34-.42.67-.83,1.02-1.23l.3.26c-.34.4-.69.82-1.01,1.23ZM182.32,134.93c-.34-.42-.69-.82-1.03-1.22l.3-.26c.35.4.7.82,1.04,1.22l-.3.26h-.01ZM91.09,133.15l-.3-.27c.35-.4.72-.8,1.09-1.19l.29.27c-.37.38-.72.78-1.07,1.17v.02ZM180.24,132.53c-.35-.38-.72-.78-1.09-1.15l.29-.27c.37.38.73.77,1.1,1.17l-.29.27v-.02ZM93.28,130.83l-.29-.29c.38-.38.75-.75,1.15-1.12l.27.29c-.38.37-.77.74-1.14,1.12ZM178.01,130.24c-.39-.37-.77-.74-1.15-1.1l.27-.29c.4.37.78.74,1.17,1.1l-.27.29h-.01ZM95.59,128.63l-.27-.3c.4-.35.8-.72,1.2-1.06l.26.3c-.4.35-.8.7-1.2,1.06h.02ZM175.68,128.07c-.4-.35-.8-.7-1.22-1.04l.26-.3c.42.34.82.69,1.22,1.04l-.26.3ZM98,126.55l-.26-.3c.42-.34.83-.67,1.26-.99l.24.32c-.42.32-.83.66-1.25.99v-.02ZM173.23,126.02c-.42-.34-.83-.66-1.27-.98l.24-.32c.43.32.85.66,1.26.98l-.26.32h.02ZM100.53,124.6l-.24-.32c.43-.32.86-.62,1.31-.93l.22.34c-.43.3-.86.61-1.3.93v-.02ZM170.67,124.1c-.43-.3-.86-.61-1.31-.91l.22-.34c.45.3.88.61,1.33.91l-.22.32-.02.02ZM103.15,122.79l-.22-.34c.45-.29.9-.58,1.36-.86l.21.34c-.45.27-.9.56-1.34.85v.02ZM168.03,122.33c-.45-.29-.9-.56-1.36-.83l.21-.34c.46.27.91.56,1.38.85l-.21.34v-.02ZM105.85,121.12l-.19-.35c.46-.27.93-.53,1.39-.78l.19.35c-.46.26-.93.51-1.39.78ZM165.28,120.69c-.46-.26-.93-.51-1.41-.77l.19-.35c.48.26.94.51,1.41.77l-.19.35ZM108.65,119.6l-.18-.35c.48-.24.96-.48,1.44-.7l.18.37c-.48.22-.96.46-1.42.7l-.02-.02ZM162.45,119.2c-.48-.24-.96-.46-1.44-.69l.16-.37c.48.22.98.45,1.46.69l-.18.35v.02ZM111.51,118.23l-.16-.37c.48-.22.98-.43,1.47-.62l.16.37c-.5.21-.98.42-1.46.62h-.02ZM159.55,117.87c-.49-.21-.97-.42-1.47-.61l.15-.37c.49.19.99.4,1.48.61l-.16.37ZM114.46,117.01l-.14-.37c.5-.19,1.01-.38,1.5-.56l.13.38c-.5.18-1.01.35-1.5.54h.02ZM156.58,116.69c-.49-.18-1.01-.35-1.5-.53l.13-.38c.51.18,1.02.35,1.52.53l-.15.37v.02ZM117.46,115.95l-.13-.38c.51-.16,1.02-.32,1.54-.48l.11.38c-.51.14-1.02.3-1.52.46v.02ZM153.55,115.66c-.51-.16-1.02-.3-1.54-.45l.11-.38c.51.14,1.02.29,1.54.45l-.11.38ZM120.52,115.06l-.1-.38c.51-.13,1.04-.27,1.55-.38l.1.38c-.51.13-1.04.26-1.55.38ZM150.48,114.82c-.51-.13-1.02-.26-1.55-.37l.08-.38c.53.11,1.04.24,1.57.37l-.09.38ZM123.62,114.32l-.08-.4c.53-.11,1.04-.21,1.57-.3l.06.4c-.53.1-1.04.19-1.57.3h.02ZM147.37,114.13c-.53-.1-1.04-.19-1.57-.27l.06-.4c.53.08,1.05.18,1.58.29l-.08.4v-.02ZM126.76,113.74l-.06-.4c.53-.08,1.06-.16,1.58-.22l.05.4c-.53.06-1.06.14-1.58.22h.02ZM144.22,113.61c-.53-.08-1.05-.14-1.58-.19l.05-.4c.53.06,1.05.13,1.6.19l-.05.4h-.01ZM129.92,113.34l-.03-.4c.53-.05,1.06-.1,1.6-.14l.03.4c-.53.03-1.06.08-1.58.14h-.02ZM141.05,113.26c-.53-.05-1.06-.08-1.58-.11v-.4c.56.03,1.09.06,1.63.11l-.03.4h-.02ZM133.09,113.12v-.4c.51-.03,1.06-.05,1.58-.05v.4c-.53,0-1.06.03-1.58.05ZM137.87,113.09c-.53-.02-1.06-.03-1.6-.03v-.4c.54,0,1.07,0,1.6.03v.4Z"/>
    </clipPath>
  </defs>
  <g class="cls-5">
    <path class="cls-4" d="M131.76,252.25c-41.85,0-75.9-34.04-75.9-75.9s34.04-75.9,75.9-75.9,75.9,34.04,75.9,75.9-34.04,75.9-75.9,75.9ZM131.76,108.92c-37.17,0-67.42,30.24-67.42,67.42s30.24,67.42,67.42,67.42,67.42-30.24,67.42-67.42-30.24-67.42-67.42-67.42Z"/>
    <g>
      <path class="cls-4" d="M136.37,233.84v-.4c.53,0,1.06,0,1.58-.03v.4c-.53.01-1.06.03-1.58.03ZM134.77,233.83c-.53,0-1.07-.03-1.6-.05v-.4c.54.03,1.07.05,1.62.05v.4h-.02ZM139.58,233.73v-.4c.51-.03,1.04-.06,1.57-.11l.03.4c-.53.05-1.07.08-1.6.11ZM131.57,233.68c-.53-.03-1.07-.08-1.6-.15l.03-.4c.53.05,1.06.1,1.58.15l-.03.4h.02ZM142.78,233.46l-.05-.4c.53-.06,1.06-.13,1.59-.19l.05.4c-.53.08-1.05.15-1.59.19ZM128.37,233.38c-.53-.06-1.06-.15-1.58-.22l.06-.4c.53.08,1.06.15,1.58.22l-.05.4h-.02ZM145.95,233.02l-.06-.4c.53-.08,1.04-.17,1.57-.29l.08.4c-.53.09-1.05.19-1.59.29ZM125.2,232.9c-.53-.1-1.06-.19-1.58-.3l.08-.4c.53.11,1.04.21,1.57.3l-.06.4ZM149.1,232.4l-.08-.38c.53-.12,1.04-.24,1.55-.37l.1.39c-.51.13-1.04.26-1.57.37ZM122.05,232.24c-.53-.13-1.04-.26-1.55-.39l.1-.38c.51.13,1.02.26,1.55.38l-.1.39ZM152.22,231.63l-.11-.38c.51-.15,1.02-.29,1.53-.45l.12.38c-.51.16-1.02.3-1.54.45ZM118.95,231.42c-.51-.15-1.02-.3-1.54-.46l.13-.39c.51.16,1.01.32,1.52.47l-.11.38ZM155.27,230.69l-.13-.39c.5-.17,1.01-.35,1.5-.53l.15.37c-.49.19-1.01.37-1.52.53v.02ZM115.9,230.43c-.51-.18-1.01-.37-1.5-.56l.14-.37c.5.19.99.37,1.5.54l-.13.39h-.02ZM158.29,229.58l-.15-.37c.5-.19.98-.4,1.47-.61l.16.37c-.5.21-.98.42-1.47.61h-.01ZM112.89,229.29c-.5-.21-.99-.42-1.47-.64l.16-.37c.48.22.98.43,1.47.62l-.16.37h0ZM161.22,228.32l-.16-.37c.48-.22.96-.44,1.44-.69l.17.35c-.48.24-.96.46-1.44.69h-.02ZM109.95,227.98c-.48-.22-.96-.46-1.44-.71l.18-.35c.48.24.94.48,1.44.71l-.18.37h0ZM164.1,226.89l-.19-.35c.46-.24.93-.5,1.39-.75l.19.35c-.46.26-.93.51-1.41.77h.01ZM107.08,226.52c-.46-.26-.94-.51-1.41-.78l.19-.35c.46.28.93.53,1.39.79l-.19.35h.02ZM166.9,225.34l-.21-.33c.44-.27.91-.55,1.36-.83l.21.33c-.45.29-.91.56-1.36.83ZM104.3,224.91c-.46-.29-.91-.56-1.36-.87l.22-.33c.45.29.9.58,1.34.85l-.21.34h0ZM169.6,223.63l-.23-.34c.45-.29.88-.59,1.32-.89l.22.32c-.43.3-.88.61-1.31.91ZM101.62,223.15c-.45-.3-.88-.61-1.31-.93l.24-.32c.43.32.86.62,1.3.93l-.22.34h0ZM172.21,221.77l-.24-.32c.44-.32.85-.64,1.27-.98l.26.32c-.42.33-.85.66-1.27.98h-.01ZM99.02,221.26c-.43-.32-.85-.66-1.26-1l.26-.3c.42.33.83.67,1.25.99l-.24.32h0ZM174.72,219.77l-.26-.3c.4-.34.82-.69,1.22-1.04l.26.3c-.4.35-.8.71-1.22,1.04ZM96.53,219.22c-.4-.35-.8-.71-1.2-1.05l.27-.3c.4.35.8.7,1.2,1.05l-.26.3h-.02ZM177.13,217.65l-.27-.29c.38-.37.76-.73,1.15-1.11l.27.29c-.38.37-.77.73-1.17,1.11h.02ZM94.15,217.07c-.38-.37-.77-.73-1.15-1.12l.29-.29c.37.38.75.75,1.14,1.12l-.27.29ZM179.42,215.4l-.29-.28c.37-.38.73-.77,1.09-1.17l.29.28c-.37.4-.73.78-1.1,1.17h.01ZM91.89,214.79c-.37-.39-.74-.79-1.09-1.18l.3-.28c.35.4.72.79,1.07,1.17l-.29.27v.02ZM181.6,213.04l-.3-.26c.35-.4.69-.8,1.04-1.22l.3.26c-.34.42-.69.82-1.04,1.23h0ZM89.75,212.4c-.35-.4-.69-.82-1.02-1.23l.32-.26c.34.42.67.83,1.01,1.23l-.3.26ZM183.64,210.56l-.32-.24c.32-.42.66-.85.96-1.27l.32.24c-.32.43-.64.86-.98,1.28v-.02ZM87.75,209.9c-.32-.43-.64-.85-.96-1.3l.32-.24c.3.43.62.86.94,1.28l-.32.24h.02ZM185.55,207.98l-.32-.22c.3-.44.6-.88.89-1.32l.33.22c-.3.45-.59.9-.91,1.33h0ZM85.88,207.29c-.3-.45-.59-.88-.88-1.35l.34-.21c.29.45.58.9.88,1.33l-.34.23ZM187.32,205.29l-.34-.21c.29-.45.56-.91.83-1.36l.35.21c-.27.46-.54.93-.83,1.38h-.01ZM84.15,204.6c-.27-.46-.54-.91-.82-1.38l.35-.19c.26.46.53.91.8,1.37l-.34.21h0ZM188.95,202.52l-.35-.19c.25-.46.51-.93.75-1.41l.35.19c-.24.48-.5.95-.75,1.43h0ZM82.55,201.82c-.26-.46-.5-.95-.74-1.43l.35-.17c.24.48.48.94.74,1.41l-.35.19ZM190.42,199.67l-.35-.17c.24-.48.46-.96.67-1.45l.37.16c-.22.49-.45.98-.69,1.46ZM81.13,198.95c-.22-.48-.45-.98-.66-1.46l.37-.16c.21.48.43.98.66,1.45l-.37.17ZM191.75,196.73l-.37-.16c.21-.49.4-.99.59-1.49l.37.15c-.19.5-.4,1-.61,1.49v.02ZM79.85,196.02c-.21-.5-.4-1-.59-1.49l.37-.15c.19.5.38.99.58,1.49l-.37.15h.02ZM192.92,193.73l-.39-.13c.18-.5.35-1.01.53-1.52l.39.13c-.16.51-.34,1.02-.53,1.52ZM78.71,193.01c-.18-.51-.34-1.01-.5-1.52l.38-.13c.16.51.32,1.01.5,1.52l-.38.13ZM193.92,190.67l-.38-.12c.16-.51.3-1.02.43-1.54l.38.12c-.14.51-.29,1.02-.44,1.54h.01ZM77.75,189.93c-.14-.51-.29-1.02-.42-1.55l.38-.1c.13.51.27,1.03.42,1.54l-.38.11ZM194.76,187.56l-.38-.1c.13-.51.24-1.04.35-1.55l.39.08c-.11.53-.22,1.04-.35,1.57ZM76.95,186.83c-.11-.53-.22-1.04-.34-1.57l.4-.08c.11.53.22,1.04.34,1.55l-.38.1h-.02ZM195.44,184.43l-.4-.08c.09-.53.19-1.04.27-1.57l.4.06c-.08.53-.18,1.06-.28,1.59ZM76.31,183.67c-.1-.53-.18-1.05-.26-1.59l.4-.06c.08.53.16,1.06.26,1.57l-.4.06h0ZM195.94,181.25l-.4-.05c.06-.53.13-1.06.19-1.59l.4.05c-.07.53-.12,1.07-.19,1.6h0ZM75.85,180.5c-.06-.53-.13-1.05-.18-1.6l.4-.03c.05.53.11,1.05.16,1.58l-.4.05h.02ZM196.27,178.05l-.4-.03c.05-.53.08-1.06.09-1.59h.4c-.03.56-.06,1.09-.11,1.62h.01ZM75.56,177.3c-.03-.53-.06-1.07-.08-1.6h.4c.02.51.05,1.04.08,1.59l-.4.03h0ZM196.43,174.85h-.4c0-.54.01-1.07.01-1.6h.4c0,.55,0,1.07-.02,1.6ZM75.43,174.1v-1.61h.4v1.61h-.4ZM196.07,173.17c0-.53,0-1.07-.01-1.6h.4c0,.53.01,1.06.01,1.6h-.4ZM75.87,170.89h-.4c.02-.55.05-1.09.08-1.61l.4.03c-.03.53-.06,1.06-.08,1.6h0ZM195.97,169.97c-.03-.53-.06-1.06-.11-1.59l.4-.03c.05.53.08,1.07.11,1.61h-.4ZM76.07,167.71l-.4-.03c.05-.53.11-1.07.16-1.6l.4.05c-.06.53-.11,1.06-.16,1.59ZM195.72,166.79c-.07-.53-.12-1.05-.19-1.59l.4-.05c.06.53.13,1.06.19,1.61l-.4.04h0ZM76.44,164.55l-.4-.06c.08-.53.16-1.05.26-1.59l.4.07c-.1.53-.18,1.04-.26,1.57h0ZM195.3,163.62c-.08-.53-.18-1.05-.28-1.57l.4-.08c.1.53.19,1.06.27,1.59l-.4.06ZM76.99,161.4l-.4-.08c.11-.53.22-1.05.34-1.57l.38.08c-.11.51-.22,1.04-.34,1.57h.02ZM194.71,160.5c-.11-.53-.22-1.04-.35-1.55l.39-.1c.13.51.24,1.04.35,1.57l-.39.08ZM77.69,158.29l-.38-.09c.13-.51.27-1.04.42-1.56l.38.11c-.14.51-.29,1.02-.42,1.54ZM193.96,157.4c-.15-.51-.29-1.02-.44-1.54l.39-.11c.16.51.3,1.02.44,1.54l-.38.11h-.01ZM78.57,155.21l-.38-.11c.16-.51.34-1.02.5-1.54l.38.13c-.18.5-.34,1.01-.5,1.52ZM193.04,154.33c-.16-.51-.33-1.01-.53-1.5l.38-.13c.18.5.35,1.01.53,1.52l-.39.13v-.02ZM79.61,152.19l-.37-.14c.19-.5.38-1.01.58-1.51l.37.15c-.19.5-.4.99-.58,1.49h0ZM191.96,151.34c-.19-.5-.4-.99-.59-1.47l.37-.16c.21.5.4.99.61,1.49l-.37.15h-.02ZM80.81,149.23l-.37-.16c.21-.5.43-.98.66-1.47l.37.17c-.22.48-.45.96-.66,1.46ZM190.72,148.41c-.22-.48-.44-.96-.67-1.44l.35-.18c.24.48.46.96.69,1.46l-.37.16ZM82.15,146.33l-.35-.17c.24-.48.48-.96.74-1.43l.35.19c-.26.46-.5.94-.74,1.43v-.02ZM189.34,145.55c-.24-.46-.5-.95-.75-1.41l.35-.19c.26.46.51.94.75,1.41l-.35.19ZM83.66,143.51l-.35-.19c.27-.46.54-.93.82-1.39l.34.21c-.27.45-.54.91-.8,1.38ZM187.8,142.76c-.27-.46-.54-.91-.83-1.36l.34-.21c.29.45.56.91.83,1.38l-.35.21v-.02ZM85.32,140.77l-.34-.21c.29-.45.59-.9.88-1.35l.34.22c-.3.43-.59.88-.88,1.33ZM186.11,140.05c-.29-.45-.59-.88-.9-1.31l.34-.22c.3.43.6.88.89,1.33l-.33.22v-.02ZM87.11,138.13l-.32-.24c.32-.43.62-.86.96-1.3l.32.24c-.32.42-.64.85-.94,1.28l-.02.02ZM184.28,137.44c-.32-.43-.64-.85-.96-1.27l.32-.24c.34.42.66.85.98,1.28l-.32.24-.02-.02ZM89.05,135.58l-.32-.26c.34-.42.67-.83,1.02-1.23l.3.26c-.34.4-.69.82-1.01,1.23ZM182.32,134.93c-.34-.42-.69-.82-1.03-1.22l.3-.26c.35.4.7.82,1.04,1.22l-.3.26h-.01ZM91.09,133.15l-.3-.27c.35-.4.72-.8,1.09-1.19l.29.27c-.37.38-.72.78-1.07,1.17v.02ZM180.24,132.53c-.35-.38-.72-.78-1.09-1.15l.29-.27c.37.38.73.77,1.1,1.17l-.29.27v-.02ZM93.28,130.83l-.29-.29c.38-.38.75-.75,1.15-1.12l.27.29c-.38.37-.77.74-1.14,1.12ZM178.01,130.24c-.39-.37-.77-.74-1.15-1.1l.27-.29c.4.37.78.74,1.17,1.1l-.27.29h-.01ZM95.59,128.63l-.27-.3c.4-.35.8-.72,1.2-1.06l.26.3c-.4.35-.8.7-1.2,1.06h.02ZM175.68,128.07c-.4-.35-.8-.7-1.22-1.04l.26-.3c.42.34.82.69,1.22,1.04l-.26.3ZM98,126.55l-.26-.3c.42-.34.83-.67,1.26-.99l.24.32c-.42.32-.83.66-1.25.99v-.02ZM173.23,126.02c-.42-.34-.83-.66-1.27-.98l.24-.32c.43.32.85.66,1.26.98l-.26.32h.02ZM100.53,124.6l-.24-.32c.43-.32.86-.62,1.31-.93l.22.34c-.43.3-.86.61-1.3.93v-.02ZM170.67,124.1c-.43-.3-.86-.61-1.31-.91l.22-.34c.45.3.88.61,1.33.91l-.22.32-.02.02ZM103.15,122.79l-.22-.34c.45-.29.9-.58,1.36-.86l.21.34c-.45.27-.9.56-1.34.85v.02ZM168.03,122.33c-.45-.29-.9-.56-1.36-.83l.21-.34c.46.27.91.56,1.38.85l-.21.34v-.02ZM105.85,121.12l-.19-.35c.46-.27.93-.53,1.39-.78l.19.35c-.46.26-.93.51-1.39.78ZM165.28,120.69c-.46-.26-.93-.51-1.41-.77l.19-.35c.48.26.94.51,1.41.77l-.19.35ZM108.65,119.6l-.18-.35c.48-.24.96-.48,1.44-.7l.18.37c-.48.22-.96.46-1.42.7l-.02-.02ZM162.45,119.2c-.48-.24-.96-.46-1.44-.69l.16-.37c.48.22.98.45,1.46.69l-.18.35v.02ZM111.51,118.23l-.16-.37c.48-.22.98-.43,1.47-.62l.16.37c-.5.21-.98.42-1.46.62h-.02ZM159.55,117.87c-.49-.21-.97-.42-1.47-.61l.15-.37c.49.19.99.4,1.48.61l-.16.37ZM114.46,117.01l-.14-.37c.5-.19,1.01-.38,1.5-.56l.13.38c-.5.18-1.01.35-1.5.54h.02ZM156.58,116.69c-.49-.18-1.01-.35-1.5-.53l.13-.38c.51.18,1.02.35,1.52.53l-.15.37v.02ZM117.46,115.95l-.13-.38c.51-.16,1.02-.32,1.54-.48l.11.38c-.51.14-1.02.3-1.52.46v.02ZM153.55,115.66c-.51-.16-1.02-.3-1.54-.45l.11-.38c.51.14,1.02.29,1.54.45l-.11.38ZM120.52,115.06l-.1-.38c.51-.13,1.04-.27,1.55-.38l.1.38c-.51.13-1.04.26-1.55.38ZM150.48,114.82c-.51-.13-1.02-.26-1.55-.37l.08-.38c.53.11,1.04.24,1.57.37l-.09.38ZM123.62,114.32l-.08-.4c.53-.11,1.04-.21,1.57-.3l.06.4c-.53.1-1.04.19-1.57.3h.02ZM147.37,114.13c-.53-.1-1.04-.19-1.57-.27l.06-.4c.53.08,1.05.18,1.58.29l-.08.4v-.02ZM126.76,113.74l-.06-.4c.53-.08,1.06-.16,1.58-.22l.05.4c-.53.06-1.06.14-1.58.22h.02ZM144.22,113.61c-.53-.08-1.05-.14-1.58-.19l.05-.4c.53.06,1.05.13,1.6.19l-.05.4h-.01ZM129.92,113.34l-.03-.4c.53-.05,1.06-.1,1.6-.14l.03.4c-.53.03-1.06.08-1.58.14h-.02ZM141.05,113.26c-.53-.05-1.06-.08-1.58-.11v-.4c.56.03,1.09.06,1.63.11l-.03.4h-.02ZM133.09,113.12v-.4c.51-.03,1.06-.05,1.58-.05v.4c-.53,0-1.06.03-1.58.05ZM137.87,113.09c-.53-.02-1.06-.03-1.6-.03v-.4c.54,0,1.07,0,1.6.03v.4Z"/>
      <g class="cls-2">
        <rect class="cls-4" x="136.27" y="112.65" width="1.6" height=".43"/>
        <rect class="cls-4" x="133.09" y="112.67" width="1.58" height=".45"/>
        <rect class="cls-4" x="133.09" y="113.12" width="1.58" height="0"/>
        <rect class="cls-4" x="139.47" y="112.75" width="1.63" height=".37"/>
        <rect class="cls-4" x="139.47" y="113.12" width="1.63" height=".15"/>
        <rect class="cls-4" x="129.89" y="112.8" width="1.63" height=".32"/>
        <rect class="cls-4" x="129.89" y="113.12" width="1.63" height=".23"/>
        <rect class="cls-4" x="142.64" y="113.02" width="1.64" height=".09"/>
        <rect class="cls-4" x="142.64" y="113.12" width="1.64" height=".46"/>
        <rect class="cls-4" x="142.64" y="113.58" width="1.64" height=".04"/>
        <rect class="cls-4" x="126.69" y="113.12" width="1.63" height=".46"/>
        <rect class="cls-4" x="126.69" y="113.58" width="1.63" height=".16"/>
        <rect class="cls-4" x="145.8" y="113.45" width="1.64" height=".12"/>
        <rect class="cls-4" x="145.8" y="113.58" width="1.64" height=".46"/>
        <rect class="cls-4" x="145.8" y="114.04" width="1.64" height=".1"/>
        <rect class="cls-4" x="123.54" y="113.61" width="1.63" height=".43"/>
        <rect class="cls-4" x="123.54" y="114.04" width="1.63" height=".28"/>
        <rect class="cls-4" x="148.92" y="114.06" width="1.64" height=".44"/>
        <rect class="cls-4" x="148.92" y="114.5" width="1.64" height=".31"/>
        <rect class="cls-4" x="120.42" y="114.29" width="1.65" height=".22"/>
        <rect class="cls-4" x="120.42" y="114.5" width="1.65" height=".46"/>
        <rect class="cls-4" x="120.42" y="114.97" width="1.65" height=".09"/>
        <rect class="cls-4" x="152.01" y="114.83" width="1.65" height=".14"/>
        <rect class="cls-4" x="152.01" y="114.97" width="1.65" height=".46"/>
        <rect class="cls-4" x="152.01" y="115.43" width="1.65" height=".23"/>
        <rect class="cls-4" x="117.34" y="115.09" width="1.65" height=".34"/>
        <rect class="cls-4" x="117.34" y="115.43" width="1.65" height=".46"/>
        <rect class="cls-4" x="117.34" y="115.89" width="1.65" height=".06"/>
        <rect class="cls-4" x="155.08" y="115.78" width="1.65" height=".12"/>
        <rect class="cls-4" x="155.08" y="115.89" width="1.65" height=".46"/>
        <rect class="cls-4" x="155.08" y="116.36" width="1.65" height=".33"/>
        <rect class="cls-4" x="114.31" y="116.08" width="1.63" height=".27"/>
        <rect class="cls-4" x="114.31" y="116.36" width="1.63" height=".46"/>
        <rect class="cls-4" x="114.31" y="116.82" width="1.63" height=".19"/>
        <rect class="cls-4" x="158.09" y="116.9" width="1.63" height=".38"/>
        <rect class="cls-4" x="158.09" y="117.28" width="1.63" height=".46"/>
        <rect class="cls-4" x="158.09" y="117.74" width="1.63" height=".13"/>
        <rect class="cls-4" x="111.35" y="117.23" width="1.63" height=".05"/>
        <rect class="cls-4" x="111.35" y="117.28" width="1.63" height=".46"/>
        <rect class="cls-4" x="111.35" y="117.74" width="1.63" height=".46"/>
        <rect class="cls-4" x="111.35" y="118.21" width="1.63" height=".02"/>
        <rect class="cls-4" x="161.01" y="118.15" width="1.62" height=".06"/>
        <rect class="cls-4" x="161.01" y="118.21" width="1.62" height=".46"/>
        <rect class="cls-4" x="161.01" y="118.67" width="1.62" height=".46"/>
        <rect class="cls-4" x="161.01" y="119.13" width="1.62" height=".07"/>
        <rect class="cls-4" x="108.48" y="118.55" width="1.62" height=".12"/>
        <rect class="cls-4" x="108.48" y="118.67" width="1.62" height=".46"/>
        <rect class="cls-4" x="108.48" y="119.13" width="1.62" height=".46"/>
        <rect class="cls-4" x="108.48" y="119.59" width="1.62" height=".03"/>
        <rect class="cls-4" x="163.88" y="119.57" width="1.6" height=".02"/>
        <rect class="cls-4" x="163.88" y="119.59" width="1.6" height=".46"/>
        <rect class="cls-4" x="163.88" y="120.06" width="1.6" height=".46"/>
        <rect class="cls-4" x="163.88" y="120.52" width="1.6" height=".17"/>
        <rect class="cls-4" x="105.66" y="119.99" width="1.58" height=".07"/>
        <rect class="cls-4" x="105.66" y="120.06" width="1.58" height=".46"/>
        <rect class="cls-4" x="105.66" y="120.52" width="1.58" height=".46"/>
        <rect class="cls-4" x="105.66" y="120.98" width="1.58" height=".14"/>
        <rect class="cls-4" x="166.67" y="121.16" width="1.59" height=".29"/>
        <rect class="cls-4" x="166.67" y="121.45" width="1.59" height=".46"/>
        <rect class="cls-4" x="166.67" y="121.91" width="1.59" height=".43"/>
        <rect class="cls-4" x="102.93" y="121.59" width="1.57" height=".32"/>
        <rect class="cls-4" x="102.93" y="121.91" width="1.57" height=".46"/>
        <rect class="cls-4" x="102.93" y="122.37" width="1.57" height=".42"/>
        <rect class="cls-4" x="169.36" y="122.85" width="1.55" height=".44"/>
        <rect class="cls-4" x="169.36" y="123.3" width="1.55" height=".46"/>
        <rect class="cls-4" x="169.36" y="123.76" width="1.55" height=".34"/>
        <rect class="cls-4" x="100.29" y="123.35" width="1.54" height=".41"/>
        <rect class="cls-4" x="100.29" y="123.76" width="1.54" height=".46"/>
        <rect class="cls-4" x="100.29" y="124.22" width="1.54" height=".39"/>
        <rect class="cls-4" x="171.97" y="124.73" width="1.5" height=".42"/>
        <rect class="cls-4" x="171.97" y="125.15" width="1.5" height=".46"/>
        <rect class="cls-4" x="171.97" y="125.61" width="1.5" height=".41"/>
        <rect class="cls-4" x="97.75" y="125.26" width="1.5" height=".35"/>
        <rect class="cls-4" x="97.75" y="125.61" width="1.5" height=".46"/>
        <rect class="cls-4" x="97.75" y="126.07" width="1.5" height=".46"/>
        <rect class="cls-4" x="97.75" y="126.54" width="1.5" height=".03"/>
        <rect class="cls-4" x="174.46" y="126.73" width="1.47" height=".27"/>
        <rect class="cls-4" x="174.46" y="127" width="1.47" height=".46"/>
        <rect class="cls-4" x="174.46" y="127.46" width="1.47" height=".46"/>
        <rect class="cls-4" x="174.46" y="127.92" width="1.47" height=".15"/>
        <rect class="cls-4" x="95.31" y="127.27" width="1.46" height=".19"/>
        <rect class="cls-4" x="95.31" y="127.46" width="1.46" height=".46"/>
        <rect class="cls-4" x="95.31" y="127.92" width="1.46" height=".46"/>
        <rect class="cls-4" x="95.31" y="128.39" width="1.46" height=".25"/>
        <rect class="cls-4" x="176.86" y="128.84" width="1.44" height="0"/>
        <rect class="cls-4" x="176.86" y="128.85" width="1.44" height=".46"/>
        <rect class="cls-4" x="176.86" y="129.31" width="1.44" height=".46"/>
        <rect class="cls-4" x="176.86" y="129.77" width="1.44" height=".46"/>
        <rect class="cls-4" x="93" y="129.42" width="1.42" height=".35"/>
        <rect class="cls-4" x="93" y="129.77" width="1.42" height=".46"/>
        <rect class="cls-4" x="93" y="130.24" width="1.42" height=".46"/>
        <rect class="cls-4" x="93" y="130.7" width="1.42" height=".13"/>
        <rect class="cls-4" x="179.15" y="131.1" width="1.39" height=".06"/>
        <rect class="cls-4" x="179.15" y="131.16" width="1.39" height=".46"/>
        <rect class="cls-4" x="179.15" y="131.63" width="1.39" height=".46"/>
        <rect class="cls-4" x="179.15" y="132.09" width="1.39" height=".45"/>
        <rect class="cls-4" x="90.79" y="131.69" width="1.38" height=".39"/>
        <rect class="cls-4" x="90.79" y="132.09" width="1.38" height=".46"/>
        <rect class="cls-4" x="90.79" y="132.55" width="1.38" height=".46"/>
        <rect class="cls-4" x="90.79" y="133.01" width="1.38" height=".14"/>
        <rect class="cls-4" x="181.29" y="133.46" width="1.34" height=".02"/>
        <rect class="cls-4" x="181.29" y="133.48" width="1.34" height=".46"/>
        <rect class="cls-4" x="181.29" y="133.94" width="1.34" height=".46"/>
        <rect class="cls-4" x="181.29" y="134.4" width="1.34" height=".46"/>
        <rect class="cls-4" x="181.29" y="134.86" width="1.34" height=".06"/>
        <rect class="cls-4" x="88.73" y="134.1" width="1.33" height=".31"/>
        <rect class="cls-4" x="88.73" y="134.4" width="1.33" height=".46"/>
        <rect class="cls-4" x="88.73" y="134.86" width="1.33" height=".46"/>
        <rect class="cls-4" x="88.73" y="135.33" width="1.33" height=".26"/>
        <rect class="cls-4" x="183.32" y="135.94" width="1.3" height=".32"/>
        <rect class="cls-4" x="183.32" y="136.25" width="1.3" height=".46"/>
        <rect class="cls-4" x="183.32" y="136.72" width="1.3" height=".46"/>
        <rect class="cls-4" x="183.32" y="137.18" width="1.3" height=".28"/>
        <rect class="cls-4" x="86.79" y="136.59" width="1.28" height=".12"/>
        <rect class="cls-4" x="86.79" y="136.72" width="1.28" height=".46"/>
        <rect class="cls-4" x="86.79" y="137.18" width="1.28" height=".46"/>
        <rect class="cls-4" x="86.79" y="137.64" width="1.28" height=".46"/>
        <rect class="cls-4" x="86.79" y="138.1" width="1.28" height=".03"/>
        <rect class="cls-4" x="185.21" y="138.52" width="1.23" height=".05"/>
        <rect class="cls-4" x="185.21" y="138.56" width="1.23" height=".46"/>
        <rect class="cls-4" x="185.21" y="139.02" width="1.23" height=".46"/>
        <rect class="cls-4" x="185.21" y="139.47" width="1.23" height=".46"/>
        <rect class="cls-4" x="185.21" y="139.93" width="1.23" height=".14"/>
        <rect class="cls-4" x="84.98" y="139.22" width="1.22" height=".25"/>
        <rect class="cls-4" x="84.98" y="139.47" width="1.22" height=".46"/>
        <rect class="cls-4" x="84.98" y="139.93" width="1.22" height=".46"/>
        <rect class="cls-4" x="84.98" y="140.39" width="1.22" height=".39"/>
        <rect class="cls-4" x="186.97" y="141.19" width="1.17" height=".11"/>
        <rect class="cls-4" x="186.97" y="141.3" width="1.17" height=".46"/>
        <rect class="cls-4" x="186.97" y="141.76" width="1.17" height=".46"/>
        <rect class="cls-4" x="186.97" y="142.22" width="1.17" height=".46"/>
        <rect class="cls-4" x="186.97" y="142.67" width="1.17" height=".1"/>
        <rect class="cls-4" x="83.3" y="141.93" width="1.15" height=".29"/>
        <rect class="cls-4" x="83.3" y="142.22" width="1.15" height=".46"/>
        <rect class="cls-4" x="83.3" y="142.67" width="1.15" height=".46"/>
        <rect class="cls-4" x="83.3" y="143.13" width="1.15" height=".38"/>
        <rect class="cls-4" x="188.58" y="143.94" width="1.1" height=".1"/>
        <rect class="cls-4" x="188.58" y="144.04" width="1.1" height=".46"/>
        <rect class="cls-4" x="188.58" y="144.5" width="1.1" height=".46"/>
        <rect class="cls-4" x="188.58" y="144.96" width="1.1" height=".46"/>
        <rect class="cls-4" x="188.58" y="145.41" width="1.1" height=".13"/>
        <rect class="cls-4" x="81.8" y="144.73" width="1.09" height=".23"/>
        <rect class="cls-4" x="81.8" y="144.96" width="1.09" height=".46"/>
        <rect class="cls-4" x="81.8" y="145.41" width="1.09" height=".46"/>
        <rect class="cls-4" x="81.8" y="145.87" width="1.09" height=".46"/>
        <rect class="cls-4" x="81.8" y="146.33" width="1.09" height=".02"/>
        <rect class="cls-4" x="190.06" y="146.79" width="1.04" height=".45"/>
        <rect class="cls-4" x="190.06" y="147.24" width="1.04" height=".46"/>
        <rect class="cls-4" x="190.06" y="147.7" width="1.04" height=".46"/>
        <rect class="cls-4" x="190.06" y="148.16" width="1.04" height=".26"/>
        <rect class="cls-4" x="80.44" y="147.6" width="1.02" height=".1"/>
        <rect class="cls-4" x="80.44" y="147.7" width="1.02" height=".46"/>
        <rect class="cls-4" x="80.44" y="148.16" width="1.02" height=".46"/>
        <rect class="cls-4" x="80.44" y="148.61" width="1.02" height=".46"/>
        <rect class="cls-4" x="80.44" y="149.07" width="1.02" height=".16"/>
        <rect class="cls-4" x="191.37" y="149.71" width=".98" height=".28"/>
        <rect class="cls-4" x="191.37" y="149.98" width=".98" height=".46"/>
        <rect class="cls-4" x="191.37" y="150.44" width=".98" height=".46"/>
        <rect class="cls-4" x="191.37" y="150.9" width=".98" height=".44"/>
        <rect class="cls-4" x="79.24" y="150.54" width=".94" height=".36"/>
        <rect class="cls-4" x="79.24" y="150.9" width=".94" height=".46"/>
        <rect class="cls-4" x="79.24" y="151.35" width=".94" height=".46"/>
        <rect class="cls-4" x="79.24" y="151.81" width=".94" height=".38"/>
        <rect class="cls-4" x="192.52" y="152.7" width=".91" height=".02"/>
        <rect class="cls-4" x="192.52" y="152.73" width=".91" height=".46"/>
        <rect class="cls-4" x="192.52" y="153.18" width=".91" height=".46"/>
        <rect class="cls-4" x="192.52" y="153.64" width=".91" height=".46"/>
        <rect class="cls-4" x="192.52" y="154.1" width=".91" height=".26"/>
        <rect class="cls-4" x="78.19" y="153.57" width=".88" height=".07"/>
        <rect class="cls-4" x="78.19" y="153.64" width=".88" height=".46"/>
        <rect class="cls-4" x="78.19" y="154.1" width=".88" height=".46"/>
        <rect class="cls-4" x="78.19" y="154.55" width=".88" height=".46"/>
        <rect class="cls-4" x="78.19" y="155.01" width=".88" height=".2"/>
        <rect class="cls-4" x="193.52" y="155.75" width=".83" height=".18"/>
        <rect class="cls-4" x="193.52" y="155.92" width=".83" height=".46"/>
        <rect class="cls-4" x="193.52" y="156.38" width=".83" height=".46"/>
        <rect class="cls-4" x="193.52" y="156.84" width=".83" height=".46"/>
        <rect class="cls-4" x="193.52" y="157.29" width=".83" height=".1"/>
        <rect class="cls-4" x="77.31" y="156.64" width=".8" height=".2"/>
        <rect class="cls-4" x="77.31" y="156.84" width=".8" height=".46"/>
        <rect class="cls-4" x="77.31" y="157.29" width=".8" height=".46"/>
        <rect class="cls-4" x="77.31" y="157.75" width=".8" height=".46"/>
        <rect class="cls-4" x="77.31" y="158.21" width=".8" height=".08"/>
        <rect class="cls-4" x="194.35" y="158.85" width=".74" height=".27"/>
        <rect class="cls-4" x="194.35" y="159.12" width=".74" height=".46"/>
        <rect class="cls-4" x="194.35" y="159.58" width=".74" height=".46"/>
        <rect class="cls-4" x="194.35" y="160.04" width=".74" height=".46"/>
        <rect class="cls-4" x="194.35" y="160.49" width=".74" height="0"/>
        <rect class="cls-4" x="76.59" y="159.75" width=".72" height=".29"/>
        <rect class="cls-4" x="76.59" y="160.04" width=".72" height=".46"/>
        <rect class="cls-4" x="76.59" y="160.49" width=".72" height=".46"/>
        <rect class="cls-4" x="76.59" y="160.95" width=".72" height=".45"/>
        <rect class="cls-4" x="195.03" y="161.97" width=".67" height=".35"/>
        <rect class="cls-4" x="195.03" y="162.32" width=".67" height=".46"/>
        <rect class="cls-4" x="195.03" y="162.78" width=".67" height=".46"/>
        <rect class="cls-4" x="195.03" y="163.23" width=".67" height=".39"/>
        <rect class="cls-4" x="76.04" y="162.9" width=".66" height=".33"/>
        <rect class="cls-4" x="76.04" y="163.23" width=".66" height=".46"/>
        <rect class="cls-4" x="76.04" y="163.69" width=".66" height=".46"/>
        <rect class="cls-4" x="76.04" y="164.15" width=".66" height=".4"/>
        <rect class="cls-4" x="195.53" y="165.16" width=".59" height=".36"/>
        <rect class="cls-4" x="195.53" y="165.52" width=".59" height=".46"/>
        <rect class="cls-4" x="195.53" y="165.98" width=".59" height=".38"/>
        <rect class="cls-4" x="195.53" y="166.36" width=".59" height=".38"/>
        <rect class="cls-4" x="195.53" y="166.74" width=".59" height=".07"/>
        <rect class="cls-4" x="75.67" y="166.07" width=".56" height=".29"/>
        <rect class="cls-4" x="75.67" y="166.36" width=".56" height=".38"/>
        <rect class="cls-4" x="75.67" y="166.74" width=".56" height=".38"/>
        <rect class="cls-4" x="75.67" y="167.12" width=".56" height=".38"/>
        <rect class="cls-4" x="75.67" y="167.51" width=".56" height=".2"/>
        <rect class="cls-4" x="195.86" y="168.35" width=".51" height=".31"/>
        <rect class="cls-4" x="195.86" y="168.66" width=".51" height=".38"/>
        <rect class="cls-4" x="195.86" y="169.04" width=".51" height=".38"/>
        <rect class="cls-4" x="195.86" y="169.42" width=".51" height=".38"/>
        <rect class="cls-4" x="195.86" y="169.8" width=".51" height=".16"/>
        <rect class="cls-4" x="75.47" y="169.28" width=".48" height=".14"/>
        <rect class="cls-4" x="75.47" y="169.42" width=".48" height=".38"/>
        <rect class="cls-4" x="75.47" y="169.8" width=".48" height=".38"/>
        <rect class="cls-4" x="75.47" y="170.19" width=".48" height=".38"/>
        <rect class="cls-4" x="75.47" y="170.57" width=".48" height=".34"/>
        <rect class="cls-4" x="196.05" y="171.57" width=".42" height=".15"/>
        <rect class="cls-4" x="196.05" y="171.72" width=".42" height=".38"/>
        <rect class="cls-4" x="196.05" y="172.1" width=".42" height=".38"/>
        <rect class="cls-4" x="196.05" y="172.48" width=".42" height=".38"/>
        <rect class="cls-4" x="196.05" y="172.86" width=".42" height=".3"/>
        <rect class="cls-4" x="75.43" y="172.49" width=".4" height=".37"/>
        <rect class="cls-4" x="75.43" y="172.86" width=".4" height=".38"/>
        <rect class="cls-4" x="75.43" y="173.25" width=".4" height=".39"/>
        <rect class="cls-4" x="75.43" y="173.64" width=".4" height=".39"/>
        <rect class="cls-4" x="75.43" y="174.02" width=".4" height=".08"/>
        <rect class="cls-4" x="196.04" y="173.25" width=".42" height=".39"/>
        <rect class="cls-4" x="196.04" y="173.64" width=".42" height=".39"/>
        <rect class="cls-4" x="196.04" y="174.02" width=".42" height=".39"/>
        <rect class="cls-4" x="196.04" y="174.41" width=".42" height=".39"/>
        <rect class="cls-4" x="196.04" y="174.8" width=".42" height=".05"/>
        <rect class="cls-4" x="75.48" y="175.7" width=".48" height=".26"/>
        <rect class="cls-4" x="75.48" y="175.96" width=".48" height=".39"/>
        <rect class="cls-4" x="75.48" y="176.35" width=".48" height=".39"/>
        <rect class="cls-4" x="75.48" y="176.74" width=".48" height=".39"/>
        <rect class="cls-4" x="75.48" y="177.13" width=".48" height=".19"/>
        <rect class="cls-4" x="195.88" y="176.43" width=".49" height=".3"/>
        <rect class="cls-4" x="195.88" y="176.74" width=".49" height=".39"/>
        <rect class="cls-4" x="195.88" y="177.13" width=".49" height=".39"/>
        <rect class="cls-4" x="195.88" y="177.51" width=".49" height=".39"/>
        <rect class="cls-4" x="195.88" y="177.9" width=".49" height=".15"/>
        <rect class="cls-4" x="75.67" y="178.87" width=".56" height=".19"/>
        <rect class="cls-4" x="75.67" y="179.06" width=".56" height=".39"/>
        <rect class="cls-4" x="75.67" y="179.45" width=".56" height=".39"/>
        <rect class="cls-4" x="75.67" y="179.84" width=".56" height=".39"/>
        <rect class="cls-4" x="75.67" y="180.23" width=".56" height=".27"/>
        <rect class="cls-4" x="195.54" y="179.62" width=".59" height=".22"/>
        <rect class="cls-4" x="195.54" y="179.84" width=".59" height=".39"/>
        <rect class="cls-4" x="195.54" y="180.23" width=".59" height=".39"/>
        <rect class="cls-4" x="195.54" y="180.62" width=".59" height=".39"/>
        <rect class="cls-4" x="195.54" y="181" width=".59" height=".27"/>
        <rect class="cls-4" x="76.06" y="182.02" width=".66" height=".14"/>
        <rect class="cls-4" x="76.06" y="182.17" width=".66" height=".39"/>
        <rect class="cls-4" x="76.06" y="182.55" width=".66" height=".39"/>
        <rect class="cls-4" x="76.06" y="182.94" width=".66" height=".39"/>
        <rect class="cls-4" x="76.06" y="183.33" width=".66" height=".34"/>
        <rect class="cls-4" x="195.05" y="182.78" width=".67" height=".17"/>
        <rect class="cls-4" x="195.05" y="182.94" width=".67" height=".39"/>
        <rect class="cls-4" x="195.05" y="183.33" width=".67" height=".39"/>
        <rect class="cls-4" x="195.05" y="183.72" width=".67" height=".39"/>
        <rect class="cls-4" x="195.05" y="184.11" width=".67" height=".32"/>
        <rect class="cls-4" x="76.62" y="185.18" width=".74" height=".09"/>
        <rect class="cls-4" x="76.62" y="185.27" width=".74" height=".39"/>
        <rect class="cls-4" x="76.62" y="185.66" width=".74" height=".39"/>
        <rect class="cls-4" x="76.62" y="186.04" width=".74" height=".39"/>
        <rect class="cls-4" x="76.62" y="186.43" width=".74" height=".39"/>
        <rect class="cls-4" x="76.62" y="186.82" width=".74" height="0"/>
        <rect class="cls-4" x="194.37" y="185.91" width=".73" height=".13"/>
        <rect class="cls-4" x="194.37" y="186.04" width=".73" height=".39"/>
        <rect class="cls-4" x="194.37" y="186.43" width=".73" height=".39"/>
        <rect class="cls-4" x="194.37" y="186.82" width=".73" height=".39"/>
        <rect class="cls-4" x="194.37" y="187.21" width=".73" height=".36"/>
        <rect class="cls-4" x="77.34" y="188.28" width=".8" height=".09"/>
        <rect class="cls-4" x="77.34" y="188.37" width=".8" height=".39"/>
        <rect class="cls-4" x="77.34" y="188.76" width=".8" height=".39"/>
        <rect class="cls-4" x="77.34" y="189.15" width=".8" height=".39"/>
        <rect class="cls-4" x="77.34" y="189.54" width=".8" height=".39"/>
        <rect class="cls-4" x="77.34" y="189.92" width=".8" height="0"/>
        <rect class="cls-4" x="193.54" y="189.02" width=".81" height=".13"/>
        <rect class="cls-4" x="193.54" y="189.15" width=".81" height=".39"/>
        <rect class="cls-4" x="193.54" y="189.54" width=".81" height=".39"/>
        <rect class="cls-4" x="193.54" y="189.92" width=".81" height=".39"/>
        <rect class="cls-4" x="193.54" y="190.31" width=".81" height=".36"/>
        <rect class="cls-4" x="78.22" y="191.36" width=".88" height=".12"/>
        <rect class="cls-4" x="78.22" y="191.47" width=".88" height=".39"/>
        <rect class="cls-4" x="78.22" y="191.86" width=".88" height=".39"/>
        <rect class="cls-4" x="78.22" y="192.25" width=".88" height=".39"/>
        <rect class="cls-4" x="78.22" y="192.64" width=".88" height=".37"/>
        <rect class="cls-4" x="192.53" y="192.08" width=".91" height=".17"/>
        <rect class="cls-4" x="192.53" y="192.25" width=".91" height=".39"/>
        <rect class="cls-4" x="192.53" y="192.64" width=".91" height=".57"/>
        <rect class="cls-4" x="192.53" y="193.21" width=".91" height=".52"/>
        <rect class="cls-4" x="79.26" y="194.39" width=".94" height=".55"/>
        <rect class="cls-4" x="79.26" y="194.93" width=".94" height=".57"/>
        <rect class="cls-4" x="79.26" y="195.51" width=".94" height=".51"/>
        <rect class="cls-4" x="191.38" y="195.07" width=".96" height=".44"/>
        <rect class="cls-4" x="191.38" y="195.51" width=".96" height=".57"/>
        <rect class="cls-4" x="191.38" y="196.08" width=".96" height=".57"/>
        <rect class="cls-4" x="191.38" y="196.66" width=".96" height=".07"/>
        <rect class="cls-4" x="80.47" y="197.33" width="1.02" height=".47"/>
        <rect class="cls-4" x="80.47" y="197.8" width="1.02" height=".57"/>
        <rect class="cls-4" x="80.47" y="198.38" width="1.02" height=".57"/>
        <rect class="cls-4" x="190.07" y="198.05" width="1.04" height=".33"/>
        <rect class="cls-4" x="190.07" y="198.38" width="1.04" height=".57"/>
        <rect class="cls-4" x="190.07" y="198.95" width="1.04" height=".57"/>
        <rect class="cls-4" x="190.07" y="199.53" width="1.04" height=".14"/>
        <rect class="cls-4" x="81.82" y="200.22" width="1.09" height=".46"/>
        <rect class="cls-4" x="81.82" y="200.67" width="1.09" height=".57"/>
        <rect class="cls-4" x="81.82" y="201.25" width="1.09" height=".57"/>
        <rect class="cls-4" x="188.6" y="200.92" width="1.1" height=".33"/>
        <rect class="cls-4" x="188.6" y="201.25" width="1.1" height=".57"/>
        <rect class="cls-4" x="188.6" y="201.82" width="1.1" height=".57"/>
        <rect class="cls-4" x="188.6" y="202.4" width="1.1" height=".14"/>
        <rect class="cls-4" x="83.34" y="203.03" width="1.15" height=".51"/>
        <rect class="cls-4" x="83.34" y="203.54" width="1.15" height=".65"/>
        <rect class="cls-4" x="83.34" y="204.19" width="1.15" height=".42"/>
        <rect class="cls-4" x="186.98" y="203.72" width="1.18" height=".47"/>
        <rect class="cls-4" x="186.98" y="204.19" width="1.18" height=".65"/>
        <rect class="cls-4" x="186.98" y="204.84" width="1.18" height=".47"/>
        <rect class="cls-4" x="85" y="205.74" width="1.22" height=".39"/>
        <rect class="cls-4" x="85" y="206.13" width="1.22" height=".65"/>
        <rect class="cls-4" x="85" y="206.78" width="1.22" height=".52"/>
        <rect class="cls-4" x="185.23" y="206.44" width="1.23" height=".33"/>
        <rect class="cls-4" x="185.23" y="206.78" width="1.23" height=".65"/>
        <rect class="cls-4" x="185.23" y="207.42" width="1.23" height=".57"/>
        <rect class="cls-4" x="86.79" y="208.37" width="1.26" height=".35"/>
        <rect class="cls-4" x="86.79" y="208.72" width="1.26" height=".65"/>
        <rect class="cls-4" x="86.79" y="209.36" width="1.26" height=".54"/>
        <rect class="cls-4" x="183.32" y="209.05" width="1.28" height=".31"/>
        <rect class="cls-4" x="183.32" y="209.36" width="1.28" height=".65"/>
        <rect class="cls-4" x="183.32" y="210.01" width="1.28" height=".57"/>
        <rect class="cls-4" x="88.73" y="210.91" width="1.33" height=".39"/>
        <rect class="cls-4" x="88.73" y="211.3" width="1.33" height=".65"/>
        <rect class="cls-4" x="88.73" y="211.95" width="1.33" height=".45"/>
        <rect class="cls-4" x="181.29" y="211.57" width="1.34" height=".38"/>
        <rect class="cls-4" x="181.29" y="211.95" width="1.34" height=".65"/>
        <rect class="cls-4" x="181.29" y="212.59" width="1.34" height=".46"/>
        <rect class="cls-4" x="90.8" y="213.33" width="1.38" height=".88"/>
        <rect class="cls-4" x="90.8" y="214.21" width="1.38" height=".58"/>
        <rect class="cls-4" x="179.13" y="213.95" width="1.38" height=".26"/>
        <rect class="cls-4" x="179.13" y="214.21" width="1.38" height=".97"/>
        <rect class="cls-4" x="179.13" y="215.18" width="1.38" height=".22"/>
        <rect class="cls-4" x="93" y="215.67" width="1.42" height=".48"/>
        <rect class="cls-4" x="93" y="216.15" width="1.42" height=".93"/>
        <rect class="cls-4" x="176.86" y="216.26" width="1.42" height=".86"/>
        <rect class="cls-4" x="176.86" y="217.12" width="1.42" height=".54"/>
        <rect class="cls-4" x="95.33" y="217.86" width="1.47" height=".22"/>
        <rect class="cls-4" x="95.33" y="218.09" width="1.47" height=".97"/>
        <rect class="cls-4" x="95.33" y="219.06" width="1.47" height=".16"/>
        <rect class="cls-4" x="174.46" y="218.42" width="1.47" height=".63"/>
        <rect class="cls-4" x="174.46" y="219.06" width="1.47" height=".71"/>
        <rect class="cls-4" x="97.76" y="219.96" width="1.5" height=".07"/>
        <rect class="cls-4" x="97.76" y="220.03" width="1.5" height=".97"/>
        <rect class="cls-4" x="97.76" y="221" width="1.5" height=".28"/>
        <rect class="cls-4" x="171.97" y="220.47" width="1.52" height=".53"/>
        <rect class="cls-4" x="171.97" y="221" width="1.52" height=".77"/>
        <rect class="cls-4" x="100.3" y="221.89" width="1.54" height=".07"/>
        <rect class="cls-4" x="100.3" y="221.96" width="1.54" height=".97"/>
        <rect class="cls-4" x="100.3" y="222.93" width="1.54" height=".23"/>
        <rect class="cls-4" x="169.37" y="222.39" width="1.54" height=".54"/>
        <rect class="cls-4" x="169.37" y="222.93" width="1.54" height=".69"/>
        <rect class="cls-4" x="102.94" y="223.71" width="1.57" height="1.2"/>
        <rect class="cls-4" x="166.69" y="224.17" width="1.57" height="1.17"/>
        <rect class="cls-4" x="105.68" y="225.39" width="1.58" height=".28"/>
        <rect class="cls-4" x="105.68" y="225.66" width="1.58" height=".86"/>
        <rect class="cls-4" x="163.91" y="225.79" width="1.59" height="1.12"/>
        <rect class="cls-4" x="108.51" y="226.92" width="1.62" height="1.07"/>
        <rect class="cls-4" x="161.06" y="227.26" width="1.61" height="1.05"/>
        <rect class="cls-4" x="111.42" y="228.29" width="1.63" height=".1"/>
        <rect class="cls-4" x="111.42" y="228.39" width="1.63" height=".9"/>
        <rect class="cls-4" x="158.15" y="228.61" width="1.63" height=".98"/>
        <rect class="cls-4" x="114.39" y="229.5" width="1.65" height=".93"/>
        <rect class="cls-4" x="155.14" y="229.78" width="1.65" height=".91"/>
        <rect class="cls-4" x="117.42" y="230.57" width="1.65" height=".54"/>
        <rect class="cls-4" x="117.42" y="231.11" width="1.65" height=".31"/>
        <rect class="cls-4" x="152.1" y="230.8" width="1.65" height=".31"/>
        <rect class="cls-4" x="152.1" y="231.11" width="1.65" height=".52"/>
        <rect class="cls-4" x="120.5" y="231.47" width="1.65" height=".77"/>
        <rect class="cls-4" x="149.02" y="231.65" width="1.65" height=".75"/>
        <rect class="cls-4" x="123.62" y="232.19" width="1.65" height=".71"/>
        <rect class="cls-4" x="145.88" y="232.34" width="1.65" height=".69"/>
        <rect class="cls-4" x="126.79" y="232.75" width="1.65" height=".62"/>
        <rect class="cls-4" x="142.73" y="232.86" width="1.63" height=".59"/>
        <rect class="cls-4" x="129.97" y="233.14" width="1.62" height=".55"/>
        <rect class="cls-4" x="139.58" y="233.22" width="1.6" height=".51"/>
        <rect class="cls-4" x="133.17" y="233.38" width="1.62" height=".45"/>
        <rect class="cls-4" x="136.37" y="233.41" width="1.58" height=".43"/>
      </g>
    </g>
    <path class="cls-4" d="M134.67,264.94c-.54,0-1.07-.01-1.62-.03-.45,0-.78-.38-.77-.83,0-.45.43-.8.83-.77.53.01,1.06.03,1.58.03.45,0,.8.37.78.82,0,.43-.37.78-.8.78h-.02ZM139.47,264.88c-.43,0-.78-.34-.8-.77-.02-.45.32-.82.77-.84,6.35-.24,12.67-1.15,18.79-2.72.43-.11.86.15.97.58.12.43-.14.86-.58.98-6.22,1.59-12.65,2.51-19.11,2.77h-.05ZM123.52,264.11h-.11c-.53-.08-1.07-.15-1.6-.24-.43-.06-.74-.48-.67-.91.06-.43.46-.73.91-.67.53.08,1.04.16,1.57.22.43.07.74.47.69.9-.05.4-.4.69-.78.69v.02ZM111.02,261.48s-.14,0-.22-.03c-6.19-1.76-12.22-4.21-17.91-7.26-.38-.21-.54-.69-.34-1.09.21-.38.69-.54,1.09-.33,5.6,2.99,11.51,5.38,17.61,7.13.43.13.67.56.54.99-.1.35-.42.58-.77.58h0ZM169.07,258.71c-.32,0-.62-.19-.75-.51-.16-.42.05-.88.44-1.04.5-.19.98-.38,1.47-.59.4-.16.88.03,1.04.43.16.42-.03.88-.43,1.04-.5.21-1,.4-1.49.61-.1.03-.19.05-.29.05h0ZM179.21,253.98c-.29,0-.56-.14-.71-.42-.21-.38-.06-.88.32-1.09.46-.26.93-.51,1.39-.77.38-.22.88-.08,1.09.3.22.39.08.88-.3,1.09-.46.26-.93.53-1.41.79-.13.06-.26.09-.38.09ZM89.08,251.92c-.14,0-.29-.03-.42-.11-.46-.27-.91-.56-1.38-.85-.37-.24-.48-.73-.26-1.1.24-.37.74-.48,1.1-.26.45.29.9.56,1.36.83.38.22.5.72.27,1.11-.14.26-.42.38-.69.38ZM184.71,250.73c-.25,0-.53-.13-.67-.37-.24-.37-.13-.87.24-1.11,5.34-3.41,10.33-7.4,14.84-11.85.32-.3.82-.3,1.14,0,.3.32.3.82,0,1.14-4.59,4.53-9.68,8.6-15.1,12.06-.13.08-.29.13-.43.13h-.02ZM79.88,245.55c-.18,0-.35-.05-.5-.18-.42-.33-.85-.67-1.26-1.01-.34-.28-.4-.78-.11-1.12.29-.34.78-.4,1.12-.11.42.33.82.67,1.23.99.35.27.4.77.13,1.12-.16.21-.4.3-.62.3h.02ZM70.41,236.95c-.21,0-.42-.08-.58-.24-4.46-4.66-8.44-9.8-11.83-15.3-.24-.37-.11-.86.26-1.1s.86-.11,1.1.26c3.33,5.4,7.24,10.44,11.63,15.02.3.32.29.83-.02,1.14-.16.15-.35.22-.56.22ZM207.15,230.45c-.17,0-.35-.07-.49-.18-.35-.27-.4-.78-.13-1.12.34-.42.66-.83.98-1.25.27-.35.77-.42,1.12-.15.35.27.42.77.15,1.12-.32.43-.66.85-1,1.28-.16.19-.38.3-.62.3h0ZM213.55,221.25c-.15,0-.29-.03-.42-.11-.39-.22-.5-.72-.28-1.1.28-.45.55-.91.82-1.36.22-.38.71-.51,1.09-.29.38.23.51.73.29,1.09-.28.46-.55.93-.83,1.39-.15.24-.42.38-.69.38h.02ZM56.26,217.65c-.29,0-.56-.15-.7-.42-.26-.46-.51-.94-.77-1.43-.21-.38-.05-.88.34-1.07.38-.21.88-.05,1.07.34.24.46.5.93.75,1.39.21.39.06.88-.32,1.09-.13.07-.26.1-.38.1h.02ZM216.68,215.66c-.13,0-.26-.03-.37-.09-.4-.21-.55-.69-.35-1.07,2.91-5.64,5.21-11.61,6.86-17.73.11-.43.56-.67.98-.56.43.11.67.56.56.98-1.68,6.23-4.03,12.3-6.99,18.03-.15.27-.42.43-.7.43h.01ZM51.51,207.52c-.32,0-.62-.19-.74-.51-.19-.5-.38-1.01-.58-1.51-.16-.42.05-.88.46-1.02.42-.16.88.05,1.02.46.19.5.38,1,.58,1.47.16.42-.03.88-.45,1.04-.1.03-.19.07-.29.07h-.02ZM47.65,195.31c-.37,0-.69-.24-.78-.61-1.5-6.25-2.33-12.7-2.49-19.18,0-.45.34-.82.78-.82.48,0,.82.33.82.78.16,6.36.98,12.7,2.45,18.85.1.43-.16.86-.59.96-.06,0-.13.02-.19.02h.02ZM225.84,186.81h-.11c-.43-.06-.73-.46-.67-.91.08-.53.15-1.04.21-1.57.05-.44.45-.75.9-.71.43.05.75.45.7.89-.06.55-.13,1.07-.21,1.61-.06.4-.4.69-.78.69h-.03ZM226.71,175.65c-.45,0-.8-.37-.78-.82v-1.58c0-6.28-.66-12.56-1.93-18.64-.1-.43.19-.87.62-.94.43-.1.86.19.94.62,1.3,6.2,1.97,12.57,1.97,18.96v1.61c0,.43-.37.78-.8.78h-.01ZM45.19,171.5h-.02c-.45,0-.78-.39-.78-.82,0-.55.03-1.07.06-1.62.02-.45.42-.78.83-.77.45.01.78.4.77.83-.02.53-.05,1.06-.06,1.59,0,.44-.37.79-.8.79ZM46.18,160.35h-.13c-.43-.06-.74-.48-.67-.91.08-.53.16-1.05.26-1.6.08-.43.48-.72.93-.66.43.08.74.48.66.93-.08.53-.18,1.04-.26,1.57-.06.4-.4.69-.78.69v-.02ZM48.98,147.87s-.16,0-.22-.03c-.42-.13-.66-.58-.54-.99,1.86-6.18,4.37-12.17,7.48-17.84.21-.38.7-.53,1.09-.32.38.21.53.7.32,1.09-3.07,5.56-5.53,11.45-7.36,17.52-.1.35-.42.58-.77.58ZM221.82,144.45c-.34,0-.64-.21-.75-.54-.17-.5-.35-.99-.53-1.49-.15-.42.06-.88.48-1.02.42-.14.88.06,1.02.48.17.51.37,1.01.55,1.52.14.42-.08.88-.5,1.02-.08.03-.17.05-.26.05v-.02ZM217.53,134.11c-.29,0-.58-.16-.72-.45-.24-.48-.46-.94-.7-1.41-.21-.4-.05-.88.35-1.07.38-.21.88-.05,1.07.35.24.48.48.96.72,1.44.19.4.03.88-.37,1.07-.11.06-.24.08-.35.08v-.02ZM214.52,128.47c-.27,0-.54-.14-.69-.4-3.18-5.48-6.94-10.63-11.21-15.34-.3-.32-.27-.83.05-1.14.32-.3.83-.27,1.14.05,4.34,4.79,8.17,10.04,11.41,15.61.22.38.09.86-.29,1.09-.13.08-.27.11-.4.11v.02ZM58.83,126.04c-.14,0-.29-.03-.42-.13-.37-.24-.5-.72-.26-1.1.29-.46.58-.91.86-1.36.24-.37.74-.48,1.1-.24.37.24.48.74.24,1.1-.29.45-.58.9-.85,1.35-.14.24-.42.38-.67.38h-.02ZM65.33,116.91c-.18,0-.35-.06-.5-.18-.34-.27-.4-.78-.11-1.12.34-.42.69-.83,1.02-1.25.29-.34.78-.38,1.12-.1.34.29.38.78.1,1.12-.34.4-.67.82-1.01,1.23-.16.19-.38.3-.62.3v-.02ZM74.04,107.54c-.21,0-.43-.08-.59-.26-.3-.32-.29-.83.03-1.14,4.72-4.4,9.92-8.33,15.43-11.63.38-.22.86-.11,1.1.27.22.38.11.86-.27,1.1-5.42,3.25-10.52,7.11-15.16,11.43-.16.14-.35.21-.54.21ZM195.2,105.17c-.19,0-.37-.06-.53-.19-.4-.35-.8-.69-1.21-1.02-.34-.29-.39-.78-.1-1.12.29-.34.78-.38,1.12-.1.42.35.83.69,1.23,1.04.34.29.37.8.08,1.14-.16.18-.39.27-.61.27v-.02ZM186.3,98.4c-.16,0-.3-.05-.45-.13-.44-.29-.88-.59-1.32-.86-.37-.24-.48-.74-.24-1.11.24-.37.73-.48,1.1-.24.45.29.9.59,1.34.88.37.24.46.74.23,1.11-.16.22-.4.35-.67.35h.01ZM180.86,95.02c-.13,0-.27-.03-.4-.11-5.5-3.14-11.36-5.7-17.4-7.62-.42-.13-.66-.58-.53-1.01.13-.42.59-.66,1.01-.53,6.14,1.94,12.11,4.55,17.7,7.75.38.22.51.7.3,1.09-.14.26-.42.4-.69.4v.03ZM93.51,93.66c-.29,0-.56-.16-.7-.43-.21-.38-.06-.88.34-1.09.48-.26.94-.5,1.42-.74.4-.21.88-.05,1.07.35.19.4.05.88-.35,1.07-.46.24-.94.48-1.41.74-.11.06-.24.1-.37.1ZM103.69,89.05c-.32,0-.62-.19-.75-.51-.16-.42.05-.88.46-1.02.5-.19,1.01-.38,1.52-.56.42-.14.88.06,1.02.48.14.42-.06.88-.48,1.02-.5.18-.99.37-1.49.54-.1.03-.19.05-.29.05ZM115.93,85.35c-.37,0-.7-.26-.78-.62-.1-.43.18-.86.61-.96,6.27-1.41,12.71-2.16,19.19-2.23.43,0,.8.35.8.78s-.35.8-.78.82c-6.37.06-12.7.8-18.86,2.19-.06,0-.11.02-.18.02ZM152.45,84.64h-.14c-.51-.1-1.04-.19-1.57-.27-.43-.08-.73-.48-.65-.93.06-.43.48-.74.93-.66.53.1,1.05.18,1.58.27.43.08.72.5.64.93-.07.38-.4.66-.79.66ZM141.34,83.3h-.05c-.53-.03-1.06-.06-1.58-.08-.45-.02-.78-.38-.77-.83.02-.45.38-.82.83-.77.54.02,1.07.05,1.62.08.45.03.78.4.75.85-.03.43-.39.75-.8.75Z"/>
    <path class="cls-3" d="M264.58,43.89l-57.61,57.84.57.57,57.61-57.84-.57-.57Z"/>
    <path class="cls-4" d="M235.86,171.55h-1.6v-.8c0-52.97-43.03-96.06-95.94-96.06h-.8v-1.6h.8c53.79,0,97.54,43.81,97.54,97.66v.8Z"/>
    <path class="cls-4" d="M126.53,222.14h-.1c-.66-.06-1.32-.14-1.97-.23-.52-.08-.89-.56-.81-1.1.08-.53.58-.89,1.1-.82.62.1,1.26.17,1.88.23.52.06.93.53.87,1.07-.06.5-.46.87-.97.87v-.02ZM138.1,221.73c-.46,0-.87-.33-.95-.81-.1-.53.27-1.03.79-1.13.62-.12,1.24-.23,1.86-.37.52-.12,1.05.21,1.16.73.12.53-.21,1.05-.74,1.17-.64.14-1.3.27-1.94.39h-.15l-.04.02ZM145.56,219.71c-.39,0-.77-.23-.91-.64-.19-.51.08-1.07.58-1.24,7.12-2.62,13.41-7.16,18.19-13.11.33-.41.95-.48,1.36-.15.43.33.48.95.15,1.36-4.99,6.22-11.6,10.97-19.05,13.71-.12.04-.23.06-.33.06v.02ZM111.72,217.89c-.14,0-.29-.04-.43-.1-7.12-3.55-13.16-8.98-17.46-15.68-.29-.45-.15-1.05.29-1.34.45-.29,1.05-.15,1.34.29,4.1,6.42,9.89,11.61,16.69,15.01.48.23.68.82.45,1.3-.17.35-.5.54-.87.54v-.02ZM91.86,197.46c-.37,0-.72-.21-.87-.56-.27-.6-.54-1.2-.79-1.82-.19-.5.04-1.07.52-1.26.48-.19,1.06.04,1.26.52.23.59.48,1.17.75,1.73.23.49,0,1.07-.46,1.28-.14.06-.27.1-.41.1v.02ZM170.9,194.59c-.12,0-.23-.02-.35-.06-.5-.2-.75-.76-.56-1.24.23-.6.43-1.18.64-1.78.17-.5.7-.79,1.22-.62.5.17.79.72.62,1.22-.21.64-.43,1.26-.66,1.88-.15.39-.52.62-.91.62v-.02ZM88.18,184.46c-.48,0-.91-.37-.97-.85-.08-.66-.14-1.32-.19-1.98-.04-.55.37-1.01.89-1.05.54-.06,1.01.37,1.05.89.04.64.1,1.26.17,1.88.06.52-.31,1.01-.85,1.06h-.12l.02.04ZM173.6,181.34h-.04c-.54-.02-.95-.48-.93-1.01.02-.62.04-1.26.04-1.9,0-2.68-.25-5.35-.75-7.97-.1-.53.25-1.03.77-1.15.52-.1,1.02.25,1.14.77.53,2.74.8,5.53.8,8.34,0,.66,0,1.32-.04,1.98-.02.52-.45.93-.97.93h-.02ZM89.15,169.07s-.15,0-.23-.02c-.52-.14-.83-.66-.72-1.18,1.9-7.72,5.9-14.79,11.54-20.46.39-.39.99-.37,1.37,0,.39.39.39.99,0,1.38-5.4,5.41-9.21,12.18-11.03,19.55-.12.44-.5.73-.93.73ZM168.26,158.56c-.35,0-.68-.17-.85-.5-.31-.56-.62-1.11-.95-1.63-.27-.44-.14-1.04.31-1.34.44-.29,1.04-.14,1.33.31.35.56.68,1.12,1.01,1.7.26.47.1,1.07-.37,1.32-.15.08-.31.12-.46.12l-.02.02ZM159.94,147.94c-.23,0-.46-.08-.66-.26-.46-.43-.93-.85-1.41-1.26-.41-.35-.46-.95-.12-1.36.35-.41.95-.47,1.35-.12.51.43,1.01.87,1.49,1.32.39.37.41.97.06,1.37-.19.21-.44.31-.72.31v-.02ZM104.79,145.24c-.29,0-.58-.14-.77-.39-.33-.43-.23-1.03.17-1.36.52-.41,1.06-.8,1.61-1.16.45-.31,1.05-.19,1.36.25.31.45.19,1.05-.25,1.36-.52.37-1.03.74-1.53,1.11-.17.14-.39.19-.58.19ZM153.82,143.19c-.17,0-.37-.06-.52-.16-6.41-4.09-13.82-6.36-21.45-6.55-.54,0-.95-.47-.95-.99s.46-.95.99-.95c7.98.21,15.74,2.58,22.44,6.86.44.29.58.89.29,1.34-.19.29-.51.45-.82.45h.02ZM116.68,138.84c-.41,0-.77-.25-.91-.66-.17-.5.1-1.07.6-1.24.62-.21,1.26-.43,1.88-.6.52-.16,1.05.14,1.2.66.16.5-.14,1.05-.66,1.2-.6.17-1.2.37-1.8.58-.1.04-.21.06-.31.06Z"/>
    <path class="cls-4" d="M135.63,173l-32.16,32.18.57.57,32.16-32.18-.57-.57Z"/>
    <path class="cls-3" d="M1.63,302.82c-.1,0-.21-.03-.29-.11-.16-.16-.16-.42,0-.56l72.74-72.83c.16-.16.42-.16.56,0,.16.16.16.42,0,.56L1.92,302.71s-.18.11-.29.11Z"/>
    <path class="cls-4" d="M41.82,263.79c-.42,0-.82-.16-1.14-.46-.62-.62-.62-1.63,0-2.26l72.74-72.83c.62-.62,1.63-.62,2.25,0,.62.63.62,1.63,0,2.26l-72.74,72.83c-.32.32-.72.46-1.14.46h.02Z"/>
    <path class="cls-4" d="M94,229.31c-.42,0-.82-.16-1.14-.46-.62-.62-.62-1.63,0-2.26l30.31-30.34c.62-.62,1.63-.62,2.25,0,.62.62.62,1.63,0,2.26l-30.31,30.34c-.32.32-.72.46-1.14.46h.02Z"/>
    <path class="cls-4" d="M24.15,299.24c-.42,0-.82-.16-1.14-.47-.62-.62-.62-1.63,0-2.26l30.31-30.34c.62-.62,1.63-.62,2.25,0,.62.62.62,1.63,0,2.26l-30.31,30.34c-.32.32-.72.47-1.14.47h.02Z"/>
    <path class="cls-4" d="M236.53,98.7c4.52,0,8.18-3.66,8.18-8.18s-3.66-8.18-8.18-8.18-8.17,3.66-8.17,8.18,3.66,8.18,8.17,8.18Z"/>
    <path class="cls-4" d="M151.69,183.82c0,3.06-2.48,5.54-5.54,5.54s-5.53-2.48-5.53-5.54,2.48-5.54,5.53-5.54,5.54,2.49,5.54,5.54Z"/>
    <path class="cls-3" d="M33.4,273.12c0,1.47-1.2,2.67-2.67,2.67s-2.67-1.2-2.67-2.67,1.2-2.67,2.67-2.67,2.67,1.2,2.67,2.67Z"/>
    <path class="cls-4" d="M135.95,283.11c-29.31,0-56.87-11.43-77.6-32.18-20.73-20.76-32.15-48.34-32.15-77.7s11.42-56.94,32.15-77.69c20.73-20.75,48.28-32.19,77.6-32.19s56.87,11.43,77.6,32.19c20.73,20.75,32.14,48.34,32.14,77.69s-11.41,56.94-32.14,77.7c-20.73,20.75-48.28,32.18-77.6,32.18ZM135.95,63.76c-29.2,0-56.66,11.39-77.31,32.06-20.65,20.67-32.02,48.17-32.02,77.41s11.37,56.74,32.02,77.41c20.65,20.67,48.11,32.06,77.31,32.06s56.66-11.39,77.31-32.06c20.65-20.67,32.02-48.17,32.02-77.41s-11.37-56.73-32.02-77.41c-20.64-20.67-48.11-32.06-77.31-32.06Z"/>
    <path class="cls-4" d="M136,284.52c-5.13.01-10.22-.34-15.24-1.02-.88-.11-1.49-.93-1.38-1.81.11-.88.93-1.49,1.81-1.37,4.85.65,9.8.99,14.75.99,1.33,0,2.75-.03,4.13-.08.88-.01,1.63.66,1.66,1.54.03.88-.66,1.63-1.54,1.67-1.39.05-2.78.08-4.19.08v.02ZM151.27,283.46c-.78,0-1.47-.58-1.59-1.38-.13-.88.48-1.68,1.36-1.81.53-.08,1.04-.15,1.57-.22.86-.15,1.69.46,1.82,1.34.13.88-.46,1.7-1.34,1.82-.53.08-1.07.16-1.6.24h-.22ZM116.25,282.76c-.1,0-.19,0-.29-.03-.53-.1-1.07-.19-1.6-.3-.86-.18-1.42-1.01-1.26-1.88.18-.87,1.02-1.44,1.87-1.26.51.1,1.02.19,1.55.29.86.16,1.44,1,1.3,1.86-.14.77-.82,1.32-1.57,1.32h0ZM162.26,281.34c-.72,0-1.37-.48-1.55-1.22-.21-.87.3-1.73,1.17-1.94.51-.13,1.02-.26,1.53-.38.87-.23,1.73.29,1.95,1.14.22.85-.29,1.73-1.14,1.95-.53.15-1.04.27-1.57.4-.13.03-.26.05-.38.05h-.02ZM105.36,280.18c-.14,0-.3-.01-.45-.06-.51-.15-1.04-.3-1.55-.46-.85-.26-1.31-1.16-1.06-2,.26-.85,1.15-1.32,2-1.06.5.16,1.01.3,1.52.45.85.24,1.33,1.14,1.09,1.99-.21.7-.85,1.15-1.54,1.15h-.02ZM168.42,279.62c-.69,0-1.31-.45-1.52-1.12-.26-.85.21-1.75,1.05-2,6-1.86,11.88-4.27,17.46-7.16.78-.4,1.75-.1,2.16.69.4.79.1,1.75-.69,2.16-5.75,2.98-11.82,5.46-17.99,7.38-.16.05-.32.08-.48.08v-.03ZM195.81,266.72c-.53,0-1.04-.26-1.34-.72-.48-.74-.27-1.73.46-2.21.44-.29.88-.58,1.32-.86.73-.5,1.73-.3,2.22.43.5.73.3,1.73-.43,2.22-.45.3-.89.61-1.34.9-.27.17-.58.26-.88.26h0ZM204.85,260.12c-.46,0-.93-.21-1.25-.59-.56-.69-.44-1.7.24-2.26.4-.33.82-.65,1.21-.99.67-.56,1.7-.48,2.26.21.56.67.48,1.68-.21,2.26-.42.35-.83.69-1.25,1.02-.3.24-.66.35-1.01.35ZM209.7,255.94c-.44,0-.87-.18-1.18-.53-.59-.66-.55-1.66.11-2.26,4.65-4.24,8.95-8.92,12.79-13.9.55-.7,1.55-.83,2.24-.29.71.54.83,1.55.29,2.24-3.95,5.12-8.4,9.94-13.18,14.32-.3.28-.69.42-1.07.42ZM229.06,232.62c-.29,0-.58-.08-.85-.24-.75-.46-.98-1.46-.51-2.21.27-.44.55-.89.82-1.34.45-.75,1.44-1.01,2.19-.55.75.45,1.01,1.45.55,2.19-.28.46-.56.93-.85,1.39-.3.5-.83.75-1.36.75h.01ZM234.48,222.82c-.24,0-.48-.05-.71-.16-.8-.39-1.12-1.34-.73-2.15.22-.48.46-.94.69-1.43.39-.8,1.33-1.15,2.13-.77.8.37,1.15,1.33.77,2.13-.22.49-.46.98-.71,1.47-.27.58-.85.89-1.44.89ZM237.1,216.96c-.21,0-.42-.03-.6-.13-.82-.33-1.2-1.28-.87-2.1,2.41-5.81,4.33-11.88,5.7-18.03.19-.87,1.05-1.41,1.9-1.22.87.19,1.41,1.04,1.22,1.9-1.41,6.34-3.37,12.59-5.87,18.57-.26.61-.85,1-1.47,1ZM244.75,187.63h-.19c-.88-.1-1.5-.9-1.41-1.78.06-.53.11-1.04.17-1.57.1-.88.87-1.52,1.76-1.43.88.1,1.52.88,1.42,1.76-.05.55-.11,1.07-.17,1.62-.1.82-.78,1.41-1.59,1.41h0ZM245.47,176.45h-.03c-.88,0-1.59-.73-1.59-1.62v-1.58c0-.88.72-1.61,1.6-1.61s1.6.72,1.6,1.61v1.61c0,.88-.72,1.59-1.6,1.59h.01Z"/>
    <path class="cls-3" d="M207.84,86.17c0,3.06-2.48,5.54-5.54,5.54s-5.53-2.48-5.53-5.54,2.48-5.54,5.53-5.54,5.54,2.48,5.54,5.54Z"/>
    <path class="cls-4" d="M50.17,230.19c0,4.34-3.5,7.85-7.84,7.85s-7.84-3.51-7.84-7.85,3.5-7.85,7.84-7.85,7.84,3.51,7.84,7.85Z"/>
    <path class="cls-4" d="M42.33,238.84c-4.77,0-8.64-3.88-8.64-8.65s3.87-8.65,8.64-8.65,8.64,3.88,8.64,8.65-3.87,8.65-8.64,8.65ZM42.33,223.15c-3.89,0-7.04,3.15-7.04,7.04s3.15,7.04,7.04,7.04,7.04-3.15,7.04-7.04-3.15-7.04-7.04-7.04Z"/>
    <path class="cls-4" d="M131.04,230.98c-29.99,0-54.39-24.4-54.39-54.39s24.4-54.39,54.39-54.39,54.39,24.4,54.39,54.39-24.4,54.39-54.39,54.39ZM131.04,124.13c-28.92,0-52.46,23.53-52.46,52.46s23.53,52.46,52.46,52.46,52.46-23.53,52.46-52.46-23.53-52.46-52.46-52.46Z"/>
    <path class="cls-3" d="M73.61,261.83c4.51,0,8.17-3.66,8.17-8.19s-3.66-8.18-8.17-8.18-8.17,3.66-8.17,8.18,3.66,8.19,8.17,8.19Z"/>
  </g>
  <g>
    <path d="M208.36,190.62c-12.52-7.97-34.94-9.98-34.94-9.98-14.45-1.75-14.63-5.25-14.63-5.25-2.1-7.53,7.79-11.04,7.79-11.04,4.64-2.89-1.05-5.52-1.05-5.52-2.19-1.49-8.93-.18-8.93-.18l-8.41,1.49c-15.9,2.1-25.76-13.68-29.06-20.07-1.18-2.29-2.39-4.55-3.68-6.78-2.37-4.09-5.97-10.4-8.42-15.19-3.94-7.71-18.13-25.75-18.13-25.75.35,1.05-2.54,10.16-4.12,13.22-1.58,3.07-7.36,14.98-7.36,14.98-4.85,11.31,13.95,31.03,21.58,38.4,3.93,3.79,6.81,8.52,8.32,13.76,1.61,5.59,2.6,12.82,1.79,20.97-1.56,15.7-33.02,14.36-33.02,14.36,4.2,8.41,5.69,13.57,5.69,13.57,1.4-.26,12.26,2.45,12.26,2.45-4.29,3.33-10.07,4.12-10.07,4.12,5.61,9.72,6.31,19.27,6.31,19.27,7.71-4.82,18.83-4.38,18.83-4.38-2.45-9.63-1.05-11.56-1.05-11.56l7.79,9.28c4.73,1.49,14.28-1.66,14.28-1.66-1.66-1.58-5.69-12.96-5.69-12.96,0,0-7.01-17.69,12.52-22.68,19.53-4.99,34.68.44,34.68.44l13.66,4.82c6.48,2.1,9.63-1.31,9.63-1.31,15.24-10.77,25.66-9.46,25.66-9.46-1.58-.35-12.26-7.36-12.26-7.36Z"/>
    <path d="M93.78,85.48s3.8,10.54,18.62,30.07c1.08,1.42,2.05,2.91,2.95,4.45l14.4,24.92s8.17,14.71,24.87,8.76l-7.65-3.74s-2.04-.88,1.87-.76,14.95,3.62,14.95,3.62c0,0,8,1.52,14.36,10.16,0,0,2.04,5.72-.88,3.68,0,0-1.81-3.09-5.9-1.4-4.09,1.69-6.42,3.5-7.42,5.78,0,0-1.46,3.04,7.01,2.63,8.47-.41,23.24,4.38,23.24,4.38,0,0,11.74,2.69,21.02,12.49,0,0,6.71,5.96,9.69,7.24,0,0-1.63.64-11.74-6.19s-18.63-10.33-36.08-13.08c0,0-16.87-.47-16.06-5.25.82-4.79,4.5-6.25,4.5-6.25,0,0,8.23-4.26,5.78-6.71,0,0-2.51-4.79-9.17-4.55,0,0-19.06,3.59-23.41,1.05s-10.5-6.2-16.23-16.7c-3.89-7.13-6.83-12.9-9.02-16.79-1.03-1.83-2.8-5.33-4.01-7.04-1.35-1.9-3.37-4.34-6.08-8.18-1-1.42-2.05-3.22-3.19-4.54-2.74-3.18-8.75-11.2-6.43-18.04Z"/>
    <path d="M208.71,202.84s23.38,9.68,32.54,12.09c0,0-7.4-6.17,3.85-7.23l-22.51-6.96s-3.98-1.53-13.88,2.1Z"/>
    <path d="M252.9,209.97l28.2,7.49s-.89.09-2.89.22c-2,.13-3.07.13-6.17,1.88-3.11,1.75-7.44,4.47-15.63,2.1-8.19-2.36-12.35-5.61-12.35-5.61,0,0-.7-.48.13-.31,0,0,6.39,2.15,10.07.31,3.68-1.84-.13-4.51-.13-4.51l-1.8-1.18s-.35-.61.57-.39Z"/>
    <path d="M248.59,212.73c-.5,1.22-2.1,1.72-3.32,1.22s-2.02-1.98-1.52-3.2,2.11-1.71,3.33-1.21c1.22.5,2.01,1.98,1.51,3.2Z"/>
    <path d="M231.94,225.33c-.55,1.17-2.11,1.56-3.25,1s-1.89-2.09-1.35-3.26,2.19-1.52,3.32-.96,1.82,2.06,1.27,3.22Z"/>
    <path d="M206.84,231.57c.85,1.01.9,2.74-.11,3.58-1.01.85-2.7.49-3.55-.52-.85-1.01-.92-2.76.09-3.61s2.72-.47,3.57.54Z"/>
    <path d="M183.38,229.92c.48,1.23-.03,2.82-1.26,3.31s-2.7-.33-3.18-1.55.02-2.85,1.25-3.34c1.23-.48,2.71.36,3.19,1.58Z"/>
    <path d="M201.73,206.19s2.91.09,16.16,7.76l10.9,5.21s.56.34.36.43c0,0-6.18-1.2-6.71,3.01,0,0-.06,2,1.54,3.38,0,0-12.44-6.73-18.15-10.4,0,0-6.65-4.87-9.59-5.96,0,0,4.31-3.21,5.48-3.44Z"/>
    <path d="M237.46,223.98s11.1,6.27,21.39,9.31c0,0-3.66-1.15-9.06.83s-10.32.17-10.32.17c0,0-4.18-1.16-11.95-6.55,0,0,.51-.1,3.56.85,3.61,1.12,6.93.52,7.63-.26s.59-1.58-1.03-3.52l-.7-.66s-.39-.43.48-.17Z"/>
    <path d="M189.85,212.24s.86-.2,2.67,1.81c0,0,8.7,9.63,10.79,11.24,0,0,3.84,3.39,3.91,3.9,0,0,.07.15-.07.19,0,0-3.9-2.35-7.09-.23-3.2,2.12-1.12,4.6-1.12,4.6,0,0-10.58-10.98-14.3-16.82,0,0-4.29-5.01-6.17-7.79,0,0,6.93,3.21,11.4,3.12Z"/>
    <path d="M210.73,233.75s4.64,6.02,11.19,10.18c6.55,4.16,6.11,5.43,6.11,5.43,0,0-2.3-.81-9.63-1.49-7.33-.68-9.48-2.65-9.48-2.65,0,0-5.15-4.12-8.12-9.13,0,0-.22-.57,0-.61,0,0,1.6.72,4.99,3.35,0,0,3.2,1.8,5.41.15,0,0,1.03-.48-.31-3.66,0,0-.46-1.45-.15-1.58Z"/>
    <path d="M172.22,206.81s8.26,13.6,11.82,19.12c0,0,.8.85.46,1.26,0,0-2.62-2.66-6.27-1.61s-2.99,4.47-2.99,4.47c0,0-6.87-12.32-8.6-17.19s-3.73-8.06-3.73-8.06c0,0,4.87.35,9.31,2.01Z"/>
    <path d="M159.08,204.47s-2.95-.44-5.87-.15c0,0-.9,24.96-.55,27.21,0,0-.2,3.33,3.91,4.23l3.62.93s1.66.47,1.58-3.39c0,0-1.11-21.63-2.69-28.84Z"/>
    <path d="M145.71,204.7l3.59-.26s1.26-.09,1.2.99c0,0,.67,22.04-.18,24.08,0,0-.23,1.63-1.2,1.49l-3.56-1.26s-2.66-.9-2.22-3.39c0,0,.99-13.75,1.72-16.87l.64-4.79Z"/>
    <path d="M142.91,204.97l-4.15.88s-2.34,13.25-2.57,17.22c0,0-.41,2.01,1.46,2.77l2.77,1.17s1.14.73,1.4-2.22c0,0,.35-9.69,1.02-17.05,0,0,.5-2.63.06-2.77Z"/>
    <path d="M57.5,52.8c.96,2.07.19,4.78-1.89,5.75s-4.65-.19-5.61-2.26c-.96-2.07-.3-5.03,1.77-6s4.77.44,5.73,2.51Z"/>
    <path d="M44,80.56c1.35,1.84,1.19,4.77-.65,6.12-1.84,1.35-4.68.61-6.03-1.24s-1.37-5.01.48-6.36,4.85-.37,6.2,1.48Z"/>
    <circle cx="34.59" cy="111.45" r="4.14"/>
    <path d="M35.37,138.2c.26-1.99,2.74-3.32,4.73-3.06s3.67,2.12,3.41,4.12-2.35,3.37-4.35,3.11-4.05-2.17-3.79-4.17Z"/>
    <path d="M54.84,42.45S27.69,1.4,26.4,0c0,0-.41,1.05.7,3.68s1.99,7.3,1.05,11.74c-.93,4.44-5.08,20.96,6.07,34.1,0,0,12.09,14.01,15.53,14.71,0,0,.88.41.39-.38,0,0-8.32-11.21-5.87-19.09,2.45-7.88,10.33-.57,10.33-.57,0,0,1.23.53.7-.79l-.48-.95Z"/>
    <path d="M62.76,55.66s-.04,15.68-11.3,9.59c0,0,9.94,14.19,17.69,22.55,7.75,8.36,12.22,13.31,12.7,14.36,0,0,3.05-7.23,3.58-10.56.12-.74-.04-1.49-.42-2.15-.89-1.54-3.41-5.56-9.56-13.59-.82-1.07-1.66-2.12-2.52-3.17-1.44-1.77-5.75-7.45-10.18-17.04Z"/>
    <path d="M8.33,41.16s25.27,23.43,31.62,31.13c0,0,.83.79-.13,1.05,0,0-9.15-5.04-9.11,4.34,0,0-.44,6.17,8.1,14.01,0,0,.66.7-.22.7,0,0-17.43-6-24.26-20.06,0,0-1.49-2.58-1.93-11.25,0,0,.96-11.17-3.59-18.09,0,0-.96-1.58-.48-1.84Z"/>
    <path d="M40.89,94.14s10.01,4.78,8.12-11.86c0,0,8.76,9.16,15.37,14.28,0,0,13.53,10.99,13.57,13.22,0,0-4.73,8.85-4.77,10.12,0,0-23.41-16.43-32.3-25.75Z"/>
    <path d="M40.63,106.48s7.24,12.94-3.48,14.3c0,0,14.93,7.49,30.39,12.35l8.71,3.46s-4.6-4.86-4.07-13.53c0,0-21.61-8.39-31.55-16.57Z"/>
    <path d="M.32,82.94s28.38,16.9,30.48,19.09c0,0,.35.44-.22.74,0,0-10.07-2.45-5.82,8.54,0,0,1.84,3.72,7.79,7.23,0,0,.66.31,0,.61,0,0-17.56-2.23-23.08-11.82,0,0-2.93-6.7-4.2-14.32,0,0-.22-4.25-5.04-9.46,0,0-.57-.79.09-.61Z"/>
    <path d="M77.08,138.42s8.23,11.34,10.38,12.7c0,0-13.12-1.95-20.81-3-10.32-1.41-22.2-2.14-22.2-2.14,0,0,10.29-6.35-1.43-12.74-.05-.02-.05-.09,0-.08,1.46.23,10.14,1.5,21.6,3.64,0,0,11.16,1.75,12.47,1.63Z"/>
    <path d="M4.79,125.81s27.08,5.19,30.05,6.48c0,0,.5.36-.17.68,0,0-8.04.81-4.51,7.18,0,0,1.92,4.09,9.28,5.42,0,0,.61.26-.29.41,0,0-8.03-.15-16.12-2.42-2.99-.84-5.59-2.7-7.37-5.25-.71-1.02-1.48-2.27-2.23-3.77-1.34-2.68-3.34-5-5.9-6.55-.84-.51-1.8-1.05-2.88-1.59,0,0-.68-.92.14-.6Z"/>
    <path d="M90,153.97l5.91,6.26s-21.5,10.73-30.92,14.49c0,0-2.93,1.8-6.13-1.75l-3.33-4.12s-1.8-1.62,3.11-3.72c0,0,26.71-9.59,31.35-11.17Z"/>
    <path d="M97,161.8s3.28,2.89,3.85,5.21l-23.6,15.02s-2.58,1.58-5.47-1.93l-2.23-2.1s-2.23-1.27,6.17-5.39l21.28-10.82Z"/>
    <path d="M101.87,169.03s2.23,4.16,1.93,5.08l-15.76,13.62s-1.58,2.01-4.55-.04l-2.58-1.8s-1.45-.92,2.19-3.37c0,0,16.2-11.69,18.79-13.49Z"/>
    <path d="M188.39,233.84s4.06,6.69,8.26,10.04,5.02,4.82,5.02,4.82c0,0-1.49-1.46-8.87-2.28-7.39-.82-10.77-4.96-10.77-4.96,0,0-3.24-3.27-4.55-7.94l4.26,2.74s3.62,2.36,5.25.44c0,0,1.14-.55.23-2.83l-.2-.96s.2-.32,1.37.93Z"/>
  </g>
</svg>