<?xml version="1.0" encoding="UTF-8"?>
<svg id="Layer_1" data-name="Layer 1" xmlns="http://www.w3.org/2000/svg" viewBox="0 0 314.54 279.03">
  <defs>
    <style>
      .cls-1 {
        fill: #fff;
      }
    </style>
  </defs>
  <path class="cls-1" d="M233.15,213.3c-14.01-8.92-39.1-11.17-39.1-11.17-16.17-1.96-16.37-5.88-16.37-5.88-2.35-8.43,8.72-12.35,8.72-12.35,5.19-3.23-1.18-6.17-1.18-6.17-2.45-1.67-10-.2-10-.2l-9.41,1.67c-17.8,2.35-28.82-15.3-32.52-22.46-1.32-2.56-2.68-5.1-4.12-7.59-2.66-4.58-6.68-11.64-9.42-16.99-4.41-8.62-20.29-28.81-20.29-28.81.39,1.18-2.84,11.37-4.61,14.8-1.76,3.43-8.23,16.76-8.23,16.76-5.42,12.65,15.6,34.72,24.15,42.97,4.39,4.24,7.62,9.53,9.32,15.4,1.81,6.26,2.91,14.34,2.01,23.46-1.75,17.57-36.95,16.07-36.95,16.07,4.7,9.41,6.37,15.19,6.37,15.19,1.57-.29,13.72,2.74,13.72,2.74-4.8,3.72-11.27,4.61-11.27,4.61,6.27,10.88,7.06,21.56,7.06,21.56,8.62-5.39,21.07-4.9,21.07-4.9-2.74-10.78-1.18-12.94-1.18-12.94l8.72,10.39c5.29,1.67,15.97-1.86,15.97-1.86-1.86-1.76-6.37-14.5-6.37-14.5,0,0-7.84-19.8,14.01-25.38,21.85-5.59,38.81.49,38.81.49l15.29,5.39c7.25,2.35,10.78-1.47,10.78-1.47,17.05-12.05,28.71-10.58,28.71-10.58-1.76-.39-13.72-8.23-13.72-8.23ZM123.88,247.06c-2.45-.36-3.38.74-3.38.74l-11.81,13.77,6.08-11.66c2.06-6.86-1.08-9.07-1.08-9.07l-3.28-3.67c8.86,2.93,13.44-2.29,14.62-3.93.21-.26.32-.43.32-.43-3.48,10.83,4.17,14.95,4.17,14.95-.54.2-5.64-.69-5.64-.69ZM132.25,170.38c-2.81,5.95-14.24,1.57-14.24,1.57,9.34,1.18,6.53-5.81,6.53-5.81,0,0-14.18-28.62-20.84-29.33-6.66-.72-4.9,12.81-4.9,12.81-.65-1.5-3.2-3.85-3.2-3.85-6.14-6.01,3.66-24.3,3.66-24.3,3.07-4.64,5.49-.65,5.49-.65,0,0,30.31,43.64,27.51,49.59ZM223.97,219.51c-3.85,4.25-10.26,4.97-11.5,4.44,0,0,6.14-2.55,1.89-6.53-4.25-3.99-22.21-4.51-22.21-4.51,0,0-8.04-.98-5.55,3.79,0,0-5.95,1.11-5.42-6.27s31.95,1.18,31.95,1.18c0,0,14.7,3.66,10.85,7.91Z"/>
  <path class="cls-1" d="M104.94,95.65s4.25,11.79,20.84,33.65c1.2,1.59,2.3,3.26,3.3,4.98l16.11,27.88s9.15,16.46,27.83,9.8l-8.56-4.18s-2.29-.98,2.09-.85,16.73,4.05,16.73,4.05c0,0,8.95,1.7,16.07,11.37,0,0,2.29,6.4-.98,4.12,0,0-2.03-3.46-6.6-1.57-4.57,1.89-7.19,3.92-8.3,6.47,0,0-1.63,3.4,7.84,2.94s26,4.9,26,4.9c0,0,13.13,3.01,23.52,13.98,0,0,7.51,6.66,10.85,8.1,0,0-1.83.72-13.13-6.93-11.3-7.64-20.84-11.56-40.38-14.63,0,0-18.88-.52-17.97-5.88.91-5.36,5.03-6.99,5.03-6.99,0,0,9.21-4.77,6.47-7.51,0,0-2.81-5.36-10.26-5.1,0,0-21.33,4.02-26.2,1.18-4.81-2.81-11.75-6.94-18.16-18.69-4.35-7.97-7.65-14.43-10.09-18.79-1.15-2.04-3.13-5.97-4.49-7.88-1.51-2.13-3.77-4.85-6.8-9.15-1.12-1.59-2.29-3.6-3.57-5.08-3.07-3.56-9.8-12.53-7.19-20.19Z"/>
  <path class="cls-1" d="M233.55,226.97s26.17,10.83,36.41,13.52c0,0-8.28-6.91,4.31-8.08l-25.19-7.79s-4.46-1.71-15.53,2.35Z"/>
  <path class="cls-1" d="M282.99,234.95l31.56,8.38s-.99.1-3.23.24c-2.24.15-3.43.15-6.91,2.11-3.48,1.96-8.33,5-17.49,2.35-9.16-2.65-13.82-6.27-13.82-6.27,0,0-.78-.54.15-.34,0,0,7.15,2.4,11.27.34,4.12-2.06-.15-5.05-.15-5.05l-2.01-1.32s-.39-.69.64-.44Z"/>
  <path class="cls-1" d="M278.16,238.04c-.56,1.36-2.35,1.92-3.71,1.36s-2.26-2.22-1.7-3.58,2.36-1.92,3.73-1.36,2.25,2.21,1.69,3.58Z"/>
  <path class="cls-1" d="M259.54,252.14c-.61,1.3-2.36,1.74-3.64,1.12s-2.12-2.34-1.51-3.65,2.45-1.7,3.72-1.08,2.03,2.3,1.42,3.61Z"/>
  <path class="cls-1" d="M231.45,259.12c.95,1.13,1.01,3.06-.12,4.01s-3.02.55-3.97-.58c-.95-1.13-1.03-3.09.1-4.04s3.05-.52,4,.61Z"/>
  <path class="cls-1" d="M205.2,257.27c.54,1.37-.04,3.16-1.41,3.7s-3.02-.37-3.56-1.74.02-3.19,1.4-3.74c1.37-.54,3.03.4,3.57,1.77Z"/>
  <path class="cls-1" d="M225.73,230.72s3.25.1,18.08,8.69l12.2,5.83s.63.38.41.48c0,0-6.91-1.35-7.51,3.37,0,0-.06,2.24,1.72,3.78,0,0-13.92-7.53-20.31-11.63,0,0-7.45-5.45-10.73-6.67,0,0,4.82-3.59,6.13-3.85Z"/>
  <path class="cls-1" d="M265.71,250.63s12.42,7.02,23.94,10.42c0,0-4.1-1.28-10.14.93s-11.55.19-11.55.19c0,0-4.68-1.3-13.38-7.33,0,0,.57-.11,3.99.95,4.04,1.25,7.76.58,8.54-.29s.66-1.76-1.16-3.94l-.78-.74s-.44-.48.53-.19Z"/>
  <path class="cls-1" d="M212.44,237.49s.96-.23,2.99,2.03c0,0,9.73,10.78,12.07,12.58,0,0,4.3,3.79,4.38,4.36,0,0,.08.16-.08.21,0,0-4.36-2.63-7.94-.26s-1.26,5.14-1.26,5.14c0,0-11.84-12.28-16.01-18.82,0,0-4.8-5.61-6.91-8.72,0,0,7.75,3.59,12.76,3.49Z"/>
  <path class="cls-1" d="M235.8,261.56s5.19,6.74,12.52,11.39c7.33,4.65,6.84,6.08,6.84,6.08,0,0-2.57-.91-10.78-1.67-8.21-.76-10.61-2.96-10.61-2.96,0,0-5.76-4.61-9.09-10.22,0,0-.24-.64,0-.69,0,0,1.79.81,5.59,3.75,0,0,3.58,2.01,6.05.17,0,0,1.15-.54-.34-4.09,0,0-.51-1.62-.17-1.76Z"/>
  <path class="cls-1" d="M192.71,231.41s9.24,15.22,13.23,21.4c0,0,.89.95.51,1.4,0,0-2.93-2.97-7.01-1.8s-3.35,5-3.35,5c0,0-7.68-13.79-9.63-19.24s-4.18-9.02-4.18-9.02c0,0,5.45.39,10.42,2.25Z"/>
  <path class="cls-1" d="M178.01,228.8s-3.3-.49-6.57-.16c0,0-1.01,27.93-.62,30.45,0,0-.23,3.72,4.38,4.74l4.05,1.05s1.86.52,1.76-3.79c0,0-1.24-24.21-3.01-32.27Z"/>
  <path class="cls-1" d="M163.05,229.06l4.02-.29s1.4-.1,1.34,1.11c0,0,.75,24.66-.2,26.95,0,0-.26,1.83-1.34,1.67l-3.99-1.4s-2.97-1.01-2.48-3.79c0,0,1.11-15.39,1.93-18.88l.72-5.36Z"/>
  <path class="cls-1" d="M159.91,229.35l-4.64.98s-2.61,14.83-2.87,19.27c0,0-.46,2.25,1.63,3.1l3.1,1.31s1.27.82,1.57-2.48c0,0,.39-10.85,1.14-19.08,0,0,.56-2.94.07-3.1Z"/>
  <path class="cls-1" d="M64.34,59.08c1.08,2.32.21,5.35-2.11,6.43s-5.2-.21-6.28-2.52-.34-5.63,1.98-6.71,5.33.49,6.41,2.81Z"/>
  <path class="cls-1" d="M49.24,90.15c1.51,2.06,1.33,5.34-.73,6.85s-5.24.68-6.74-1.38-1.53-5.6.53-7.11,5.43-.41,6.94,1.65Z"/>
  <circle class="cls-1" cx="38.7" cy="124.71" r="4.63"/>
  <path class="cls-1" d="M39.58,154.64c.29-2.23,3.06-3.71,5.29-3.42s4.1,2.37,3.81,4.61c-.29,2.23-2.64,3.77-4.87,3.47s-4.53-2.43-4.24-4.66Z"/>
  <path class="cls-1" d="M61.36,47.5S30.98,1.57,29.54,0c0,0-.46,1.18.78,4.12,1.24,2.94,2.22,8.17,1.18,13.13s-5.68,23.45,6.79,38.15c0,0,13.52,15.68,17.38,16.46,0,0,.98.46.44-.42,0,0-9.31-12.54-6.57-21.36,2.74-8.82,11.56-.64,11.56-.64,0,0,1.37.59.78-.88l-.54-1.06Z"/>
  <path class="cls-1" d="M70.23,62.28s-.05,17.54-12.64,10.73c0,0,11.12,15.88,19.8,25.23,8.67,9.36,13.67,14.9,14.21,16.07,0,0,3.41-8.09,4.01-11.81.13-.83-.05-1.67-.47-2.4-1-1.72-3.81-6.22-10.7-15.2-.92-1.2-1.86-2.38-2.82-3.55-1.62-1.98-6.44-8.33-11.39-19.07Z"/>
  <path class="cls-1" d="M9.32,46.06s28.27,26.21,35.38,34.84c0,0,.93.88-.15,1.18,0,0-10.24-5.63-10.19,4.85,0,0-.49,6.91,9.06,15.68,0,0,.73.78-.24.78,0,0-19.5-6.71-27.15-22.44,0,0-1.67-2.89-2.16-12.59,0,0,1.08-12.49-4.02-20.24,0,0-1.08-1.76-.54-2.06Z"/>
  <path class="cls-1" d="M45.75,105.34s11.2,5.34,9.09-13.28c0,0,9.8,10.24,17.2,15.98,0,0,15.14,12.3,15.19,14.8,0,0-5.29,9.9-5.34,11.32,0,0-26.19-18.38-36.14-28.82Z"/>
  <path class="cls-1" d="M45.46,119.14s8.11,14.48-3.9,16c0,0,16.71,8.38,34.01,13.82l9.75,3.87s-5.14-5.44-4.56-15.14c0,0-24.18-9.38-35.3-18.55Z"/>
  <path class="cls-1" d="M.35,92.81s31.75,18.91,34.1,21.36c0,0,.39.49-.24.83,0,0-11.27-2.74-6.52,9.55,0,0,2.06,4.16,8.72,8.08,0,0,.73.34,0,.69,0,0-19.65-2.5-25.82-13.23,0,0-3.28-7.5-4.7-16.02,0,0-.24-4.75-5.63-10.58,0,0-.64-.88.1-.69Z"/>
  <path class="cls-1" d="M86.25,154.89s9.21,12.69,11.61,14.21c0,0-14.68-2.18-23.29-3.35-11.55-1.57-24.84-2.39-24.84-2.39,0,0,11.52-7.1-1.6-14.26-.05-.03-.05-.1,0-.09,1.64.25,11.35,1.68,24.17,4.07,0,0,12.49,1.96,13.95,1.82Z"/>
  <path class="cls-1" d="M5.36,140.78s30.3,5.81,33.62,7.25c0,0,.56.4-.19.76,0,0-9,.91-5.04,8.03,0,0,2.15,4.58,10.39,6.07,0,0,.68.3-.32.45,0,0-8.98-.16-18.04-2.7-3.35-.94-6.26-3.03-8.25-5.87-.8-1.14-1.66-2.54-2.5-4.22-1.5-3-3.73-5.59-6.6-7.33-.94-.57-2.01-1.17-3.22-1.78,0,0-.76-1.03.16-.67Z"/>
  <path class="cls-1" d="M100.71,172.28l6.61,7.01s-24.06,12-34.59,16.22c0,0-3.28,2.01-6.86-1.96l-3.72-4.61s-2.01-1.81,3.48-4.16c0,0,29.89-10.73,35.08-12.49Z"/>
  <path class="cls-1" d="M108.55,181.05s3.67,3.23,4.31,5.83l-26.41,16.81s-2.89,1.76-6.12-2.16l-2.5-2.35s-2.5-1.42,6.91-6.03l23.81-12.1Z"/>
  <path class="cls-1" d="M113.99,189.14s2.5,4.65,2.16,5.68l-17.64,15.24s-1.76,2.25-5.1-.05l-2.89-2.01s-1.62-1.03,2.45-3.77c0,0,18.13-13.08,21.02-15.09Z"/>
  <path class="cls-1" d="M210.81,261.66s4.54,7.48,9.24,11.24c4.7,3.76,5.62,5.39,5.62,5.39,0,0-1.67-1.63-9.93-2.55s-12.05-5.55-12.05-5.55c0,0-3.63-3.66-5.1-8.89l4.77,3.07s4.05,2.65,5.88.49c0,0,1.27-.62.26-3.17l-.23-1.08s.23-.36,1.54,1.05Z"/>
</svg>