<?xml version="1.0" encoding="UTF-8"?>
<svg id="Layer_1" xmlns="http://www.w3.org/2000/svg" version="1.1" xmlns:xlink="http://www.w3.org/1999/xlink" viewBox="0 0 612 792">
  <!-- Generator: Adobe Illustrator 29.8.3, SVG Export Plug-In . SVG Version: 2.1.1 Build 3)  -->
  <defs>
    <style>
      .st0 {
        fill: none;
      }

      .st1 {
        clip-path: url(#clippath-1);
      }

      .st2 {
        fill: #63706b;
      }

      .st3 {
        opacity: .6;
      }

      .st4 {
        clip-path: url(#clippath);
      }
    </style>
    <clipPath id="clippath">
      <rect class="st0" x="162.76" y="275.5" width="287.18" height="284.76"/>
    </clipPath>
    <clipPath id="clippath-1">
      <path class="st2" d="M297.9,465.47v-.4c.53,0,1.06,0,1.58-.03v.4c-.53.01-1.06.03-1.58.03ZM296.3,465.46c-.53,0-1.07-.03-1.6-.05v-.4c.54.03,1.07.05,1.62.05v.4h-.02ZM301.11,465.36v-.4c.51-.03,1.04-.06,1.57-.11l.03.4c-.53.05-1.07.08-1.6.11ZM293.1,465.31c-.53-.03-1.07-.08-1.6-.15l.03-.4c.53.05,1.06.1,1.58.15l-.03.4h.02ZM304.31,465.09l-.05-.4c.53-.06,1.06-.13,1.59-.19l.05.4c-.53.08-1.05.15-1.59.19ZM289.9,465.01c-.53-.06-1.06-.15-1.58-.22l.06-.4c.53.08,1.06.15,1.58.22l-.05.4h-.02ZM307.47,464.65l-.06-.4c.53-.08,1.04-.17,1.57-.29l.08.4c-.53.09-1.05.19-1.59.29ZM286.73,464.53c-.53-.1-1.06-.19-1.58-.3l.08-.4c.53.11,1.04.21,1.57.3l-.06.4ZM310.63,464.03l-.08-.38c.53-.12,1.04-.24,1.55-.37l.1.39c-.51.13-1.04.26-1.57.37ZM283.58,463.87c-.53-.13-1.04-.26-1.55-.39l.1-.38c.51.13,1.02.26,1.55.38l-.1.39ZM313.75,463.26l-.11-.38c.51-.15,1.02-.29,1.53-.45l.12.38c-.51.16-1.02.3-1.54.45ZM280.48,463.05c-.51-.15-1.02-.3-1.54-.46l.13-.39c.51.16,1.01.32,1.52.47l-.11.38ZM316.8,462.32l-.13-.39c.5-.17,1.01-.35,1.5-.53l.15.37c-.49.19-1.01.37-1.52.53v.02ZM277.43,462.06c-.51-.18-1.01-.37-1.5-.56l.14-.37c.5.19.99.37,1.5.54l-.13.39h-.02ZM319.82,461.21l-.15-.37c.5-.19.98-.4,1.47-.61l.16.37c-.5.21-.98.42-1.47.61h-.01ZM274.42,460.92c-.5-.21-.99-.42-1.47-.64l.16-.37c.48.22.98.43,1.47.62l-.16.37h0ZM322.75,459.94l-.16-.37c.48-.22.96-.44,1.44-.69l.17.35c-.48.24-.96.46-1.44.69h-.02ZM271.48,459.61c-.48-.22-.96-.46-1.44-.71l.18-.35c.48.24.94.48,1.44.71l-.18.37h0ZM325.63,458.52l-.19-.35c.46-.24.93-.5,1.39-.75l.19.35c-.46.26-.93.51-1.41.77h.01ZM268.61,458.15c-.46-.26-.94-.51-1.41-.78l.19-.35c.46.28.93.53,1.39.79l-.19.35h.02ZM328.43,456.97l-.21-.33c.44-.27.91-.55,1.36-.83l.21.33c-.45.29-.91.56-1.36.83ZM265.83,456.54c-.46-.29-.91-.56-1.36-.87l.22-.33c.45.29.9.58,1.34.85l-.21.34h0ZM331.13,455.25l-.23-.34c.45-.29.88-.59,1.32-.89l.22.32c-.43.3-.88.61-1.31.91ZM263.14,454.78c-.45-.3-.88-.61-1.31-.93l.24-.32c.43.32.86.62,1.3.93l-.22.34h0ZM333.74,453.4l-.24-.32c.44-.32.85-.64,1.27-.98l.26.32c-.42.33-.85.66-1.27.98h-.01ZM260.55,452.89c-.43-.32-.85-.66-1.26-1l.26-.3c.42.33.83.67,1.25.99l-.24.32h0ZM336.25,451.4l-.26-.3c.4-.34.82-.69,1.22-1.04l.26.3c-.4.35-.8.71-1.22,1.04ZM258.06,450.85c-.4-.35-.8-.71-1.2-1.05l.27-.3c.4.35.8.7,1.2,1.05l-.26.3h-.02ZM338.66,449.28l-.27-.29c.38-.37.76-.73,1.15-1.11l.27.29c-.38.37-.77.73-1.17,1.11h.02ZM255.68,448.7c-.38-.37-.77-.73-1.15-1.12l.29-.29c.37.38.75.75,1.14,1.12l-.27.29ZM340.95,447.03l-.29-.28c.37-.38.73-.77,1.09-1.17l.29.28c-.37.4-.73.78-1.1,1.17h.01ZM253.42,446.42c-.37-.39-.74-.79-1.09-1.18l.3-.28c.35.4.72.79,1.07,1.17l-.29.27v.02ZM343.13,444.67l-.3-.26c.35-.4.69-.8,1.04-1.22l.3.26c-.34.42-.69.82-1.04,1.23h0ZM251.28,444.03c-.35-.4-.69-.82-1.02-1.23l.32-.26c.34.42.67.83,1.01,1.23l-.3.26ZM345.17,442.19l-.32-.24c.32-.42.66-.85.96-1.27l.32.24c-.32.43-.64.86-.98,1.28v-.02ZM249.28,441.53c-.32-.43-.64-.85-.96-1.3l.32-.24c.3.43.62.86.94,1.28l-.32.24h.02ZM347.08,439.61l-.32-.22c.3-.44.6-.88.89-1.32l.33.22c-.3.45-.59.9-.91,1.33h0ZM247.41,438.92c-.3-.45-.59-.88-.88-1.35l.34-.21c.29.45.58.9.88,1.33l-.34.23ZM348.85,436.92l-.34-.21c.29-.45.56-.91.83-1.36l.35.21c-.27.46-.54.93-.83,1.38h-.01ZM245.68,436.23c-.27-.46-.54-.91-.82-1.38l.35-.19c.26.46.53.91.8,1.37l-.34.21h0ZM350.48,434.15l-.35-.19c.25-.46.51-.93.75-1.41l.35.19c-.24.48-.5.95-.75,1.43h0ZM244.08,433.44c-.26-.46-.5-.95-.74-1.43l.35-.17c.24.48.48.94.74,1.41l-.35.19ZM351.95,431.3l-.35-.17c.24-.48.46-.96.67-1.45l.37.16c-.22.49-.45.98-.69,1.46ZM242.66,430.58c-.22-.48-.45-.98-.66-1.46l.37-.16c.21.48.43.98.66,1.45l-.37.17ZM353.28,428.35l-.37-.16c.21-.49.4-.99.59-1.49l.37.15c-.19.5-.4,1-.61,1.49v.02ZM241.38,427.65c-.21-.5-.4-1-.59-1.49l.37-.15c.19.5.38.99.58,1.49l-.37.15h.02ZM354.45,425.36l-.39-.13c.18-.5.35-1.01.53-1.52l.39.13c-.16.51-.34,1.02-.53,1.52ZM240.24,424.64c-.18-.51-.34-1.01-.5-1.52l.38-.13c.16.51.32,1.01.5,1.52l-.38.13ZM355.45,422.3l-.38-.12c.16-.51.3-1.02.43-1.54l.38.12c-.14.51-.29,1.02-.44,1.54h.01ZM239.28,421.56c-.14-.51-.29-1.02-.42-1.55l.38-.1c.13.51.27,1.03.42,1.54l-.38.11ZM356.29,419.19l-.38-.1c.13-.51.24-1.04.35-1.55l.39.08c-.11.53-.22,1.04-.35,1.57ZM238.48,418.46c-.11-.53-.22-1.04-.34-1.57l.4-.08c.11.53.22,1.04.34,1.55l-.38.1h-.02ZM356.97,416.05l-.4-.08c.09-.53.19-1.04.27-1.57l.4.06c-.08.53-.18,1.06-.28,1.59ZM237.84,415.3c-.1-.53-.18-1.05-.26-1.59l.4-.06c.08.53.16,1.06.26,1.57l-.4.06h0ZM357.47,412.88l-.4-.05c.06-.53.13-1.06.19-1.59l.4.05c-.07.53-.12,1.07-.19,1.6h0ZM237.38,412.13c-.06-.53-.13-1.05-.18-1.6l.4-.03c.05.53.11,1.05.16,1.58l-.4.05h.02ZM357.8,409.68l-.4-.03c.05-.53.08-1.06.09-1.59h.4c-.03.56-.06,1.09-.11,1.62h.01ZM237.09,408.93c-.03-.53-.06-1.07-.08-1.6h.4c.02.51.05,1.04.08,1.59l-.4.03h0ZM357.96,406.48h-.4c0-.54.01-1.07.01-1.6h.4c0,.55,0,1.07-.02,1.6ZM236.96,405.73v-1.61h.4v1.61h-.4ZM357.6,404.79c0-.53,0-1.07-.01-1.6h.4c0,.53.01,1.06.01,1.6h-.4ZM237.4,402.52h-.4c.02-.55.05-1.09.08-1.61l.4.03c-.03.53-.06,1.06-.08,1.6h0ZM357.5,401.59c-.03-.53-.06-1.06-.11-1.59l.4-.03c.05.53.08,1.07.11,1.61h-.4ZM237.6,399.34l-.4-.03c.05-.53.11-1.07.16-1.6l.4.05c-.06.53-.11,1.06-.16,1.59ZM357.25,398.42c-.07-.53-.12-1.05-.19-1.59l.4-.05c.06.53.13,1.06.19,1.61l-.4.04h0ZM237.97,396.18l-.4-.06c.08-.53.16-1.05.26-1.59l.4.07c-.1.53-.18,1.04-.26,1.57h0ZM356.83,395.25c-.08-.53-.18-1.05-.28-1.57l.4-.08c.1.53.19,1.06.27,1.59l-.4.06ZM238.52,393.03l-.4-.08c.11-.53.22-1.05.34-1.57l.38.08c-.11.51-.22,1.04-.34,1.57h.02ZM356.24,392.13c-.11-.53-.22-1.04-.35-1.55l.39-.1c.13.51.24,1.04.35,1.57l-.39.08ZM239.22,389.92l-.38-.09c.13-.51.27-1.04.42-1.56l.38.11c-.14.51-.29,1.02-.42,1.54ZM355.49,389.02c-.15-.51-.29-1.02-.44-1.54l.39-.11c.16.51.3,1.02.44,1.54l-.38.11h-.01ZM240.1,386.84l-.38-.11c.16-.51.34-1.02.5-1.54l.38.13c-.18.5-.34,1.01-.5,1.52ZM354.57,385.96c-.16-.51-.33-1.01-.53-1.5l.38-.13c.18.5.35,1.01.53,1.52l-.39.13v-.02ZM241.14,383.82l-.37-.14c.19-.5.38-1.01.58-1.51l.37.15c-.19.5-.4.99-.58,1.49h0ZM353.49,382.97c-.19-.5-.4-.99-.59-1.47l.37-.16c.21.5.4.99.61,1.49l-.37.15h-.02ZM242.34,380.86l-.37-.16c.21-.5.43-.98.66-1.47l.37.17c-.22.48-.45.96-.66,1.46ZM352.25,380.04c-.22-.48-.44-.96-.67-1.44l.35-.18c.24.48.46.96.69,1.46l-.37.16ZM243.68,377.96l-.35-.17c.24-.48.48-.96.74-1.43l.35.19c-.26.46-.5.94-.74,1.43v-.02ZM350.87,377.17c-.24-.46-.5-.95-.75-1.41l.35-.19c.26.46.51.94.75,1.41l-.35.19ZM245.19,375.14l-.35-.19c.27-.46.54-.93.82-1.39l.34.21c-.27.45-.54.91-.8,1.38ZM349.33,374.39c-.27-.46-.54-.91-.83-1.36l.34-.21c.29.45.56.91.83,1.38l-.35.21v-.02ZM246.85,372.4l-.34-.21c.29-.45.59-.9.88-1.35l.34.22c-.3.43-.59.88-.88,1.33ZM347.64,371.68c-.29-.45-.59-.88-.9-1.31l.34-.22c.3.43.6.88.89,1.33l-.33.22v-.02ZM248.64,369.76l-.32-.24c.32-.43.62-.86.96-1.3l.32.24c-.32.42-.64.85-.94,1.28l-.02.02ZM345.81,369.07c-.32-.43-.64-.85-.96-1.27l.32-.24c.34.42.66.85.98,1.28l-.32.24-.02-.02ZM250.57,367.21l-.32-.26c.34-.42.67-.83,1.02-1.23l.3.26c-.34.4-.69.82-1.01,1.23ZM343.85,366.56c-.34-.42-.69-.82-1.03-1.22l.3-.26c.35.4.7.82,1.04,1.22l-.3.26h-.01ZM252.62,364.78l-.3-.27c.35-.4.72-.8,1.09-1.19l.29.27c-.37.38-.72.78-1.07,1.17v.02ZM341.77,364.15c-.35-.38-.72-.78-1.09-1.15l.29-.27c.37.38.73.77,1.1,1.17l-.29.27v-.02ZM254.81,362.46l-.29-.29c.38-.38.75-.75,1.15-1.12l.27.29c-.38.37-.77.74-1.14,1.12ZM339.54,361.86c-.39-.37-.77-.74-1.15-1.1l.27-.29c.4.37.78.74,1.17,1.1l-.27.29h-.01ZM257.12,360.26l-.27-.3c.4-.35.8-.72,1.2-1.06l.26.3c-.4.35-.8.7-1.2,1.06h.02ZM337.21,359.7c-.4-.35-.8-.7-1.22-1.04l.26-.3c.42.34.82.69,1.22,1.04l-.26.3ZM259.53,358.18l-.26-.3c.42-.34.83-.67,1.26-.99l.24.32c-.42.32-.83.66-1.25.99v-.02ZM334.76,357.65c-.42-.34-.83-.66-1.27-.98l.24-.32c.43.32.85.66,1.26.98l-.26.32h.02ZM262.06,356.23l-.24-.32c.43-.32.86-.62,1.31-.93l.22.34c-.43.3-.86.61-1.3.93v-.02ZM332.2,355.73c-.43-.3-.86-.61-1.31-.91l.22-.34c.45.3.88.61,1.33.91l-.22.32-.02.02ZM264.68,354.42l-.22-.34c.45-.29.9-.58,1.36-.86l.21.34c-.45.27-.9.56-1.34.85v.02ZM329.56,353.95c-.45-.29-.9-.56-1.36-.83l.21-.34c.46.27.91.56,1.38.85l-.21.34v-.02ZM267.38,352.75l-.19-.35c.46-.27.93-.53,1.39-.78l.19.35c-.46.26-.93.51-1.39.78ZM326.81,352.32c-.46-.26-.93-.51-1.41-.77l.19-.35c.48.26.94.51,1.41.77l-.19.35ZM270.18,351.23l-.18-.35c.48-.24.96-.48,1.44-.7l.18.37c-.48.22-.96.46-1.42.7l-.02-.02ZM323.98,350.83c-.48-.24-.96-.46-1.44-.69l.16-.37c.48.22.98.45,1.46.69l-.18.35v.02ZM273.04,349.85l-.16-.37c.48-.22.98-.43,1.47-.62l.16.37c-.5.21-.98.42-1.46.62h-.02ZM321.08,349.5c-.49-.21-.97-.42-1.47-.61l.15-.37c.49.19.99.4,1.48.61l-.16.37ZM275.99,348.64l-.14-.37c.5-.19,1.01-.38,1.5-.56l.13.38c-.5.18-1.01.35-1.5.54h.02ZM318.11,348.32c-.49-.18-1.01-.35-1.5-.53l.13-.38c.51.18,1.02.35,1.52.53l-.15.37v.02ZM278.99,347.58l-.13-.38c.51-.16,1.02-.32,1.54-.48l.11.38c-.51.14-1.02.3-1.52.46v.02ZM315.07,347.29c-.51-.16-1.02-.3-1.54-.45l.11-.38c.51.14,1.02.29,1.54.45l-.11.38ZM282.05,346.68l-.1-.38c.51-.13,1.04-.27,1.55-.38l.1.38c-.51.13-1.04.26-1.55.38ZM312,346.44c-.51-.13-1.02-.26-1.55-.37l.08-.38c.53.11,1.04.24,1.57.37l-.09.38ZM285.15,345.95l-.08-.4c.53-.11,1.04-.21,1.57-.3l.06.4c-.53.1-1.04.19-1.57.3h.02ZM308.9,345.76c-.53-.1-1.04-.19-1.57-.27l.06-.4c.53.08,1.05.18,1.58.29l-.08.4v-.02ZM288.29,345.37l-.06-.4c.53-.08,1.06-.16,1.58-.22l.05.4c-.53.06-1.06.14-1.58.22h.02ZM305.75,345.24c-.53-.08-1.05-.14-1.58-.19l.05-.4c.53.06,1.05.13,1.6.19l-.05.4h-.01ZM291.45,344.97l-.03-.4c.53-.05,1.06-.1,1.6-.14l.03.4c-.53.03-1.06.08-1.58.14h-.02ZM302.58,344.89c-.53-.05-1.06-.08-1.58-.11v-.4c.56.03,1.09.06,1.63.11l-.03.4h-.02ZM294.62,344.75v-.4c.51-.03,1.06-.05,1.58-.05v.4c-.53,0-1.06.03-1.58.05ZM299.4,344.71c-.53-.02-1.06-.03-1.6-.03v-.4c.54,0,1.07,0,1.6.03v.4Z"/>
    </clipPath>
  </defs>
  <g class="st3">
    <g class="st4">
      <path class="st2" d="M293.29,483.88c-41.85,0-75.9-34.04-75.9-75.9s34.04-75.9,75.9-75.9,75.9,34.04,75.9,75.9-34.04,75.9-75.9,75.9ZM293.29,340.55c-37.17,0-67.42,30.24-67.42,67.42s30.24,67.42,67.42,67.42,67.42-30.24,67.42-67.42-30.24-67.42-67.42-67.42Z"/>
      <g>
        <path class="st2" d="M297.9,465.47v-.4c.53,0,1.06,0,1.58-.03v.4c-.53.01-1.06.03-1.58.03ZM296.3,465.46c-.53,0-1.07-.03-1.6-.05v-.4c.54.03,1.07.05,1.62.05v.4h-.02ZM301.11,465.36v-.4c.51-.03,1.04-.06,1.57-.11l.03.4c-.53.05-1.07.08-1.6.11ZM293.1,465.31c-.53-.03-1.07-.08-1.6-.15l.03-.4c.53.05,1.06.1,1.58.15l-.03.4h.02ZM304.31,465.09l-.05-.4c.53-.06,1.06-.13,1.59-.19l.05.4c-.53.08-1.05.15-1.59.19ZM289.9,465.01c-.53-.06-1.06-.15-1.58-.22l.06-.4c.53.08,1.06.15,1.58.22l-.05.4h-.02ZM307.47,464.65l-.06-.4c.53-.08,1.04-.17,1.57-.29l.08.4c-.53.09-1.05.19-1.59.29ZM286.73,464.53c-.53-.1-1.06-.19-1.58-.3l.08-.4c.53.11,1.04.21,1.57.3l-.06.4ZM310.63,464.03l-.08-.38c.53-.12,1.04-.24,1.55-.37l.1.39c-.51.13-1.04.26-1.57.37ZM283.58,463.87c-.53-.13-1.04-.26-1.55-.39l.1-.38c.51.13,1.02.26,1.55.38l-.1.39ZM313.75,463.26l-.11-.38c.51-.15,1.02-.29,1.53-.45l.12.38c-.51.16-1.02.3-1.54.45ZM280.48,463.05c-.51-.15-1.02-.3-1.54-.46l.13-.39c.51.16,1.01.32,1.52.47l-.11.38ZM316.8,462.32l-.13-.39c.5-.17,1.01-.35,1.5-.53l.15.37c-.49.19-1.01.37-1.52.53v.02ZM277.43,462.06c-.51-.18-1.01-.37-1.5-.56l.14-.37c.5.19.99.37,1.5.54l-.13.39h-.02ZM319.82,461.21l-.15-.37c.5-.19.98-.4,1.47-.61l.16.37c-.5.21-.98.42-1.47.61h-.01ZM274.42,460.92c-.5-.21-.99-.42-1.47-.64l.16-.37c.48.22.98.43,1.47.62l-.16.37h0ZM322.75,459.94l-.16-.37c.48-.22.96-.44,1.44-.69l.17.35c-.48.24-.96.46-1.44.69h-.02ZM271.48,459.61c-.48-.22-.96-.46-1.44-.71l.18-.35c.48.24.94.48,1.44.71l-.18.37h0ZM325.63,458.52l-.19-.35c.46-.24.93-.5,1.39-.75l.19.35c-.46.26-.93.51-1.41.77h.01ZM268.61,458.15c-.46-.26-.94-.51-1.41-.78l.19-.35c.46.28.93.53,1.39.79l-.19.35h.02ZM328.43,456.97l-.21-.33c.44-.27.91-.55,1.36-.83l.21.33c-.45.29-.91.56-1.36.83ZM265.83,456.54c-.46-.29-.91-.56-1.36-.87l.22-.33c.45.29.9.58,1.34.85l-.21.34h0ZM331.13,455.25l-.23-.34c.45-.29.88-.59,1.32-.89l.22.32c-.43.3-.88.61-1.31.91ZM263.14,454.78c-.45-.3-.88-.61-1.31-.93l.24-.32c.43.32.86.62,1.3.93l-.22.34h0ZM333.74,453.4l-.24-.32c.44-.32.85-.64,1.27-.98l.26.32c-.42.33-.85.66-1.27.98h-.01ZM260.55,452.89c-.43-.32-.85-.66-1.26-1l.26-.3c.42.33.83.67,1.25.99l-.24.32h0ZM336.25,451.4l-.26-.3c.4-.34.82-.69,1.22-1.04l.26.3c-.4.35-.8.71-1.22,1.04ZM258.06,450.85c-.4-.35-.8-.71-1.2-1.05l.27-.3c.4.35.8.7,1.2,1.05l-.26.3h-.02ZM338.66,449.28l-.27-.29c.38-.37.76-.73,1.15-1.11l.27.29c-.38.37-.77.73-1.17,1.11h.02ZM255.68,448.7c-.38-.37-.77-.73-1.15-1.12l.29-.29c.37.38.75.75,1.14,1.12l-.27.29ZM340.95,447.03l-.29-.28c.37-.38.73-.77,1.09-1.17l.29.28c-.37.4-.73.78-1.1,1.17h.01ZM253.42,446.42c-.37-.39-.74-.79-1.09-1.18l.3-.28c.35.4.72.79,1.07,1.17l-.29.27v.02ZM343.13,444.67l-.3-.26c.35-.4.69-.8,1.04-1.22l.3.26c-.34.42-.69.82-1.04,1.23h0ZM251.28,444.03c-.35-.4-.69-.82-1.02-1.23l.32-.26c.34.42.67.83,1.01,1.23l-.3.26ZM345.17,442.19l-.32-.24c.32-.42.66-.85.96-1.27l.32.24c-.32.43-.64.86-.98,1.28v-.02ZM249.28,441.53c-.32-.43-.64-.85-.96-1.3l.32-.24c.3.43.62.86.94,1.28l-.32.24h.02ZM347.08,439.61l-.32-.22c.3-.44.6-.88.89-1.32l.33.22c-.3.45-.59.9-.91,1.33h0ZM247.41,438.92c-.3-.45-.59-.88-.88-1.35l.34-.21c.29.45.58.9.88,1.33l-.34.23ZM348.85,436.92l-.34-.21c.29-.45.56-.91.83-1.36l.35.21c-.27.46-.54.93-.83,1.38h-.01ZM245.68,436.23c-.27-.46-.54-.91-.82-1.38l.35-.19c.26.46.53.91.8,1.37l-.34.21h0ZM350.48,434.15l-.35-.19c.25-.46.51-.93.75-1.41l.35.19c-.24.48-.5.95-.75,1.43h0ZM244.08,433.44c-.26-.46-.5-.95-.74-1.43l.35-.17c.24.48.48.94.74,1.41l-.35.19ZM351.95,431.3l-.35-.17c.24-.48.46-.96.67-1.45l.37.16c-.22.49-.45.98-.69,1.46ZM242.66,430.58c-.22-.48-.45-.98-.66-1.46l.37-.16c.21.48.43.98.66,1.45l-.37.17ZM353.28,428.35l-.37-.16c.21-.49.4-.99.59-1.49l.37.15c-.19.5-.4,1-.61,1.49v.02ZM241.38,427.65c-.21-.5-.4-1-.59-1.49l.37-.15c.19.5.38.99.58,1.49l-.37.15h.02ZM354.45,425.36l-.39-.13c.18-.5.35-1.01.53-1.52l.39.13c-.16.51-.34,1.02-.53,1.52ZM240.24,424.64c-.18-.51-.34-1.01-.5-1.52l.38-.13c.16.51.32,1.01.5,1.52l-.38.13ZM355.45,422.3l-.38-.12c.16-.51.3-1.02.43-1.54l.38.12c-.14.51-.29,1.02-.44,1.54h.01ZM239.28,421.56c-.14-.51-.29-1.02-.42-1.55l.38-.1c.13.51.27,1.03.42,1.54l-.38.11ZM356.29,419.19l-.38-.1c.13-.51.24-1.04.35-1.55l.39.08c-.11.53-.22,1.04-.35,1.57ZM238.48,418.46c-.11-.53-.22-1.04-.34-1.57l.4-.08c.11.53.22,1.04.34,1.55l-.38.1h-.02ZM356.97,416.05l-.4-.08c.09-.53.19-1.04.27-1.57l.4.06c-.08.53-.18,1.06-.28,1.59ZM237.84,415.3c-.1-.53-.18-1.05-.26-1.59l.4-.06c.08.53.16,1.06.26,1.57l-.4.06h0ZM357.47,412.88l-.4-.05c.06-.53.13-1.06.19-1.59l.4.05c-.07.53-.12,1.07-.19,1.6h0ZM237.38,412.13c-.06-.53-.13-1.05-.18-1.6l.4-.03c.05.53.11,1.05.16,1.58l-.4.05h.02ZM357.8,409.68l-.4-.03c.05-.53.08-1.06.09-1.59h.4c-.03.56-.06,1.09-.11,1.62h.01ZM237.09,408.93c-.03-.53-.06-1.07-.08-1.6h.4c.02.51.05,1.04.08,1.59l-.4.03h0ZM357.96,406.48h-.4c0-.54.01-1.07.01-1.6h.4c0,.55,0,1.07-.02,1.6ZM236.96,405.73v-1.61h.4v1.61h-.4ZM357.6,404.79c0-.53,0-1.07-.01-1.6h.4c0,.53.01,1.06.01,1.6h-.4ZM237.4,402.52h-.4c.02-.55.05-1.09.08-1.61l.4.03c-.03.53-.06,1.06-.08,1.6h0ZM357.5,401.59c-.03-.53-.06-1.06-.11-1.59l.4-.03c.05.53.08,1.07.11,1.61h-.4ZM237.6,399.34l-.4-.03c.05-.53.11-1.07.16-1.6l.4.05c-.06.53-.11,1.06-.16,1.59ZM357.25,398.42c-.07-.53-.12-1.05-.19-1.59l.4-.05c.06.53.13,1.06.19,1.61l-.4.04h0ZM237.97,396.18l-.4-.06c.08-.53.16-1.05.26-1.59l.4.07c-.1.53-.18,1.04-.26,1.57h0ZM356.83,395.25c-.08-.53-.18-1.05-.28-1.57l.4-.08c.1.53.19,1.06.27,1.59l-.4.06ZM238.52,393.03l-.4-.08c.11-.53.22-1.05.34-1.57l.38.08c-.11.51-.22,1.04-.34,1.57h.02ZM356.24,392.13c-.11-.53-.22-1.04-.35-1.55l.39-.1c.13.51.24,1.04.35,1.57l-.39.08ZM239.22,389.92l-.38-.09c.13-.51.27-1.04.42-1.56l.38.11c-.14.51-.29,1.02-.42,1.54ZM355.49,389.02c-.15-.51-.29-1.02-.44-1.54l.39-.11c.16.51.3,1.02.44,1.54l-.38.11h-.01ZM240.1,386.84l-.38-.11c.16-.51.34-1.02.5-1.54l.38.13c-.18.5-.34,1.01-.5,1.52ZM354.57,385.96c-.16-.51-.33-1.01-.53-1.5l.38-.13c.18.5.35,1.01.53,1.52l-.39.13v-.02ZM241.14,383.82l-.37-.14c.19-.5.38-1.01.58-1.51l.37.15c-.19.5-.4.99-.58,1.49h0ZM353.49,382.97c-.19-.5-.4-.99-.59-1.47l.37-.16c.21.5.4.99.61,1.49l-.37.15h-.02ZM242.34,380.86l-.37-.16c.21-.5.43-.98.66-1.47l.37.17c-.22.48-.45.96-.66,1.46ZM352.25,380.04c-.22-.48-.44-.96-.67-1.44l.35-.18c.24.48.46.96.69,1.46l-.37.16ZM243.68,377.96l-.35-.17c.24-.48.48-.96.74-1.43l.35.19c-.26.46-.5.94-.74,1.43v-.02ZM350.87,377.17c-.24-.46-.5-.95-.75-1.41l.35-.19c.26.46.51.94.75,1.41l-.35.19ZM245.19,375.14l-.35-.19c.27-.46.54-.93.82-1.39l.34.21c-.27.45-.54.91-.8,1.38ZM349.33,374.39c-.27-.46-.54-.91-.83-1.36l.34-.21c.29.45.56.91.83,1.38l-.35.21v-.02ZM246.85,372.4l-.34-.21c.29-.45.59-.9.88-1.35l.34.22c-.3.43-.59.88-.88,1.33ZM347.64,371.68c-.29-.45-.59-.88-.9-1.31l.34-.22c.3.43.6.88.89,1.33l-.33.22v-.02ZM248.64,369.76l-.32-.24c.32-.43.62-.86.96-1.3l.32.24c-.32.42-.64.85-.94,1.28l-.02.02ZM345.81,369.07c-.32-.43-.64-.85-.96-1.27l.32-.24c.34.42.66.85.98,1.28l-.32.24-.02-.02ZM250.57,367.21l-.32-.26c.34-.42.67-.83,1.02-1.23l.3.26c-.34.4-.69.82-1.01,1.23ZM343.85,366.56c-.34-.42-.69-.82-1.03-1.22l.3-.26c.35.4.7.82,1.04,1.22l-.3.26h-.01ZM252.62,364.78l-.3-.27c.35-.4.72-.8,1.09-1.19l.29.27c-.37.38-.72.78-1.07,1.17v.02ZM341.77,364.15c-.35-.38-.72-.78-1.09-1.15l.29-.27c.37.38.73.77,1.1,1.17l-.29.27v-.02ZM254.81,362.46l-.29-.29c.38-.38.75-.75,1.15-1.12l.27.29c-.38.37-.77.74-1.14,1.12ZM339.54,361.86c-.39-.37-.77-.74-1.15-1.1l.27-.29c.4.37.78.74,1.17,1.1l-.27.29h-.01ZM257.12,360.26l-.27-.3c.4-.35.8-.72,1.2-1.06l.26.3c-.4.35-.8.7-1.2,1.06h.02ZM337.21,359.7c-.4-.35-.8-.7-1.22-1.04l.26-.3c.42.34.82.69,1.22,1.04l-.26.3ZM259.53,358.18l-.26-.3c.42-.34.83-.67,1.26-.99l.24.32c-.42.32-.83.66-1.25.99v-.02ZM334.76,357.65c-.42-.34-.83-.66-1.27-.98l.24-.32c.43.32.85.66,1.26.98l-.26.32h.02ZM262.06,356.23l-.24-.32c.43-.32.86-.62,1.31-.93l.22.34c-.43.3-.86.61-1.3.93v-.02ZM332.2,355.73c-.43-.3-.86-.61-1.31-.91l.22-.34c.45.3.88.61,1.33.91l-.22.32-.02.02ZM264.68,354.42l-.22-.34c.45-.29.9-.58,1.36-.86l.21.34c-.45.27-.9.56-1.34.85v.02ZM329.56,353.95c-.45-.29-.9-.56-1.36-.83l.21-.34c.46.27.91.56,1.38.85l-.21.34v-.02ZM267.38,352.75l-.19-.35c.46-.27.93-.53,1.39-.78l.19.35c-.46.26-.93.51-1.39.78ZM326.81,352.32c-.46-.26-.93-.51-1.41-.77l.19-.35c.48.26.94.51,1.41.77l-.19.35ZM270.18,351.23l-.18-.35c.48-.24.96-.48,1.44-.7l.18.37c-.48.22-.96.46-1.42.7l-.02-.02ZM323.98,350.83c-.48-.24-.96-.46-1.44-.69l.16-.37c.48.22.98.45,1.46.69l-.18.35v.02ZM273.04,349.85l-.16-.37c.48-.22.98-.43,1.47-.62l.16.37c-.5.21-.98.42-1.46.62h-.02ZM321.08,349.5c-.49-.21-.97-.42-1.47-.61l.15-.37c.49.19.99.4,1.48.61l-.16.37ZM275.99,348.64l-.14-.37c.5-.19,1.01-.38,1.5-.56l.13.38c-.5.18-1.01.35-1.5.54h.02ZM318.11,348.32c-.49-.18-1.01-.35-1.5-.53l.13-.38c.51.18,1.02.35,1.52.53l-.15.37v.02ZM278.99,347.58l-.13-.38c.51-.16,1.02-.32,1.54-.48l.11.38c-.51.14-1.02.3-1.52.46v.02ZM315.07,347.29c-.51-.16-1.02-.3-1.54-.45l.11-.38c.51.14,1.02.29,1.54.45l-.11.38ZM282.05,346.68l-.1-.38c.51-.13,1.04-.27,1.55-.38l.1.38c-.51.13-1.04.26-1.55.38ZM312,346.44c-.51-.13-1.02-.26-1.55-.37l.08-.38c.53.11,1.04.24,1.57.37l-.09.38ZM285.15,345.95l-.08-.4c.53-.11,1.04-.21,1.57-.3l.06.4c-.53.1-1.04.19-1.57.3h.02ZM308.9,345.76c-.53-.1-1.04-.19-1.57-.27l.06-.4c.53.08,1.05.18,1.58.29l-.08.4v-.02ZM288.29,345.37l-.06-.4c.53-.08,1.06-.16,1.58-.22l.05.4c-.53.06-1.06.14-1.58.22h.02ZM305.75,345.24c-.53-.08-1.05-.14-1.58-.19l.05-.4c.53.06,1.05.13,1.6.19l-.05.4h-.01ZM291.45,344.97l-.03-.4c.53-.05,1.06-.1,1.6-.14l.03.4c-.53.03-1.06.08-1.58.14h-.02ZM302.58,344.89c-.53-.05-1.06-.08-1.58-.11v-.4c.56.03,1.09.06,1.63.11l-.03.4h-.02ZM294.62,344.75v-.4c.51-.03,1.06-.05,1.58-.05v.4c-.53,0-1.06.03-1.58.05ZM299.4,344.71c-.53-.02-1.06-.03-1.6-.03v-.4c.54,0,1.07,0,1.6.03v.4Z"/>
        <g class="st1">
          <path class="st2" d="M299.4,344.28h-1.6,1.6Z"/>
          <rect class="st2" x="297.8" y="344.28" width="1.6" height=".43"/>
          <rect class="st2" x="294.62" y="344.3" width="1.58" height=".45"/>
          <rect class="st2" x="294.62" y="344.75" width="1.58" height="0"/>
          <rect class="st2" x="301" y="344.38" width="1.63" height=".37"/>
          <rect class="st2" x="301" y="344.75" width="1.63" height=".15"/>
          <rect class="st2" x="291.42" y="344.43" width="1.63" height=".32"/>
          <rect class="st2" x="291.42" y="344.75" width="1.63" height=".23"/>
          <rect class="st2" x="304.17" y="344.65" width="1.64" height=".09"/>
          <rect class="st2" x="304.17" y="344.75" width="1.64" height=".46"/>
          <rect class="st2" x="304.17" y="345.21" width="1.64" height=".04"/>
          <rect class="st2" x="288.22" y="344.75" width="1.63" height=".46"/>
          <rect class="st2" x="288.22" y="345.21" width="1.63" height=".16"/>
          <rect class="st2" x="307.33" y="345.08" width="1.64" height=".12"/>
          <rect class="st2" x="307.33" y="345.21" width="1.64" height=".46"/>
          <rect class="st2" x="307.33" y="345.67" width="1.64" height=".1"/>
          <rect class="st2" x="285.07" y="345.24" width="1.63" height=".43"/>
          <rect class="st2" x="285.07" y="345.67" width="1.63" height=".28"/>
          <rect class="st2" x="310.45" y="345.69" width="1.64" height=".44"/>
          <rect class="st2" x="310.45" y="346.13" width="1.64" height=".31"/>
          <rect class="st2" x="281.95" y="345.92" width="1.65" height=".22"/>
          <rect class="st2" x="281.95" y="346.13" width="1.65" height=".46"/>
          <rect class="st2" x="281.95" y="346.6" width="1.65" height=".09"/>
          <rect class="st2" x="313.54" y="346.46" width="1.65" height=".14"/>
          <rect class="st2" x="313.54" y="346.6" width="1.65" height=".46"/>
          <rect class="st2" x="313.54" y="347.06" width="1.65" height=".23"/>
          <rect class="st2" x="278.87" y="346.72" width="1.65" height=".34"/>
          <rect class="st2" x="278.87" y="347.06" width="1.65" height=".46"/>
          <rect class="st2" x="278.87" y="347.52" width="1.65" height=".06"/>
          <rect class="st2" x="316.61" y="347.41" width="1.65" height=".12"/>
          <rect class="st2" x="316.61" y="347.52" width="1.65" height=".46"/>
          <rect class="st2" x="316.61" y="347.98" width="1.65" height=".33"/>
          <rect class="st2" x="275.84" y="347.71" width="1.63" height=".27"/>
          <rect class="st2" x="275.84" y="347.98" width="1.63" height=".46"/>
          <rect class="st2" x="275.84" y="348.45" width="1.63" height=".19"/>
          <rect class="st2" x="319.61" y="348.53" width="1.63" height=".38"/>
          <rect class="st2" x="319.61" y="348.91" width="1.63" height=".46"/>
          <rect class="st2" x="319.61" y="349.37" width="1.63" height=".13"/>
          <rect class="st2" x="272.88" y="348.86" width="1.63" height=".05"/>
          <rect class="st2" x="272.88" y="348.91" width="1.63" height=".46"/>
          <rect class="st2" x="272.88" y="349.37" width="1.63" height=".46"/>
          <rect class="st2" x="272.88" y="349.84" width="1.63" height=".02"/>
          <rect class="st2" x="322.54" y="349.77" width="1.62" height=".06"/>
          <rect class="st2" x="322.54" y="349.84" width="1.62" height=".46"/>
          <rect class="st2" x="322.54" y="350.3" width="1.62" height=".46"/>
          <rect class="st2" x="322.54" y="350.76" width="1.62" height=".07"/>
          <rect class="st2" x="270.01" y="350.18" width="1.62" height=".12"/>
          <rect class="st2" x="270.01" y="350.3" width="1.62" height=".46"/>
          <rect class="st2" x="270.01" y="350.76" width="1.62" height=".46"/>
          <rect class="st2" x="270.01" y="351.22" width="1.62" height=".03"/>
          <rect class="st2" x="325.41" y="351.2" width="1.6" height=".02"/>
          <rect class="st2" x="325.41" y="351.22" width="1.6" height=".46"/>
          <rect class="st2" x="325.41" y="351.69" width="1.6" height=".46"/>
          <rect class="st2" x="325.41" y="352.15" width="1.6" height=".17"/>
          <rect class="st2" x="267.19" y="351.62" width="1.58" height=".07"/>
          <rect class="st2" x="267.19" y="351.69" width="1.58" height=".46"/>
          <rect class="st2" x="267.19" y="352.15" width="1.58" height=".46"/>
          <rect class="st2" x="267.19" y="352.61" width="1.58" height=".14"/>
          <rect class="st2" x="328.2" y="352.79" width="1.59" height=".29"/>
          <rect class="st2" x="328.2" y="353.07" width="1.59" height=".46"/>
          <rect class="st2" x="328.2" y="353.54" width="1.59" height=".43"/>
          <rect class="st2" x="264.46" y="353.22" width="1.57" height=".32"/>
          <rect class="st2" x="264.46" y="353.54" width="1.57" height=".46"/>
          <rect class="st2" x="264.46" y="354" width="1.57" height=".42"/>
          <rect class="st2" x="330.89" y="354.48" width="1.55" height=".44"/>
          <rect class="st2" x="330.89" y="354.92" width="1.55" height=".46"/>
          <rect class="st2" x="330.89" y="355.39" width="1.55" height=".34"/>
          <rect class="st2" x="261.82" y="354.98" width="1.54" height=".41"/>
          <rect class="st2" x="261.82" y="355.39" width="1.54" height=".46"/>
          <rect class="st2" x="261.82" y="355.85" width="1.54" height=".39"/>
          <rect class="st2" x="333.5" y="356.36" width="1.5" height=".42"/>
          <rect class="st2" x="333.5" y="356.78" width="1.5" height=".46"/>
          <rect class="st2" x="333.5" y="357.24" width="1.5" height=".41"/>
          <rect class="st2" x="259.27" y="356.88" width="1.5" height=".35"/>
          <rect class="st2" x="259.27" y="357.24" width="1.5" height=".46"/>
          <rect class="st2" x="259.27" y="357.7" width="1.5" height=".46"/>
          <rect class="st2" x="259.27" y="358.16" width="1.5" height=".03"/>
          <rect class="st2" x="335.99" y="358.36" width="1.47" height=".27"/>
          <rect class="st2" x="335.99" y="358.63" width="1.47" height=".46"/>
          <rect class="st2" x="335.99" y="359.09" width="1.47" height=".46"/>
          <rect class="st2" x="335.99" y="359.55" width="1.47" height=".15"/>
          <rect class="st2" x="256.84" y="358.9" width="1.46" height=".19"/>
          <rect class="st2" x="256.84" y="359.09" width="1.46" height=".46"/>
          <rect class="st2" x="256.84" y="359.55" width="1.46" height=".46"/>
          <rect class="st2" x="256.84" y="360.01" width="1.46" height=".25"/>
          <rect class="st2" x="338.39" y="360.47" width="1.44" height="0"/>
          <rect class="st2" x="338.39" y="360.48" width="1.44" height=".46"/>
          <rect class="st2" x="338.39" y="360.94" width="1.44" height=".46"/>
          <rect class="st2" x="338.39" y="361.4" width="1.44" height=".46"/>
          <rect class="st2" x="254.52" y="361.05" width="1.42" height=".35"/>
          <rect class="st2" x="254.52" y="361.4" width="1.42" height=".46"/>
          <rect class="st2" x="254.52" y="361.87" width="1.42" height=".46"/>
          <rect class="st2" x="254.52" y="362.33" width="1.42" height=".13"/>
          <rect class="st2" x="340.68" y="362.73" width="1.39" height=".06"/>
          <rect class="st2" x="340.68" y="362.79" width="1.39" height=".46"/>
          <rect class="st2" x="340.68" y="363.25" width="1.39" height=".46"/>
          <rect class="st2" x="340.68" y="363.72" width="1.39" height=".45"/>
          <rect class="st2" x="252.32" y="363.32" width="1.38" height=".39"/>
          <rect class="st2" x="252.32" y="363.72" width="1.38" height=".46"/>
          <rect class="st2" x="252.32" y="364.18" width="1.38" height=".46"/>
          <rect class="st2" x="252.32" y="364.64" width="1.38" height=".14"/>
          <rect class="st2" x="342.82" y="365.08" width="1.34" height=".02"/>
          <rect class="st2" x="342.82" y="365.1" width="1.34" height=".46"/>
          <rect class="st2" x="342.82" y="365.57" width="1.34" height=".46"/>
          <rect class="st2" x="342.82" y="366.03" width="1.34" height=".46"/>
          <rect class="st2" x="342.82" y="366.49" width="1.34" height=".06"/>
          <rect class="st2" x="250.25" y="365.72" width="1.33" height=".31"/>
          <rect class="st2" x="250.25" y="366.03" width="1.33" height=".46"/>
          <rect class="st2" x="250.25" y="366.49" width="1.33" height=".46"/>
          <rect class="st2" x="250.25" y="366.96" width="1.33" height=".26"/>
          <rect class="st2" x="344.85" y="367.57" width="1.3" height=".32"/>
          <rect class="st2" x="344.85" y="367.88" width="1.3" height=".46"/>
          <rect class="st2" x="344.85" y="368.34" width="1.3" height=".46"/>
          <rect class="st2" x="344.85" y="368.81" width="1.3" height=".28"/>
          <rect class="st2" x="248.32" y="368.22" width="1.28" height=".12"/>
          <rect class="st2" x="248.32" y="368.34" width="1.28" height=".46"/>
          <rect class="st2" x="248.32" y="368.81" width="1.28" height=".46"/>
          <rect class="st2" x="248.32" y="369.27" width="1.28" height=".46"/>
          <rect class="st2" x="248.32" y="369.73" width="1.28" height=".03"/>
          <rect class="st2" x="346.74" y="370.14" width="1.23" height=".05"/>
          <rect class="st2" x="346.74" y="370.19" width="1.23" height=".46"/>
          <rect class="st2" x="346.74" y="370.65" width="1.23" height=".46"/>
          <rect class="st2" x="346.74" y="371.1" width="1.23" height=".46"/>
          <rect class="st2" x="346.74" y="371.56" width="1.23" height=".14"/>
          <rect class="st2" x="246.51" y="370.85" width="1.22" height=".25"/>
          <rect class="st2" x="246.51" y="371.1" width="1.22" height=".46"/>
          <rect class="st2" x="246.51" y="371.56" width="1.22" height=".46"/>
          <rect class="st2" x="246.51" y="372.02" width="1.22" height=".39"/>
          <rect class="st2" x="348.5" y="372.82" width="1.17" height=".11"/>
          <rect class="st2" x="348.5" y="372.93" width="1.17" height=".46"/>
          <rect class="st2" x="348.5" y="373.39" width="1.17" height=".46"/>
          <rect class="st2" x="348.5" y="373.84" width="1.17" height=".46"/>
          <rect class="st2" x="348.5" y="374.3" width="1.17" height=".1"/>
          <rect class="st2" x="244.83" y="373.55" width="1.15" height=".29"/>
          <rect class="st2" x="244.83" y="373.84" width="1.15" height=".46"/>
          <rect class="st2" x="244.83" y="374.3" width="1.15" height=".46"/>
          <rect class="st2" x="244.83" y="374.76" width="1.15" height=".38"/>
          <rect class="st2" x="350.11" y="375.57" width="1.1" height=".1"/>
          <rect class="st2" x="350.11" y="375.67" width="1.1" height=".46"/>
          <rect class="st2" x="350.11" y="376.13" width="1.1" height=".46"/>
          <rect class="st2" x="350.11" y="376.59" width="1.1" height=".46"/>
          <rect class="st2" x="350.11" y="377.04" width="1.1" height=".13"/>
          <rect class="st2" x="243.33" y="376.36" width="1.09" height=".23"/>
          <rect class="st2" x="243.33" y="376.59" width="1.09" height=".46"/>
          <rect class="st2" x="243.33" y="377.04" width="1.09" height=".46"/>
          <rect class="st2" x="243.33" y="377.5" width="1.09" height=".46"/>
          <rect class="st2" x="243.33" y="377.96" width="1.09" height=".02"/>
          <rect class="st2" x="351.59" y="378.42" width="1.04" height=".45"/>
          <rect class="st2" x="351.59" y="378.87" width="1.04" height=".46"/>
          <rect class="st2" x="351.59" y="379.33" width="1.04" height=".46"/>
          <rect class="st2" x="351.59" y="379.78" width="1.04" height=".26"/>
          <rect class="st2" x="241.97" y="379.22" width="1.02" height=".1"/>
          <rect class="st2" x="241.97" y="379.33" width="1.02" height=".46"/>
          <rect class="st2" x="241.97" y="379.78" width="1.02" height=".46"/>
          <rect class="st2" x="241.97" y="380.24" width="1.02" height=".46"/>
          <rect class="st2" x="241.97" y="380.7" width="1.02" height=".16"/>
          <rect class="st2" x="352.9" y="381.34" width=".98" height=".28"/>
          <rect class="st2" x="352.9" y="381.61" width=".98" height=".46"/>
          <rect class="st2" x="352.9" y="382.07" width=".98" height=".46"/>
          <rect class="st2" x="352.9" y="382.53" width=".98" height=".44"/>
          <rect class="st2" x="240.77" y="382.17" width=".94" height=".36"/>
          <rect class="st2" x="240.77" y="382.53" width=".94" height=".46"/>
          <rect class="st2" x="240.77" y="382.98" width=".94" height=".46"/>
          <rect class="st2" x="240.77" y="383.44" width=".94" height=".38"/>
          <rect class="st2" x="354.05" y="384.33" width=".91" height=".02"/>
          <rect class="st2" x="354.05" y="384.35" width=".91" height=".46"/>
          <rect class="st2" x="354.05" y="384.81" width=".91" height=".46"/>
          <rect class="st2" x="354.05" y="385.27" width=".91" height=".46"/>
          <rect class="st2" x="354.05" y="385.72" width=".91" height=".26"/>
          <rect class="st2" x="239.72" y="385.19" width=".88" height=".07"/>
          <rect class="st2" x="239.72" y="385.27" width=".88" height=".46"/>
          <rect class="st2" x="239.72" y="385.72" width=".88" height=".46"/>
          <rect class="st2" x="239.72" y="386.18" width=".88" height=".46"/>
          <rect class="st2" x="239.72" y="386.64" width=".88" height=".2"/>
          <rect class="st2" x="355.05" y="387.38" width=".83" height=".18"/>
          <rect class="st2" x="355.05" y="387.55" width=".83" height=".46"/>
          <rect class="st2" x="355.05" y="388.01" width=".83" height=".46"/>
          <rect class="st2" x="355.05" y="388.47" width=".83" height=".46"/>
          <rect class="st2" x="355.05" y="388.92" width=".83" height=".1"/>
          <rect class="st2" x="238.84" y="388.27" width=".8" height=".2"/>
          <rect class="st2" x="238.84" y="388.47" width=".8" height=".46"/>
          <rect class="st2" x="238.84" y="388.92" width=".8" height=".46"/>
          <rect class="st2" x="238.84" y="389.38" width=".8" height=".46"/>
          <rect class="st2" x="238.84" y="389.84" width=".8" height=".08"/>
          <rect class="st2" x="355.88" y="390.48" width=".74" height=".27"/>
          <rect class="st2" x="355.88" y="390.75" width=".74" height=".46"/>
          <rect class="st2" x="355.88" y="391.21" width=".74" height=".46"/>
          <rect class="st2" x="355.88" y="391.66" width=".74" height=".46"/>
          <rect class="st2" x="355.88" y="392.12" width=".74" height="0"/>
          <rect class="st2" x="238.12" y="391.38" width=".72" height=".29"/>
          <rect class="st2" x="238.12" y="391.66" width=".72" height=".46"/>
          <rect class="st2" x="238.12" y="392.12" width=".72" height=".46"/>
          <rect class="st2" x="238.12" y="392.58" width=".72" height=".45"/>
          <rect class="st2" x="356.56" y="393.6" width=".67" height=".35"/>
          <rect class="st2" x="356.56" y="393.95" width=".67" height=".46"/>
          <rect class="st2" x="356.56" y="394.41" width=".67" height=".46"/>
          <rect class="st2" x="356.56" y="394.86" width=".67" height=".39"/>
          <rect class="st2" x="237.57" y="394.53" width=".66" height=".33"/>
          <rect class="st2" x="237.57" y="394.86" width=".66" height=".46"/>
          <rect class="st2" x="237.57" y="395.32" width=".66" height=".46"/>
          <rect class="st2" x="237.57" y="395.78" width=".66" height=".4"/>
          <rect class="st2" x="357.05" y="396.79" width=".59" height=".36"/>
          <rect class="st2" x="357.05" y="397.15" width=".59" height=".46"/>
          <rect class="st2" x="357.05" y="397.6" width=".59" height=".38"/>
          <rect class="st2" x="357.05" y="397.99" width=".59" height=".38"/>
          <rect class="st2" x="357.05" y="398.37" width=".59" height=".07"/>
          <rect class="st2" x="237.2" y="397.7" width=".56" height=".29"/>
          <rect class="st2" x="237.2" y="397.99" width=".56" height=".38"/>
          <rect class="st2" x="237.2" y="398.37" width=".56" height=".38"/>
          <rect class="st2" x="237.2" y="398.75" width=".56" height=".38"/>
          <rect class="st2" x="237.2" y="399.14" width=".56" height=".2"/>
          <rect class="st2" x="357.39" y="399.97" width=".51" height=".31"/>
          <rect class="st2" x="357.39" y="400.28" width=".51" height=".38"/>
          <rect class="st2" x="357.39" y="400.67" width=".51" height=".38"/>
          <rect class="st2" x="357.39" y="401.05" width=".51" height=".38"/>
          <rect class="st2" x="357.39" y="401.43" width=".51" height=".16"/>
          <rect class="st2" x="237" y="400.91" width=".48" height=".14"/>
          <rect class="st2" x="237" y="401.05" width=".48" height=".38"/>
          <rect class="st2" x="237" y="401.43" width=".48" height=".38"/>
          <rect class="st2" x="237" y="401.81" width=".48" height=".38"/>
          <rect class="st2" x="237" y="402.2" width=".48" height=".34"/>
          <rect class="st2" x="357.58" y="403.19" width=".42" height=".15"/>
          <rect class="st2" x="357.58" y="403.35" width=".42" height=".38"/>
          <rect class="st2" x="357.58" y="403.73" width=".42" height=".38"/>
          <rect class="st2" x="357.58" y="404.11" width=".42" height=".38"/>
          <rect class="st2" x="357.58" y="404.49" width=".42" height=".3"/>
          <rect class="st2" x="236.96" y="404.12" width=".4" height=".37"/>
          <rect class="st2" x="236.96" y="404.49" width=".4" height=".38"/>
          <rect class="st2" x="236.96" y="404.88" width=".4" height=".39"/>
          <rect class="st2" x="236.96" y="405.26" width=".4" height=".39"/>
          <rect class="st2" x="236.96" y="405.65" width=".4" height=".08"/>
          <rect class="st2" x="357.57" y="404.88" width=".42" height=".39"/>
          <rect class="st2" x="357.57" y="405.26" width=".42" height=".39"/>
          <rect class="st2" x="357.57" y="405.65" width=".42" height=".39"/>
          <rect class="st2" x="357.57" y="406.04" width=".42" height=".39"/>
          <rect class="st2" x="357.57" y="406.43" width=".42" height=".05"/>
          <rect class="st2" x="237.01" y="407.33" width=".48" height=".26"/>
          <rect class="st2" x="237.01" y="407.59" width=".48" height=".39"/>
          <rect class="st2" x="237.01" y="407.98" width=".48" height=".39"/>
          <rect class="st2" x="237.01" y="408.37" width=".48" height=".39"/>
          <rect class="st2" x="237.01" y="408.75" width=".48" height=".19"/>
          <rect class="st2" x="357.41" y="408.06" width=".49" height=".3"/>
          <rect class="st2" x="357.41" y="408.37" width=".49" height=".39"/>
          <rect class="st2" x="357.41" y="408.75" width=".49" height=".39"/>
          <rect class="st2" x="357.41" y="409.14" width=".49" height=".39"/>
          <rect class="st2" x="357.41" y="409.53" width=".49" height=".15"/>
          <rect class="st2" x="237.2" y="410.5" width=".56" height=".19"/>
          <rect class="st2" x="237.2" y="410.69" width=".56" height=".39"/>
          <rect class="st2" x="237.2" y="411.08" width=".56" height=".39"/>
          <rect class="st2" x="237.2" y="411.47" width=".56" height=".39"/>
          <rect class="st2" x="237.2" y="411.86" width=".56" height=".27"/>
          <rect class="st2" x="357.07" y="411.25" width=".59" height=".22"/>
          <rect class="st2" x="357.07" y="411.47" width=".59" height=".39"/>
          <rect class="st2" x="357.07" y="411.86" width=".59" height=".39"/>
          <rect class="st2" x="357.07" y="412.24" width=".59" height=".39"/>
          <rect class="st2" x="357.07" y="412.63" width=".59" height=".27"/>
          <rect class="st2" x="237.59" y="413.65" width=".66" height=".14"/>
          <rect class="st2" x="237.59" y="413.8" width=".66" height=".39"/>
          <rect class="st2" x="237.59" y="414.18" width=".66" height=".39"/>
          <rect class="st2" x="237.59" y="414.57" width=".66" height=".39"/>
          <rect class="st2" x="237.59" y="414.96" width=".66" height=".34"/>
          <rect class="st2" x="356.58" y="414.41" width=".67" height=".17"/>
          <rect class="st2" x="356.58" y="414.57" width=".67" height=".39"/>
          <rect class="st2" x="356.58" y="414.96" width=".67" height=".39"/>
          <rect class="st2" x="356.58" y="415.35" width=".67" height=".39"/>
          <rect class="st2" x="356.58" y="415.73" width=".67" height=".32"/>
          <rect class="st2" x="238.15" y="416.81" width=".74" height=".09"/>
          <rect class="st2" x="238.15" y="416.9" width=".74" height=".39"/>
          <rect class="st2" x="238.15" y="417.29" width=".74" height=".39"/>
          <rect class="st2" x="238.15" y="417.67" width=".74" height=".39"/>
          <rect class="st2" x="238.15" y="418.06" width=".74" height=".39"/>
          <rect class="st2" x="238.15" y="418.45" width=".74" height="0"/>
          <rect class="st2" x="355.9" y="417.54" width=".73" height=".13"/>
          <rect class="st2" x="355.9" y="417.67" width=".73" height=".39"/>
          <rect class="st2" x="355.9" y="418.06" width=".73" height=".39"/>
          <rect class="st2" x="355.9" y="418.45" width=".73" height=".39"/>
          <rect class="st2" x="355.9" y="418.84" width=".73" height=".36"/>
          <rect class="st2" x="238.87" y="419.91" width=".8" height=".09"/>
          <rect class="st2" x="238.87" y="420" width=".8" height=".39"/>
          <rect class="st2" x="238.87" y="420.39" width=".8" height=".39"/>
          <rect class="st2" x="238.87" y="420.78" width=".8" height=".39"/>
          <rect class="st2" x="238.87" y="421.16" width=".8" height=".39"/>
          <rect class="st2" x="238.87" y="421.55" width=".8" height="0"/>
          <rect class="st2" x="355.07" y="420.65" width=".81" height=".13"/>
          <rect class="st2" x="355.07" y="420.78" width=".81" height=".39"/>
          <rect class="st2" x="355.07" y="421.16" width=".81" height=".39"/>
          <rect class="st2" x="355.07" y="421.55" width=".81" height=".39"/>
          <rect class="st2" x="355.07" y="421.94" width=".81" height=".36"/>
          <rect class="st2" x="239.75" y="422.99" width=".88" height=".12"/>
          <rect class="st2" x="239.75" y="423.1" width=".88" height=".39"/>
          <rect class="st2" x="239.75" y="423.49" width=".88" height=".39"/>
          <rect class="st2" x="239.75" y="423.88" width=".88" height=".39"/>
          <rect class="st2" x="239.75" y="424.27" width=".88" height=".37"/>
          <rect class="st2" x="354.06" y="423.71" width=".91" height=".17"/>
          <rect class="st2" x="354.06" y="423.88" width=".91" height=".39"/>
          <rect class="st2" x="354.06" y="424.27" width=".91" height=".57"/>
          <rect class="st2" x="354.06" y="424.84" width=".91" height=".52"/>
          <rect class="st2" x="240.79" y="426.01" width=".94" height=".55"/>
          <rect class="st2" x="240.79" y="426.56" width=".94" height=".57"/>
          <rect class="st2" x="240.79" y="427.14" width=".94" height=".51"/>
          <rect class="st2" x="352.91" y="426.7" width=".96" height=".44"/>
          <rect class="st2" x="352.91" y="427.14" width=".96" height=".57"/>
          <rect class="st2" x="352.91" y="427.71" width=".96" height=".57"/>
          <rect class="st2" x="352.91" y="428.28" width=".96" height=".07"/>
          <rect class="st2" x="242" y="428.96" width="1.02" height=".47"/>
          <rect class="st2" x="242" y="429.43" width="1.02" height=".57"/>
          <rect class="st2" x="242" y="430.01" width="1.02" height=".57"/>
          <rect class="st2" x="351.6" y="429.68" width="1.04" height=".33"/>
          <rect class="st2" x="351.6" y="430.01" width="1.04" height=".57"/>
          <rect class="st2" x="351.6" y="430.58" width="1.04" height=".57"/>
          <rect class="st2" x="351.6" y="431.15" width="1.04" height=".14"/>
          <rect class="st2" x="243.35" y="431.84" width="1.09" height=".46"/>
          <rect class="st2" x="243.35" y="432.3" width="1.09" height=".57"/>
          <rect class="st2" x="243.35" y="432.88" width="1.09" height=".57"/>
          <rect class="st2" x="350.13" y="432.55" width="1.1" height=".33"/>
          <rect class="st2" x="350.13" y="432.88" width="1.1" height=".57"/>
          <rect class="st2" x="350.13" y="433.45" width="1.1" height=".57"/>
          <rect class="st2" x="350.13" y="434.03" width="1.1" height=".14"/>
          <rect class="st2" x="244.86" y="434.66" width="1.15" height=".51"/>
          <rect class="st2" x="244.86" y="435.17" width="1.15" height=".65"/>
          <rect class="st2" x="244.86" y="435.82" width="1.15" height=".42"/>
          <rect class="st2" x="348.51" y="435.35" width="1.18" height=".47"/>
          <rect class="st2" x="348.51" y="435.82" width="1.18" height=".65"/>
          <rect class="st2" x="348.51" y="436.47" width="1.18" height=".47"/>
          <rect class="st2" x="246.53" y="437.37" width="1.22" height=".39"/>
          <rect class="st2" x="246.53" y="437.76" width="1.22" height=".65"/>
          <rect class="st2" x="246.53" y="438.4" width="1.22" height=".52"/>
          <rect class="st2" x="346.76" y="438.07" width="1.23" height=".33"/>
          <rect class="st2" x="346.76" y="438.4" width="1.23" height=".65"/>
          <rect class="st2" x="346.76" y="439.05" width="1.23" height=".57"/>
          <rect class="st2" x="248.32" y="440" width="1.26" height=".35"/>
          <rect class="st2" x="248.32" y="440.34" width="1.26" height=".65"/>
          <rect class="st2" x="248.32" y="440.99" width="1.26" height=".54"/>
          <rect class="st2" x="344.85" y="440.68" width="1.28" height=".31"/>
          <rect class="st2" x="344.85" y="440.99" width="1.28" height=".65"/>
          <rect class="st2" x="344.85" y="441.64" width="1.28" height=".57"/>
          <rect class="st2" x="250.25" y="442.54" width="1.33" height=".39"/>
          <rect class="st2" x="250.25" y="442.93" width="1.33" height=".65"/>
          <rect class="st2" x="250.25" y="443.58" width="1.33" height=".45"/>
          <rect class="st2" x="342.82" y="443.2" width="1.34" height=".38"/>
          <rect class="st2" x="342.82" y="443.58" width="1.34" height=".65"/>
          <rect class="st2" x="342.82" y="444.22" width="1.34" height=".46"/>
          <rect class="st2" x="252.33" y="444.96" width="1.38" height=".88"/>
          <rect class="st2" x="252.33" y="445.84" width="1.38" height=".58"/>
          <rect class="st2" x="340.66" y="445.58" width="1.38" height=".26"/>
          <rect class="st2" x="340.66" y="445.84" width="1.38" height=".97"/>
          <rect class="st2" x="340.66" y="446.81" width="1.38" height=".22"/>
          <rect class="st2" x="254.52" y="447.3" width="1.42" height=".48"/>
          <rect class="st2" x="254.52" y="447.78" width="1.42" height=".93"/>
          <rect class="st2" x="338.39" y="447.89" width="1.42" height=".86"/>
          <rect class="st2" x="338.39" y="448.75" width="1.42" height=".54"/>
          <rect class="st2" x="256.86" y="449.49" width="1.47" height=".22"/>
          <rect class="st2" x="256.86" y="449.72" width="1.47" height=".97"/>
          <rect class="st2" x="256.86" y="450.69" width="1.47" height=".16"/>
          <rect class="st2" x="335.99" y="450.05" width="1.47" height=".63"/>
          <rect class="st2" x="335.99" y="450.69" width="1.47" height=".71"/>
          <rect class="st2" x="259.29" y="451.59" width="1.5" height=".07"/>
          <rect class="st2" x="259.29" y="451.65" width="1.5" height=".97"/>
          <rect class="st2" x="259.29" y="452.62" width="1.5" height=".28"/>
          <rect class="st2" x="333.5" y="452.1" width="1.52" height=".53"/>
          <rect class="st2" x="333.5" y="452.62" width="1.52" height=".77"/>
          <rect class="st2" x="261.83" y="453.52" width="1.54" height=".07"/>
          <rect class="st2" x="261.83" y="453.59" width="1.54" height=".97"/>
          <rect class="st2" x="261.83" y="454.56" width="1.54" height=".23"/>
          <rect class="st2" x="330.9" y="454.02" width="1.54" height=".54"/>
          <rect class="st2" x="330.9" y="454.56" width="1.54" height=".69"/>
          <rect class="st2" x="264.47" y="455.34" width="1.57" height="1.2"/>
          <rect class="st2" x="328.22" y="455.8" width="1.57" height="1.17"/>
          <rect class="st2" x="267.21" y="457.01" width="1.58" height=".28"/>
          <rect class="st2" x="267.21" y="457.29" width="1.58" height=".86"/>
          <rect class="st2" x="325.44" y="457.42" width="1.59" height="1.12"/>
          <rect class="st2" x="270.04" y="458.55" width="1.62" height="1.07"/>
          <rect class="st2" x="322.59" y="458.89" width="1.61" height="1.05"/>
          <rect class="st2" x="272.95" y="459.91" width="1.63" height=".1"/>
          <rect class="st2" x="272.95" y="460.02" width="1.63" height=".9"/>
          <rect class="st2" x="319.68" y="460.23" width="1.63" height=".98"/>
          <rect class="st2" x="275.92" y="461.13" width="1.65" height=".93"/>
          <rect class="st2" x="316.67" y="461.4" width="1.65" height=".91"/>
          <rect class="st2" x="278.95" y="462.2" width="1.65" height=".54"/>
          <rect class="st2" x="278.95" y="462.74" width="1.65" height=".31"/>
          <rect class="st2" x="313.63" y="462.43" width="1.65" height=".31"/>
          <rect class="st2" x="313.63" y="462.74" width="1.65" height=".52"/>
          <rect class="st2" x="282.03" y="463.1" width="1.65" height=".77"/>
          <rect class="st2" x="310.54" y="463.28" width="1.65" height=".75"/>
          <rect class="st2" x="285.15" y="463.82" width="1.65" height=".71"/>
          <rect class="st2" x="307.41" y="463.97" width="1.65" height=".69"/>
          <rect class="st2" x="288.32" y="464.38" width="1.65" height=".62"/>
          <rect class="st2" x="304.26" y="464.49" width="1.63" height=".59"/>
          <rect class="st2" x="291.5" y="464.76" width="1.62" height=".55"/>
          <rect class="st2" x="301.11" y="464.85" width="1.6" height=".51"/>
          <rect class="st2" x="294.7" y="465.01" width="1.62" height=".45"/>
          <rect class="st2" x="297.9" y="465.04" width="1.58" height=".43"/>
          <path class="st2" d="M297.9,465.47h1.58-1.58Z"/>
        </g>
      </g>
      <path class="st2" d="M296.2,496.57c-.54,0-1.07-.01-1.62-.03-.45,0-.78-.38-.77-.83,0-.45.43-.8.83-.77.53.01,1.06.03,1.58.03.45,0,.8.37.78.82,0,.43-.37.78-.8.78h-.02ZM301,496.5c-.43,0-.78-.34-.8-.77-.02-.45.32-.82.77-.84,6.35-.24,12.67-1.15,18.79-2.72.43-.11.86.15.97.58.12.43-.14.86-.58.98-6.22,1.59-12.65,2.51-19.11,2.77h-.05ZM285.05,495.74h-.11c-.53-.08-1.07-.15-1.6-.24-.43-.06-.74-.48-.67-.91.06-.43.46-.73.91-.67.53.08,1.04.16,1.57.22.43.07.74.47.69.9-.05.4-.4.69-.78.69v.02ZM272.55,493.11s-.14,0-.22-.03c-6.19-1.76-12.22-4.21-17.91-7.26-.38-.21-.54-.69-.34-1.09.21-.38.69-.54,1.09-.33,5.6,2.99,11.51,5.38,17.61,7.13.43.13.67.56.54.99-.1.35-.42.58-.77.58h0ZM330.6,490.33c-.32,0-.62-.19-.75-.51-.16-.42.05-.88.44-1.04.5-.19.98-.38,1.47-.59.4-.16.88.03,1.04.43.16.42-.03.88-.43,1.04-.5.21-1,.4-1.49.61-.1.03-.19.05-.29.05h0ZM340.74,485.61c-.29,0-.56-.14-.71-.42-.21-.38-.06-.88.32-1.09.46-.26.93-.51,1.39-.77.38-.22.88-.08,1.09.3.22.39.08.88-.3,1.09-.46.26-.93.53-1.41.79-.13.06-.26.09-.38.09ZM250.61,483.55c-.14,0-.29-.03-.42-.11-.46-.27-.91-.56-1.38-.85-.37-.24-.48-.73-.26-1.1.24-.37.74-.48,1.1-.26.45.29.9.56,1.36.83.38.22.5.72.27,1.11-.14.26-.42.38-.69.38ZM346.24,482.36c-.25,0-.53-.13-.67-.37-.24-.37-.13-.87.24-1.11,5.34-3.41,10.33-7.4,14.84-11.85.32-.3.82-.3,1.14,0,.3.32.3.82,0,1.14-4.59,4.53-9.68,8.6-15.1,12.06-.13.08-.29.13-.43.13h-.02ZM241.41,477.17c-.18,0-.35-.05-.5-.18-.42-.33-.85-.67-1.26-1.01-.34-.28-.4-.78-.11-1.12.29-.34.78-.4,1.12-.11.42.33.82.67,1.23.99.35.27.4.77.13,1.12-.16.21-.4.3-.62.3h.02ZM231.94,468.57c-.21,0-.42-.08-.58-.24-4.46-4.66-8.44-9.8-11.83-15.3-.24-.37-.11-.86.26-1.1s.86-.11,1.1.26c3.33,5.4,7.24,10.44,11.63,15.02.3.32.29.83-.02,1.14-.16.15-.35.22-.56.22ZM368.68,462.08c-.17,0-.35-.07-.49-.18-.35-.27-.4-.78-.13-1.12.34-.42.66-.83.98-1.25.27-.35.77-.42,1.12-.15.35.27.42.77.15,1.12-.32.43-.66.85-1,1.28-.16.19-.38.3-.62.3h0ZM375.08,452.88c-.15,0-.29-.03-.42-.11-.39-.22-.5-.72-.28-1.1.28-.45.55-.91.82-1.36.22-.38.71-.51,1.09-.29.38.23.51.73.29,1.09-.28.46-.55.93-.83,1.39-.15.24-.42.38-.69.38h.02ZM217.79,449.28c-.29,0-.56-.15-.7-.42-.26-.46-.51-.94-.77-1.43-.21-.38-.05-.88.34-1.07.38-.21.88-.05,1.07.34.24.46.5.93.75,1.39.21.39.06.88-.32,1.09-.13.07-.26.1-.38.1h.02ZM378.21,447.29c-.13,0-.26-.03-.37-.09-.4-.21-.55-.69-.35-1.07,2.91-5.64,5.21-11.61,6.86-17.73.11-.43.56-.67.98-.56.43.11.67.56.56.98-1.68,6.23-4.03,12.3-6.99,18.03-.15.27-.42.43-.7.43h.01ZM213.04,439.15c-.32,0-.62-.19-.74-.51-.19-.5-.38-1.01-.58-1.51-.16-.42.05-.88.46-1.02.42-.16.88.05,1.02.46.19.5.38,1,.58,1.47.16.42-.03.88-.45,1.04-.1.03-.19.07-.29.07h-.02ZM209.18,426.94c-.37,0-.69-.24-.78-.61-1.5-6.25-2.33-12.7-2.49-19.18,0-.45.34-.82.78-.82.48,0,.82.33.82.78.16,6.36.98,12.7,2.45,18.85.1.43-.16.86-.59.96-.06,0-.13.02-.19.02h.02ZM387.37,418.44h-.11c-.43-.06-.73-.46-.67-.91.08-.53.15-1.04.21-1.57.05-.44.45-.75.9-.71.43.05.75.45.7.89-.06.55-.13,1.07-.21,1.61-.06.4-.4.69-.78.69h-.03ZM388.24,407.27c-.45,0-.8-.37-.78-.82v-1.58c0-6.28-.66-12.56-1.93-18.64-.1-.43.19-.87.62-.94.43-.1.86.19.94.62,1.3,6.2,1.97,12.57,1.97,18.96v1.61c0,.43-.37.78-.8.78h-.01ZM206.72,403.13h-.02c-.45,0-.78-.39-.78-.82,0-.55.03-1.07.06-1.62.02-.45.42-.78.83-.77.45.01.78.4.77.83-.02.53-.05,1.06-.06,1.59,0,.44-.37.79-.8.79ZM207.71,391.98h-.13c-.43-.06-.74-.48-.67-.91.08-.53.16-1.05.26-1.6.08-.43.48-.72.93-.66.43.08.74.48.66.93-.08.53-.18,1.04-.26,1.57-.06.4-.4.69-.78.69v-.02ZM210.51,379.49s-.16,0-.22-.03c-.42-.13-.66-.58-.54-.99,1.86-6.18,4.37-12.17,7.48-17.84.21-.38.7-.53,1.09-.32.38.21.53.7.32,1.09-3.07,5.56-5.53,11.45-7.36,17.52-.1.35-.42.58-.77.58ZM383.35,376.08c-.34,0-.64-.21-.75-.54-.17-.5-.35-.99-.53-1.49-.15-.42.06-.88.48-1.02.42-.14.88.06,1.02.48.17.51.37,1.01.55,1.52.14.42-.08.88-.5,1.02-.08.03-.17.05-.26.05v-.02ZM379.06,365.74c-.29,0-.58-.16-.72-.45-.24-.48-.46-.94-.7-1.41-.21-.4-.05-.88.35-1.07.38-.21.88-.05,1.07.35.24.48.48.96.72,1.44.19.4.03.88-.37,1.07-.11.06-.24.08-.35.08v-.02ZM376.05,360.1c-.27,0-.54-.14-.69-.4-3.18-5.48-6.94-10.63-11.21-15.34-.3-.32-.27-.83.05-1.14.32-.3.83-.27,1.14.05,4.34,4.79,8.17,10.04,11.41,15.61.22.38.09.86-.29,1.09-.13.08-.27.11-.4.11v.02ZM220.36,357.67c-.14,0-.29-.03-.42-.13-.37-.24-.5-.72-.26-1.1.29-.46.58-.91.86-1.36.24-.37.74-.48,1.1-.24.37.24.48.74.24,1.1-.29.45-.58.9-.85,1.35-.14.24-.42.38-.67.38h-.02ZM226.86,348.54c-.18,0-.35-.06-.5-.18-.34-.27-.4-.78-.11-1.12.34-.42.69-.83,1.02-1.25.29-.34.78-.38,1.12-.1.34.29.38.78.1,1.12-.34.4-.67.82-1.01,1.23-.16.19-.38.3-.62.3v-.02ZM235.57,339.17c-.21,0-.43-.08-.59-.26-.3-.32-.29-.83.03-1.14,4.72-4.4,9.92-8.33,15.43-11.63.38-.22.86-.11,1.1.27.22.38.11.86-.27,1.1-5.42,3.25-10.52,7.11-15.16,11.43-.16.14-.35.21-.54.21ZM356.73,336.8c-.19,0-.37-.06-.53-.19-.4-.35-.8-.69-1.21-1.02-.34-.29-.39-.78-.1-1.12.29-.34.78-.38,1.12-.1.42.35.83.69,1.23,1.04.34.29.37.8.08,1.14-.16.18-.39.27-.61.27v-.02ZM347.83,330.03c-.16,0-.3-.05-.45-.13-.44-.29-.88-.59-1.32-.86-.37-.24-.48-.74-.24-1.11.24-.37.73-.48,1.1-.24.45.29.9.59,1.34.88.37.24.46.74.23,1.11-.16.22-.4.35-.67.35h.01ZM342.39,326.65c-.13,0-.27-.03-.4-.11-5.5-3.14-11.36-5.7-17.4-7.62-.42-.13-.66-.58-.53-1.01.13-.42.59-.66,1.01-.53,6.14,1.94,12.11,4.55,17.7,7.75.38.22.51.7.3,1.09-.14.26-.42.4-.69.4v.03ZM255.04,325.29c-.29,0-.56-.16-.7-.43-.21-.38-.06-.88.34-1.09.48-.26.94-.5,1.42-.74.4-.21.88-.05,1.07.35.19.4.05.88-.35,1.07-.46.24-.94.48-1.41.74-.11.06-.24.1-.37.1ZM265.22,320.68c-.32,0-.62-.19-.75-.51-.16-.42.05-.88.46-1.02.5-.19,1.01-.38,1.52-.56.42-.14.88.06,1.02.48.14.42-.06.88-.48,1.02-.5.18-.99.37-1.49.54-.1.03-.19.05-.29.05ZM277.46,316.98c-.37,0-.7-.26-.78-.62-.1-.43.18-.86.61-.96,6.27-1.41,12.71-2.16,19.19-2.23.43,0,.8.35.8.78s-.35.8-.78.82c-6.37.06-12.7.8-18.86,2.19-.06,0-.11.02-.18.02ZM313.98,316.27h-.14c-.51-.1-1.04-.19-1.57-.27-.43-.08-.73-.48-.65-.93.06-.43.48-.74.93-.66.53.1,1.05.18,1.58.27.43.08.72.5.64.93-.07.38-.4.66-.79.66ZM302.87,314.93h-.05c-.53-.03-1.06-.06-1.58-.08-.45-.02-.78-.38-.77-.83.02-.45.38-.82.83-.77.54.02,1.07.05,1.62.08.45.03.78.4.75.85-.03.43-.39.75-.8.75Z"/>
      <path class="st2" d="M397.39,403.18h-1.6v-.8c0-52.97-43.03-96.06-95.94-96.06h-.8v-1.6h.8c53.79,0,97.54,43.81,97.54,97.66v.8Z"/>
      <path class="st2" d="M288.06,453.77h-.1c-.66-.06-1.32-.14-1.97-.23-.52-.08-.89-.56-.81-1.1.08-.53.58-.89,1.1-.82.62.1,1.26.17,1.88.23.52.06.93.53.87,1.07-.06.5-.46.87-.97.87v-.02ZM299.63,453.36c-.46,0-.87-.33-.95-.81-.1-.53.27-1.03.79-1.13.62-.12,1.24-.23,1.86-.37.52-.12,1.05.21,1.16.73.12.53-.21,1.05-.74,1.17-.64.14-1.3.27-1.94.39h-.15l-.04.02ZM307.09,451.34c-.39,0-.77-.23-.91-.64-.19-.51.08-1.07.58-1.24,7.12-2.62,13.41-7.16,18.19-13.11.33-.41.95-.48,1.36-.15.43.33.48.95.15,1.36-4.99,6.22-11.6,10.97-19.05,13.71-.12.04-.23.06-.33.06v.02ZM273.25,449.52c-.14,0-.29-.04-.43-.1-7.12-3.55-13.16-8.98-17.46-15.68-.29-.45-.15-1.05.29-1.34.45-.29,1.05-.15,1.34.29,4.1,6.42,9.89,11.61,16.69,15.01.48.23.68.82.45,1.3-.17.35-.5.54-.87.54v-.02ZM253.39,429.08c-.37,0-.72-.21-.87-.56-.27-.6-.54-1.2-.79-1.82-.19-.5.04-1.07.52-1.26.48-.19,1.06.04,1.26.52.23.59.48,1.17.75,1.73.23.49,0,1.07-.46,1.28-.14.06-.27.1-.41.1v.02ZM332.43,426.22c-.12,0-.23-.02-.35-.06-.5-.2-.75-.76-.56-1.24.23-.6.43-1.18.64-1.78.17-.5.7-.79,1.22-.62.5.17.79.72.62,1.22-.21.64-.43,1.26-.66,1.88-.15.39-.52.62-.91.62v-.02ZM249.71,416.09c-.48,0-.91-.37-.97-.85-.08-.66-.14-1.32-.19-1.98-.04-.55.37-1.01.89-1.05.54-.06,1.01.37,1.05.89.04.64.1,1.26.17,1.88.06.52-.31,1.01-.85,1.06h-.12l.02.04ZM335.13,412.97h-.04c-.54-.02-.95-.48-.93-1.01.02-.62.04-1.26.04-1.9,0-2.68-.25-5.35-.75-7.97-.1-.53.25-1.03.77-1.15.52-.1,1.02.25,1.14.77.53,2.74.8,5.53.8,8.34,0,.66,0,1.32-.04,1.98-.02.52-.45.93-.97.93h-.02ZM250.68,400.7s-.15,0-.23-.02c-.52-.14-.83-.66-.72-1.18,1.9-7.72,5.9-14.79,11.54-20.46.39-.39.99-.37,1.37,0,.39.39.39.99,0,1.38-5.4,5.41-9.21,12.18-11.03,19.55-.12.44-.5.73-.93.73ZM329.79,390.19c-.35,0-.68-.17-.85-.5-.31-.56-.62-1.11-.95-1.63-.27-.44-.14-1.04.31-1.34.44-.29,1.04-.14,1.33.31.35.56.68,1.12,1.01,1.7.26.47.1,1.07-.37,1.32-.15.08-.31.12-.46.12l-.02.02ZM321.47,379.57c-.23,0-.46-.08-.66-.26-.46-.43-.93-.85-1.41-1.26-.41-.35-.46-.95-.12-1.36.35-.41.95-.47,1.35-.12.51.43,1.01.87,1.49,1.32.39.37.41.97.06,1.37-.19.21-.44.31-.72.31v-.02ZM266.32,376.87c-.29,0-.58-.14-.77-.39-.33-.43-.23-1.03.17-1.36.52-.41,1.06-.8,1.61-1.16.45-.31,1.05-.19,1.36.25.31.45.19,1.05-.25,1.36-.52.37-1.03.74-1.53,1.11-.17.14-.39.19-.58.19ZM315.35,374.81c-.17,0-.37-.06-.52-.16-6.41-4.09-13.82-6.36-21.45-6.55-.54,0-.95-.47-.95-.99s.46-.95.99-.95c7.98.21,15.74,2.58,22.44,6.86.44.29.58.89.29,1.34-.19.29-.51.45-.82.45h.02ZM278.21,370.47c-.41,0-.77-.25-.91-.66-.17-.5.1-1.07.6-1.24.62-.21,1.26-.43,1.88-.6.52-.16,1.05.14,1.2.66.16.5-.14,1.05-.66,1.2-.6.17-1.2.37-1.8.58-.1.04-.21.06-.31.06Z"/>
      <path class="st2" d="M426.11,275.52l-57.21,57.26.57.57,57.21-57.26-.57-.57Z"/>
      <path class="st2" d="M297.16,404.63l-32.16,32.18.57.57,32.16-32.18-.57-.57Z"/>
      <path class="st2" d="M203.35,495.42c-.42,0-.82-.16-1.14-.46-.62-.62-.62-1.63,0-2.26l72.74-72.83c.62-.62,1.63-.62,2.25,0,.62.63.62,1.63,0,2.26l-72.74,72.83c-.32.32-.72.46-1.14.46h.02Z"/>
      <path class="st2" d="M163.16,534.45c-.1,0-.21-.03-.29-.11-.16-.16-.16-.42,0-.56l72.74-72.83c.16-.16.42-.16.56,0,.16.16.16.42,0,.56l-72.72,72.83s-.18.11-.29.11Z"/>
      <path class="st2" d="M255.53,460.94c-.42,0-.82-.16-1.14-.46-.62-.62-.62-1.63,0-2.26l30.31-30.34c.62-.62,1.63-.62,2.25,0,.62.62.62,1.63,0,2.26l-30.31,30.34c-.32.32-.72.46-1.14.46h.02Z"/>
      <path class="st2" d="M185.68,530.87c-.42,0-.82-.16-1.14-.47-.62-.62-.62-1.63,0-2.26l30.31-30.34c.62-.62,1.63-.62,2.25,0,.62.62.62,1.63,0,2.26l-30.31,30.34c-.32.32-.72.47-1.14.47h.02Z"/>
      <path class="st2" d="M398.06,330.33c4.52,0,8.18-3.66,8.18-8.18s-3.66-8.18-8.18-8.18-8.17,3.66-8.17,8.18,3.66,8.18,8.17,8.18Z"/>
      <path class="st2" d="M235.14,493.46c4.51,0,8.17-3.66,8.17-8.19s-3.66-8.18-8.17-8.18-8.17,3.66-8.17,8.18,3.66,8.19,8.17,8.19Z"/>
      <path class="st2" d="M313.22,415.45c0,3.06-2.48,5.54-5.54,5.54s-5.53-2.48-5.53-5.54,2.48-5.54,5.53-5.54,5.54,2.49,5.54,5.54Z"/>
      <path class="st2" d="M195.42,505.09c0,1.47-1.2,2.67-2.67,2.67s-2.67-1.2-2.67-2.67,1.2-2.67,2.67-2.67,2.67,1.2,2.67,2.67Z"/>
      <path class="st2" d="M297.48,514.74c-29.31,0-56.87-11.43-77.6-32.18-20.73-20.76-32.15-48.34-32.15-77.7s11.42-56.94,32.15-77.69c20.73-20.75,48.28-32.19,77.6-32.19s56.87,11.43,77.6,32.19c20.73,20.75,32.14,48.34,32.14,77.69s-11.41,56.94-32.14,77.7c-20.73,20.75-48.28,32.18-77.6,32.18ZM297.48,295.39c-29.2,0-56.66,11.39-77.31,32.06-20.65,20.67-32.02,48.17-32.02,77.41s11.37,56.74,32.02,77.41c20.65,20.67,48.11,32.06,77.31,32.06s56.66-11.39,77.31-32.06c20.65-20.67,32.02-48.17,32.02-77.41s-11.37-56.73-32.02-77.41c-20.64-20.67-48.11-32.06-77.31-32.06Z"/>
      <path class="st2" d="M297.53,516.15c-5.13.01-10.22-.34-15.24-1.02-.88-.11-1.49-.93-1.38-1.81.11-.88.93-1.49,1.81-1.37,4.85.65,9.8.99,14.75.99,1.33,0,2.75-.03,4.13-.08.88-.01,1.63.66,1.66,1.54.03.88-.66,1.63-1.54,1.67-1.39.05-2.78.08-4.19.08v.02ZM312.8,515.09c-.78,0-1.47-.58-1.59-1.38-.13-.88.48-1.68,1.36-1.81.53-.08,1.04-.15,1.57-.22.86-.15,1.69.46,1.82,1.34.13.88-.46,1.7-1.34,1.82-.53.08-1.07.16-1.6.24h-.22ZM277.78,514.39c-.1,0-.19,0-.29-.03-.53-.1-1.07-.19-1.6-.3-.86-.18-1.42-1.01-1.26-1.88.18-.87,1.02-1.44,1.87-1.26.51.1,1.02.19,1.55.29.86.16,1.44,1,1.3,1.86-.14.77-.82,1.32-1.57,1.32h0ZM323.79,512.97c-.72,0-1.37-.48-1.55-1.22-.21-.87.3-1.73,1.17-1.94.51-.13,1.02-.26,1.53-.38.87-.23,1.73.29,1.95,1.14.22.85-.29,1.73-1.14,1.95-.53.15-1.04.27-1.57.4-.13.03-.26.05-.38.05h-.02ZM266.89,511.81c-.14,0-.3-.01-.45-.06-.51-.15-1.04-.3-1.55-.46-.85-.26-1.31-1.16-1.06-2,.26-.85,1.15-1.32,2-1.06.5.16,1.01.3,1.52.45.85.24,1.33,1.14,1.09,1.99-.21.7-.85,1.15-1.54,1.15h-.02ZM329.95,511.25c-.69,0-1.31-.45-1.52-1.12-.26-.85.21-1.75,1.05-2,6-1.86,11.88-4.27,17.46-7.16.78-.4,1.75-.1,2.16.69.4.79.1,1.75-.69,2.16-5.75,2.98-11.82,5.46-17.99,7.38-.16.05-.32.08-.48.08v-.03ZM357.34,498.35c-.53,0-1.04-.26-1.34-.72-.48-.74-.27-1.73.46-2.21.44-.29.88-.58,1.32-.86.73-.5,1.73-.3,2.22.43.5.73.3,1.73-.43,2.22-.45.3-.89.61-1.34.9-.27.17-.58.26-.88.26h0ZM366.38,491.75c-.46,0-.93-.21-1.25-.59-.56-.69-.44-1.7.24-2.26.4-.33.82-.65,1.21-.99.67-.56,1.7-.48,2.26.21.56.67.48,1.68-.21,2.26-.42.35-.83.69-1.25,1.02-.3.24-.66.35-1.01.35ZM371.23,487.57c-.44,0-.87-.18-1.18-.53-.59-.66-.55-1.66.11-2.26,4.65-4.24,8.95-8.92,12.79-13.9.55-.7,1.55-.83,2.24-.29.71.54.83,1.55.29,2.24-3.95,5.12-8.4,9.94-13.18,14.32-.3.28-.69.42-1.07.42ZM390.59,464.25c-.29,0-.58-.08-.85-.24-.75-.46-.98-1.46-.51-2.21.27-.44.55-.89.82-1.34.45-.75,1.44-1.01,2.19-.55.75.45,1.01,1.45.55,2.19-.28.46-.56.93-.85,1.39-.3.5-.83.75-1.36.75h.01ZM396.01,454.45c-.24,0-.48-.05-.71-.16-.8-.39-1.12-1.34-.73-2.15.22-.48.46-.94.69-1.43.39-.8,1.33-1.15,2.13-.77.8.37,1.15,1.33.77,2.13-.22.49-.46.98-.71,1.47-.27.58-.85.89-1.44.89ZM398.63,448.59c-.21,0-.42-.03-.6-.13-.82-.33-1.2-1.28-.87-2.1,2.41-5.81,4.33-11.88,5.7-18.03.19-.87,1.05-1.41,1.9-1.22.87.19,1.41,1.04,1.22,1.9-1.41,6.34-3.37,12.59-5.87,18.57-.26.61-.85,1-1.47,1ZM406.28,419.26h-.19c-.88-.1-1.5-.9-1.41-1.78.06-.53.11-1.04.17-1.57.1-.88.87-1.52,1.76-1.43.88.1,1.52.88,1.42,1.76-.05.55-.11,1.07-.17,1.62-.1.82-.78,1.41-1.59,1.41h0ZM407,408.08h-.03c-.88,0-1.59-.73-1.59-1.62v-1.58c0-.88.72-1.61,1.6-1.61s1.6.72,1.6,1.61v1.61c0,.88-.72,1.59-1.6,1.59h.01Z"/>
      <path class="st2" d="M369.37,317.8c0,3.06-2.48,5.54-5.54,5.54s-5.53-2.48-5.53-5.54,2.48-5.54,5.53-5.54,5.54,2.48,5.54,5.54Z"/>
      <path class="st2" d="M211.7,461.82c0,4.34-3.5,7.85-7.84,7.85s-7.84-3.51-7.84-7.85,3.5-7.85,7.84-7.85,7.84,3.51,7.84,7.85Z"/>
      <path class="st2" d="M203.86,470.47c-4.77,0-8.64-3.88-8.64-8.65s3.87-8.65,8.64-8.65,8.64,3.88,8.64,8.65-3.87,8.65-8.64,8.65ZM203.86,454.78c-3.89,0-7.04,3.15-7.04,7.04s3.15,7.04,7.04,7.04,7.04-3.15,7.04-7.04-3.15-7.04-7.04-7.04Z"/>
      <path class="st2" d="M292.57,462.61c-29.99,0-54.39-24.4-54.39-54.39s24.4-54.39,54.39-54.39,54.39,24.4,54.39,54.39-24.4,54.39-54.39,54.39ZM292.57,355.76c-28.92,0-52.46,23.53-52.46,52.46s23.53,52.46,52.46,52.46,52.46-23.53,52.46-52.46-23.53-52.46-52.46-52.46Z"/>
    </g>
  </g>
  <g>
    <path d="M369.89,422.25c-12.52-7.97-34.94-9.98-34.94-9.98-14.45-1.75-14.63-5.25-14.63-5.25-2.1-7.53,7.79-11.04,7.79-11.04,4.64-2.89-1.05-5.52-1.05-5.52-2.19-1.49-8.93-.18-8.93-.18l-8.41,1.49c-15.9,2.1-25.76-13.68-29.06-20.07-1.18-2.29-2.39-4.55-3.68-6.78-2.37-4.09-5.97-10.4-8.42-15.19-3.94-7.71-18.13-25.75-18.13-25.75.35,1.05-2.54,10.16-4.12,13.22-1.58,3.07-7.36,14.98-7.36,14.98-4.85,11.31,13.95,31.03,21.58,38.4,3.93,3.79,6.81,8.52,8.32,13.76,1.61,5.59,2.6,12.82,1.79,20.97-1.56,15.7-33.02,14.36-33.02,14.36,4.2,8.41,5.69,13.57,5.69,13.57,1.4-.26,12.26,2.45,12.26,2.45-4.29,3.33-10.07,4.12-10.07,4.12,5.61,9.72,6.31,19.27,6.31,19.27,7.71-4.82,18.83-4.38,18.83-4.38-2.45-9.63-1.05-11.56-1.05-11.56l7.79,9.28c4.73,1.49,14.28-1.66,14.28-1.66-1.66-1.58-5.69-12.96-5.69-12.96,0,0-7.01-17.69,12.52-22.68,19.53-4.99,34.68.44,34.68.44l13.66,4.82c6.48,2.1,9.63-1.31,9.63-1.31,15.24-10.77,25.66-9.46,25.66-9.46-1.58-.35-12.26-7.36-12.26-7.36Z"/>
    <path d="M255.31,317.11s3.8,10.54,18.62,30.07c1.08,1.42,2.05,2.91,2.95,4.45l14.4,24.92s8.17,14.71,24.87,8.76l-7.65-3.74s-2.04-.88,1.87-.76,14.95,3.62,14.95,3.62c0,0,8,1.52,14.36,10.16,0,0,2.04,5.72-.88,3.68,0,0-1.81-3.09-5.9-1.4-4.09,1.69-6.42,3.5-7.42,5.78,0,0-1.46,3.04,7.01,2.63,8.47-.41,23.24,4.38,23.24,4.38,0,0,11.74,2.69,21.02,12.49,0,0,6.71,5.96,9.69,7.24,0,0-1.63.64-11.74-6.19s-18.63-10.33-36.08-13.08c0,0-16.87-.47-16.06-5.25.82-4.79,4.5-6.25,4.5-6.25,0,0,8.23-4.26,5.78-6.71,0,0-2.51-4.79-9.17-4.55,0,0-19.06,3.59-23.41,1.05s-10.5-6.2-16.23-16.7c-3.89-7.13-6.83-12.9-9.02-16.79-1.03-1.83-2.8-5.33-4.01-7.04-1.35-1.9-3.37-4.34-6.08-8.18-1-1.42-2.05-3.22-3.19-4.54-2.74-3.18-8.75-11.2-6.43-18.04Z"/>
    <path d="M370.24,434.46s23.38,9.68,32.54,12.09c0,0-7.4-6.17,3.85-7.23l-22.51-6.96s-3.98-1.53-13.88,2.1Z"/>
    <path d="M414.43,441.6l28.2,7.49s-.89.09-2.89.22c-2,.13-3.07.13-6.17,1.88-3.11,1.75-7.44,4.47-15.63,2.1-8.19-2.36-12.35-5.61-12.35-5.61,0,0-.7-.48.13-.31,0,0,6.39,2.15,10.07.31,3.68-1.84-.13-4.51-.13-4.51l-1.8-1.18s-.35-.61.57-.39Z"/>
    <path d="M410.12,444.36c-.5,1.22-2.1,1.72-3.32,1.22s-2.02-1.98-1.52-3.2,2.11-1.71,3.33-1.21c1.22.5,2.01,1.98,1.51,3.2Z"/>
    <path d="M393.47,456.96c-.55,1.17-2.11,1.56-3.25,1s-1.89-2.09-1.35-3.26,2.19-1.52,3.32-.96,1.82,2.06,1.27,3.22Z"/>
    <path d="M368.37,463.2c.85,1.01.9,2.74-.11,3.58-1.01.85-2.7.49-3.55-.52-.85-1.01-.92-2.76.09-3.61s2.72-.47,3.57.54Z"/>
    <path d="M344.91,461.55c.48,1.23-.03,2.82-1.26,3.31s-2.7-.33-3.18-1.55.02-2.85,1.25-3.34c1.23-.48,2.71.36,3.19,1.58Z"/>
    <path d="M363.26,437.82s2.91.09,16.16,7.76l10.9,5.21s.56.34.36.43c0,0-6.18-1.2-6.71,3.01,0,0-.06,2,1.54,3.38,0,0-12.44-6.73-18.15-10.4,0,0-6.65-4.87-9.59-5.96,0,0,4.31-3.21,5.48-3.44Z"/>
    <path d="M398.99,455.61s11.1,6.27,21.39,9.31c0,0-3.66-1.15-9.06.83s-10.32.17-10.32.17c0,0-4.18-1.16-11.95-6.55,0,0,.51-.1,3.56.85,3.61,1.12,6.93.52,7.63-.26s.59-1.58-1.03-3.52l-.7-.66s-.39-.43.48-.17Z"/>
    <path d="M351.38,443.86s.86-.2,2.67,1.81c0,0,8.7,9.63,10.79,11.24,0,0,3.84,3.39,3.91,3.9,0,0,.07.15-.07.19,0,0-3.9-2.35-7.09-.23-3.2,2.12-1.12,4.6-1.12,4.6,0,0-10.58-10.98-14.3-16.82,0,0-4.29-5.01-6.17-7.79,0,0,6.93,3.21,11.4,3.12Z"/>
    <path d="M372.26,465.38s4.64,6.02,11.19,10.18c6.55,4.16,6.11,5.43,6.11,5.43,0,0-2.3-.81-9.63-1.49-7.33-.68-9.48-2.65-9.48-2.65,0,0-5.15-4.12-8.12-9.13,0,0-.22-.57,0-.61,0,0,1.6.72,4.99,3.35,0,0,3.2,1.8,5.41.15,0,0,1.03-.48-.31-3.66,0,0-.46-1.45-.15-1.58Z"/>
    <path d="M333.75,438.43s8.26,13.6,11.82,19.12c0,0,.8.85.46,1.26,0,0-2.62-2.66-6.27-1.61s-2.99,4.47-2.99,4.47c0,0-6.87-12.32-8.6-17.19s-3.73-8.06-3.73-8.06c0,0,4.87.35,9.31,2.01Z"/>
    <path d="M320.61,436.1s-2.95-.44-5.87-.15c0,0-.9,24.96-.55,27.21,0,0-.2,3.33,3.91,4.23l3.62.93s1.66.47,1.58-3.39c0,0-1.11-21.63-2.69-28.84Z"/>
    <path d="M307.24,436.33l3.59-.26s1.26-.09,1.2.99c0,0,.67,22.04-.18,24.08,0,0-.23,1.63-1.2,1.49l-3.56-1.26s-2.66-.9-2.22-3.39c0,0,.99-13.75,1.72-16.87l.64-4.79Z"/>
    <path d="M304.44,436.6l-4.15.88s-2.34,13.25-2.57,17.22c0,0-.41,2.01,1.46,2.77l2.77,1.17s1.14.73,1.4-2.22c0,0,.35-9.69,1.02-17.05,0,0,.5-2.63.06-2.77Z"/>
    <path d="M219.03,284.43c.96,2.07.19,4.78-1.89,5.75s-4.65-.19-5.61-2.26c-.96-2.07-.3-5.03,1.77-6s4.77.44,5.73,2.51Z"/>
    <path d="M205.53,312.19c1.35,1.84,1.19,4.77-.65,6.12-1.84,1.35-4.68.61-6.03-1.24s-1.37-5.01.48-6.36,4.85-.37,6.2,1.48Z"/>
    <circle cx="196.12" cy="343.08" r="4.14"/>
    <path d="M196.9,369.83c.26-1.99,2.74-3.32,4.73-3.06s3.67,2.12,3.41,4.12-2.35,3.37-4.35,3.11-4.05-2.17-3.79-4.17Z"/>
    <path d="M216.36,274.08s-27.15-41.05-28.43-42.45c0,0-.41,1.05.7,3.68s1.99,7.3,1.05,11.74c-.93,4.44-5.08,20.96,6.07,34.1,0,0,12.09,14.01,15.53,14.71,0,0,.88.41.39-.38,0,0-8.32-11.21-5.87-19.09,2.45-7.88,10.33-.57,10.33-.57,0,0,1.23.53.7-.79l-.48-.95Z"/>
    <path d="M224.29,287.29s-.04,15.68-11.3,9.59c0,0,9.94,14.19,17.69,22.55,7.75,8.36,12.22,13.31,12.7,14.36,0,0,3.05-7.23,3.58-10.56.12-.74-.04-1.49-.42-2.15-.89-1.54-3.41-5.56-9.56-13.59-.82-1.07-1.66-2.12-2.52-3.17-1.44-1.77-5.75-7.45-10.18-17.04Z"/>
    <path d="M169.86,272.79s25.27,23.43,31.62,31.13c0,0,.83.79-.13,1.05,0,0-9.15-5.04-9.11,4.34,0,0-.44,6.17,8.1,14.01,0,0,.66.7-.22.7,0,0-17.43-6-24.26-20.06,0,0-1.49-2.58-1.93-11.25,0,0,.96-11.17-3.59-18.09,0,0-.96-1.58-.48-1.84Z"/>
    <path d="M202.42,325.77s10.01,4.78,8.12-11.86c0,0,8.76,9.16,15.37,14.28,0,0,13.53,10.99,13.57,13.22,0,0-4.73,8.85-4.77,10.12,0,0-23.41-16.43-32.3-25.75Z"/>
    <path d="M202.16,338.1s7.24,12.94-3.48,14.3c0,0,14.93,7.49,30.39,12.35l8.71,3.46s-4.6-4.86-4.07-13.53c0,0-21.61-8.39-31.55-16.57Z"/>
    <path d="M161.85,314.57s28.38,16.9,30.48,19.09c0,0,.35.44-.22.74,0,0-10.07-2.45-5.82,8.54,0,0,1.84,3.72,7.79,7.23,0,0,.66.31,0,.61,0,0-17.56-2.23-23.08-11.82,0,0-2.93-6.7-4.2-14.32,0,0-.22-4.25-5.04-9.46,0,0-.57-.79.09-.61Z"/>
    <path d="M238.61,370.05s8.23,11.34,10.38,12.7c0,0-13.12-1.95-20.81-3-10.32-1.41-22.2-2.14-22.2-2.14,0,0,10.29-6.35-1.43-12.74-.05-.02-.05-.09,0-.08,1.46.23,10.14,1.5,21.6,3.64,0,0,11.16,1.75,12.47,1.63Z"/>
    <path d="M166.32,357.44s27.08,5.19,30.05,6.48c0,0,.5.36-.17.68,0,0-8.04.81-4.51,7.18,0,0,1.92,4.09,9.28,5.42,0,0,.61.26-.29.41,0,0-8.03-.15-16.12-2.42-2.99-.84-5.59-2.7-7.37-5.25-.71-1.02-1.48-2.27-2.23-3.77-1.34-2.68-3.34-5-5.9-6.55-.84-.51-1.8-1.05-2.88-1.59,0,0-.68-.92.14-.6Z"/>
    <path d="M251.53,385.59l5.91,6.26s-21.5,10.73-30.92,14.49c0,0-2.93,1.8-6.13-1.75l-3.33-4.12s-1.8-1.62,3.11-3.72c0,0,26.71-9.59,31.35-11.17Z"/>
    <path d="M258.53,393.43s3.28,2.89,3.85,5.21l-23.6,15.02s-2.58,1.58-5.47-1.93l-2.23-2.1s-2.23-1.27,6.17-5.39l21.28-10.82Z"/>
    <path d="M263.4,400.66s2.23,4.16,1.93,5.08l-15.76,13.62s-1.58,2.01-4.55-.04l-2.58-1.8s-1.45-.92,2.19-3.37c0,0,16.2-11.69,18.79-13.49Z"/>
    <path d="M349.92,465.47s4.06,6.69,8.26,10.04,5.02,4.82,5.02,4.82c0,0-1.49-1.46-8.87-2.28-7.39-.82-10.77-4.96-10.77-4.96,0,0-3.24-3.27-4.55-7.94l4.26,2.74s3.62,2.36,5.25.44c0,0,1.14-.55.23-2.83l-.2-.96s.2-.32,1.37.93Z"/>
  </g>
</svg>