<?xml version="1.0" encoding="UTF-8"?>
<svg id="Layer_1" data-name="Layer 1" xmlns="http://www.w3.org/2000/svg" viewBox="0 0 806.43 846.7">
  <defs>
    <style>
      .cls-1 {
        fill: #231f20;
      }
    </style>
  </defs>
  <path class="cls-1" d="M282.31,688.6h-58.7l-46.81-358.16-46.81,358.16h-58.7L150.04,168.45h28.98c22.29,0,26.01,14.12,28.24,28.24l75.05,491.91Z"/>
  <path class="cls-1" d="M475.52,439.16c0,13.25-11.04,24.3-24.3,24.3h-119.28v-29.82c0-12.15,11.04-23.19,24.3-23.19h119.28v28.72Z"/>
  <path class="cls-1" d="M578.62,616.16c-2.23,8.92,2.23,14.12,9.66,14.12h144.89l-17.09,37.9c-3.72,7.43-11.15,14.86-28.24,14.86h-193.93l153.07-454c1.49-6.69-1.49-12.63-10.4-12.63h-60.19c-17.09,0-25.26-8.17-28.98-14.86-2.23-4.46-11.15-25.26-17.09-38.64h202.11l-153.81,453.25Z"/>
  <path class="cls-1" d="M.04,70.18h43.09v709.9H4.95c-2.71,0-4.91-2.2-4.91-4.91V70.18H.04Z"/>
  <path class="cls-1" d="M338.31,403.74h38.18v691.67c0,10.06-8.17,18.23-18.23,18.23h-24.85V408.65c0-2.71,2.2-4.91,4.91-4.91Z" transform="translate(-403.74 1113.64) rotate(-90)"/>
  <path class="cls-1" d="M429.79-263.82h43.09V430.47c0,8.62-7,15.61-15.61,15.61h-27.47V-263.82h0Z" transform="translate(542.47 -360.2) rotate(90)"/>
  <path class="cls-1" d="M156.6-26.05h38.18c2.71,0,4.91,2.2,4.91,4.91v153.32c0,1.24-1,2.24-2.24,2.24h-40.85V-26.05h0Z" transform="translate(149.79 -129.85) rotate(64.32)"/>
  <path class="cls-1" d="M606.37,713.64h38.18c2.71,0,4.91,2.2,4.91,4.91v155.56h-43.09v-160.47h0Z" transform="translate(165.28 1694.14) rotate(-114.46)"/>
  <path class="cls-1" d="M763.35,69.54h43.09v709.9h-38.18c-2.71,0-4.91-2.2-4.91-4.91V69.54h0Z" transform="translate(1569.78 848.99) rotate(-180)"/>
</svg>